<svg width="151" height="57" viewBox="0 0 151 57" fill="none" xmlns="http://www.w3.org/2000/svg">
<path d="M6.888 38.996C5.58133 38.996 4.40533 38.772 3.36 38.324C2.31467 37.8574 1.49333 37.204 0.896 36.364C0.298667 35.524 0 34.544 0 33.424H3.416C3.49067 34.264 3.81733 34.9547 4.396 35.496C4.99333 36.0374 5.824 36.308 6.888 36.308C7.98934 36.308 8.848 36.0467 9.464 35.524C10.08 34.9827 10.388 34.292 10.388 33.452C10.388 32.7987 10.192 32.2667 9.8 31.856C9.42667 31.4454 8.95067 31.128 8.372 30.904C7.812 30.68 7.028 30.4374 6.02 30.176C4.75067 29.84 3.71467 29.504 2.912 29.168C2.128 28.8134 1.456 28.272 0.896 27.544C0.336 26.816 0.0560001 25.8453 0.0560001 24.632C0.0560001 23.512 0.336 22.532 0.896 21.692C1.456 20.852 2.24 20.208 3.248 19.76C4.256 19.312 5.42267 19.088 6.748 19.088C8.63334 19.088 10.1733 19.564 11.368 20.516C12.5813 21.4493 13.2533 22.7373 13.384 24.38H9.856C9.8 23.6707 9.464 23.064 8.848 22.56C8.232 22.056 7.42 21.804 6.412 21.804C5.49733 21.804 4.75067 22.0373 4.172 22.504C3.59333 22.9707 3.304 23.6427 3.304 24.52C3.304 25.1173 3.48133 25.612 3.836 26.004C4.20933 26.3773 4.676 26.676 5.236 26.9C5.796 27.124 6.56133 27.3667 7.532 27.628C8.82 27.9827 9.86534 28.3374 10.668 28.692C11.4893 29.0467 12.18 29.5974 12.74 30.344C13.3187 31.072 13.608 32.052 13.608 33.284C13.608 34.2734 13.3373 35.2067 12.796 36.084C12.2733 36.9614 11.4987 37.6707 10.472 38.212C9.464 38.7347 8.26933 38.996 6.888 38.996Z" fill="#242946"/>
<path d="M36.0504 23.12C37.2638 23.12 38.3464 23.372 39.2984 23.876C40.2691 24.38 41.0251 25.1267 41.5664 26.116C42.1264 27.1054 42.4064 28.3 42.4064 29.7V38.8H39.2424V30.176C39.2424 28.7947 38.8971 27.74 38.2064 27.012C37.5158 26.2653 36.5731 25.892 35.3784 25.892C34.1838 25.892 33.2318 26.2653 32.5224 27.012C31.8318 27.74 31.4864 28.7947 31.4864 30.176V38.8H28.3224V30.176C28.3224 28.7947 27.9771 27.74 27.2864 27.012C26.5958 26.2653 25.6531 25.892 24.4584 25.892C23.2638 25.892 22.3118 26.2653 21.6024 27.012C20.9118 27.74 20.5664 28.7947 20.5664 30.176V38.8H17.3744V23.372H20.5664V25.136C21.0891 24.5013 21.7518 24.0067 22.5544 23.652C23.3571 23.2973 24.2158 23.12 25.1304 23.12C26.3624 23.12 27.4638 23.3813 28.4344 23.904C29.4051 24.4267 30.1518 25.1827 30.6744 26.172C31.1411 25.2387 31.8691 24.5013 32.8584 23.96C33.8478 23.4 34.9118 23.12 36.0504 23.12Z" fill="#242946"/>
<path d="M45.4042 31.016C45.4042 29.4667 45.7215 28.0947 46.3562 26.9C47.0095 25.7053 47.8869 24.7813 48.9882 24.128C50.1082 23.456 51.3402 23.12 52.6842 23.12C53.8975 23.12 54.9522 23.3627 55.8482 23.848C56.7629 24.3147 57.4909 24.9027 58.0322 25.612V23.372H61.2522V38.8H58.0322V36.504C57.4909 37.232 56.7535 37.8387 55.8202 38.324C54.8869 38.8094 53.8229 39.052 52.6282 39.052C51.3029 39.052 50.0895 38.716 48.9882 38.044C47.8869 37.3534 47.0095 36.4014 46.3562 35.188C45.7215 33.956 45.4042 32.5654 45.4042 31.016ZM58.0322 31.072C58.0322 30.008 57.8082 29.084 57.3602 28.3C56.9309 27.516 56.3615 26.9187 55.6522 26.508C54.9429 26.0974 54.1775 25.892 53.3562 25.892C52.5349 25.892 51.7695 26.0974 51.0602 26.508C50.3509 26.9 49.7722 27.488 49.3242 28.272C48.8949 29.0374 48.6802 29.952 48.6802 31.016C48.6802 32.08 48.8949 33.0134 49.3242 33.816C49.7722 34.6187 50.3509 35.2347 51.0602 35.664C51.7882 36.0747 52.5535 36.28 53.3562 36.28C54.1775 36.28 54.9429 36.0747 55.6522 35.664C56.3615 35.2534 56.9309 34.656 57.3602 33.872C57.8082 33.0694 58.0322 32.136 58.0322 31.072Z" fill="#242946"/>
<path d="M68.6368 25.612C69.1034 24.828 69.7194 24.2213 70.4848 23.792C71.2688 23.344 72.1928 23.12 73.2568 23.12V26.424H72.4448C71.1941 26.424 70.2421 26.7413 69.5888 27.376C68.9541 28.0107 68.6368 29.112 68.6368 30.68V38.8H65.4448V23.372H68.6368V25.612Z" fill="#242946"/>
<path d="M79.9149 25.976V34.516C79.9149 35.0947 80.0455 35.5147 80.3069 35.776C80.5869 36.0187 81.0535 36.14 81.7069 36.14H83.6669V38.8H81.1469C79.7095 38.8 78.6082 38.464 77.8429 37.792C77.0775 37.12 76.6949 36.028 76.6949 34.516V25.976H74.8749V23.372H76.6949V19.536H79.9149V23.372H83.6669V25.976H79.9149Z" fill="#242946"/>
<circle cx="122.5" cy="28.5" r="28.5" fill="#3BCBBE"/>
<path d="M107.439 15.6635H114.183V25.7301H123.195V31.3626H114.183V41.4293H107.439V15.6635Z" fill="white"/>
<path fill-rule="evenodd" clip-rule="evenodd" d="M119.673 31.1415V41.4293H126.624V31.3141L133.946 41.2831H142.056L133.12 30.0049C135.339 28.6443 136.82 26.1963 136.82 23.4025C136.82 19.1283 133.355 15.6635 129.081 15.6635H126.624H119.673V31.1415ZM126.624 31.1415H126.774L126.624 31.1701V31.1415ZM128.895 19.3707H125.79V27.0634H128.895C131.019 27.0634 132.741 25.3413 132.741 23.2171C132.741 21.0928 131.019 19.3707 128.895 19.3707Z" fill="white"/>
</svg>
