<svg width="512" height="512" viewBox="0 0 512 512" fill="none" xmlns="http://www.w3.org/2000/svg">
<path d="M22.9958 0C10.6471 0 0.963994 10.6034 2.08205 22.9014L41.2491 453.716C42.0911 462.978 48.9247 470.583 58.0442 472.407L251.881 511.176C254.6 511.72 257.4 511.72 260.119 511.176L453.956 472.407C463.075 470.583 469.909 462.978 470.751 453.716L509.918 22.9013C511.036 10.6034 501.353 0 489.004 0H22.9958ZM234.668 420.685C234.668 420.685 234.668 420.685 234.668 420.685L129.631 399.712C125.031 398.794 121.584 394.958 121.159 390.287L116.853 342.901C115.735 330.603 125.418 320 137.766 320H138.442C149.306 320 158.376 328.285 159.356 339.105L160.416 350.802C161.049 357.786 166.203 363.52 173.08 364.892V364.892C182.869 366.844 191.999 359.356 191.999 349.374V106.331C191.999 94.7333 201.401 85.3312 212.999 85.3312H213.667C225.265 85.3312 234.667 94.7333 234.667 106.331V420.685C234.667 420.685 234.668 420.685 234.668 420.685V420.685ZM416.403 108.898C415.421 119.716 406.351 128 395.489 128H341C329.402 128 320 137.402 320 149V213.669C320 225.267 329.402 234.669 341 234.669H381.984C394.333 234.669 404.016 245.271 402.898 257.569L391.544 382.548C390.703 391.813 383.865 399.42 374.742 401.241L302.443 415.677C289.45 418.271 277.331 408.333 277.331 395.084V394.413C277.331 384.399 284.401 375.779 294.221 373.819L335.119 365.655C344.243 363.834 351.08 356.228 351.923 346.963L356.17 300.239C357.289 287.941 347.605 277.337 335.257 277.337H298.331C286.733 277.337 277.331 267.935 277.331 256.337V106.337C277.331 94.7395 286.733 85.3375 298.331 85.3375H395.549C407.896 85.3375 417.579 95.9389 416.463 108.236L416.403 108.898Z" fill="#00C695"/>
</svg>
