<svg width="512" height="512" viewBox="0 0 512 512" fill="none" xmlns="http://www.w3.org/2000/svg">
<path d="M253.464 94.8674C229.807 111.507 202.993 130.367 188.627 161.568C163.673 216.001 239.689 275.38 242.937 277.881C243.693 278.463 244.596 278.752 245.497 278.752C246.454 278.752 247.413 278.425 248.192 277.773C249.701 276.511 250.129 274.367 249.222 272.621C248.947 272.091 221.662 219.092 222.676 181.068C223.035 167.826 241.568 152.804 261.188 136.898C279.158 122.331 299.527 105.819 311.446 86.5042C337.61 43.9882 308.53 2.18229 308.233 1.76598C307.078 0.144367 304.946 -0.44485 303.123 0.355881C301.302 1.15829 300.293 3.12907 300.709 5.07466C300.768 5.34996 306.423 32.9962 290.687 61.4784C284.203 73.2477 269.959 83.2677 253.464 94.8674Z" fill="#00C695"/>
<path d="M353.136 113.617C354.805 112.359 355.295 110.066 354.284 108.236C353.274 106.407 351.073 105.599 349.119 106.341C345.1 107.869 250.703 144.254 250.703 188.221C250.703 218.526 263.649 234.537 273.102 246.229C276.81 250.814 280.011 254.774 281.065 258.155C284.035 267.898 276.999 285.507 274.042 291.47C273.189 293.185 273.607 295.262 275.057 296.514C275.841 297.191 276.82 297.533 277.8 297.533C278.634 297.533 279.472 297.285 280.196 296.781C281.819 295.651 319.863 268.754 313.039 236.347C310.498 224.03 304.444 215.029 299.103 207.087C290.828 194.784 284.852 185.896 293.919 169.48C304.545 150.336 352.651 113.981 353.136 113.617Z" fill="#00C695"/>
<path d="M107.419 298.233C105.801 303.076 106.564 307.886 109.626 312.138C119.86 326.343 156.106 334.167 211.694 334.167C211.697 334.167 211.699 334.167 211.7 334.167C219.233 334.167 227.185 334.019 235.33 333.727C324.204 330.544 357.168 302.858 358.528 301.681C360.01 300.399 360.406 298.262 359.485 296.533C358.563 294.805 356.576 293.937 354.677 294.46C323.378 303.006 264.93 306.039 224.39 306.039C179.026 306.039 155.924 302.772 150.269 300.36C153.171 296.375 171.071 289.259 193.252 284.896C195.372 284.48 196.829 282.522 196.619 280.372C196.409 278.222 194.603 276.582 192.443 276.582C179.439 276.583 114.234 277.627 107.419 298.233Z" fill="#00C695"/>
<path d="M404.811 269.719C386.48 269.719 369.097 278.905 368.365 279.296C366.67 280.204 365.81 282.148 366.275 284.015C366.742 285.88 368.419 287.191 370.343 287.192C370.732 287.194 409.444 287.51 412.951 309.628C416.056 328.71 376.322 359.628 360.749 369.931C359.067 371.044 358.414 373.196 359.194 375.055C359.857 376.638 361.4 377.628 363.062 377.628C363.352 377.628 363.646 377.598 363.938 377.534C367.635 376.745 454.344 357.638 445.177 307.152C439.583 276.212 420.137 269.719 404.811 269.719Z" fill="#00C695"/>
<path d="M345.347 363.754C345.649 362.136 344.976 360.49 343.63 359.547L322.839 344.984C321.825 344.274 320.545 344.051 319.354 344.367C319.138 344.424 297.396 350.138 265.83 353.643C253.302 355.048 239.269 355.79 225.247 355.79C193.69 355.79 173.055 352.082 170.051 349.362C169.653 348.599 169.779 348.251 169.849 348.058C170.395 346.539 173.321 344.734 175.208 344.021C177.291 343.25 178.414 340.987 177.766 338.862C177.12 336.737 174.929 335.485 172.767 336.005C151.911 341.038 141.713 348.077 142.455 356.923C143.773 372.607 180.104 380.658 210.819 382.788C215.236 383.091 220.013 383.245 225.014 383.245C225.017 383.245 225.019 383.245 225.022 383.245C276.096 383.245 341.572 367.22 342.226 367.057C343.825 366.663 345.043 365.372 345.347 363.754Z" fill="#00C695"/>
<path d="M188.602 397.42C190.176 396.394 190.875 394.449 190.316 392.656C189.758 390.863 188.081 389.686 186.198 389.71C183.403 389.783 158.849 390.891 157.13 406.525C156.609 411.197 157.947 415.464 161.108 419.209C169.925 429.657 193.722 435.867 233.849 438.195C238.596 438.479 243.417 438.621 248.183 438.621C299.198 438.621 333.556 422.649 334.995 421.969C336.39 421.309 337.31 419.939 337.392 418.398C337.474 416.859 336.705 415.397 335.389 414.593L309.114 398.553C308.203 397.997 307.112 397.813 306.071 398.026C305.905 398.061 289.222 401.521 264.045 404.94C259.281 405.587 253.315 405.916 246.315 405.916C221.165 405.916 193.191 401.806 187.826 399.117C187.749 398.612 187.848 397.974 188.602 397.42Z" fill="#00C695"/>
<path d="M224.408 486.848C341.261 486.749 403.978 465.969 416.06 452.892C420.337 448.264 420.799 443.884 420.435 441.024C419.536 433.983 413.126 429.674 412.397 429.206C410.643 428.078 408.289 428.373 406.921 429.951C405.556 431.531 405.524 433.836 406.894 435.412C407.631 436.36 408.058 437.947 405.902 440.104C401.073 444.614 352.357 458.307 271.247 462.42C260.135 462.999 248.482 463.291 236.61 463.293C163.987 463.293 110.838 453.347 103.862 447.549C106.553 443.686 125.351 437.512 145.344 434.022C147.597 433.629 149.119 431.506 148.77 429.246C148.421 426.987 146.338 425.43 144.061 425.728C143.497 425.803 141.585 425.921 139.368 426.055C106.38 428.069 68.2586 432.56 66.2694 449.555C65.665 454.735 67.2044 459.435 70.8455 463.528C79.7542 473.538 105.363 486.847 224.403 486.847C224.406 486.848 224.406 486.848 224.408 486.848Z" fill="#00C695"/>
<path d="M439.013 456.577C437.361 455.813 435.41 456.199 434.176 457.528C434.003 457.713 416.436 476.085 363.613 486.872C343.39 490.924 305.43 492.979 250.787 492.979C196.042 492.979 143.95 490.825 143.43 490.803C141.254 490.698 139.393 492.279 139.097 494.421C138.8 496.563 140.18 498.579 142.282 499.079C142.824 499.208 197.416 511.998 272.061 511.998C307.862 511.998 342.7 509.089 375.609 503.351C436.97 492.594 441.265 462.168 441.418 460.879C441.631 459.076 440.661 457.34 439.013 456.577Z" fill="#00C695"/>
</svg>
