<svg width="512" height="512" viewBox="0 0 512 512" fill="none" xmlns="http://www.w3.org/2000/svg">
<g clip-path="url(#clip0_21_88)">
<path d="M477.703 384.001C481.272 377.817 483.491 370.849 483.491 364.592V147.408C483.491 141.151 481.276 134.185 477.705 128.001L330.286 141.283L228.873 256L309.464 370.937L477.703 384.001Z" fill="#00A87F"/>
<path d="M275.701 507.307L463.79 398.716C469.208 395.587 474.132 390.186 477.703 384L256 256L110.095 261.157L34.2983 384.002C37.8678 390.186 42.7944 395.589 48.2111 398.716L236.299 507.307C247.134 513.564 264.867 513.564 275.701 507.307Z" fill="#00B488"/>
<path d="M477.704 127.999C474.132 121.813 469.207 116.412 463.79 113.283L275.701 4.6926C264.867 -1.5642 247.134 -1.5642 236.299 4.6926L48.2111 113.284C37.3747 119.539 28.5106 134.896 28.5106 147.408V364.592C28.5106 370.849 30.7279 377.817 34.2994 384.001L256.001 256L477.704 127.999Z" fill="#00C695"/>
<path d="M256 407.661C172.375 407.661 104.34 339.626 104.34 256C104.34 172.375 172.375 104.34 256 104.34C309.961 104.34 360.288 133.379 387.337 180.123L321.703 218.104C308.165 194.707 282.988 180.171 256.001 180.171C214.188 180.171 180.171 214.187 180.171 256C180.171 297.813 214.187 331.83 256.001 331.83C282.991 331.83 308.168 317.294 321.708 293.893L387.342 331.872C360.292 378.621 309.964 407.661 256 407.661Z" fill="white"/>
<path d="M407.661 247.574H390.809V230.724H373.96V247.574H357.107V264.426H373.96V281.278H390.809V264.426H407.661V247.574Z" fill="white"/>
<path d="M470.852 247.574H454V230.724H437.15V247.574H420.298V264.426H437.15V281.278H454V264.426H470.852V247.574Z" fill="white"/>
</g>
<defs>
<clipPath id="clip0_21_88">
<rect width="512" height="512" fill="white"/>
</clipPath>
</defs>
</svg>
