<svg width="512" height="512" viewBox="0 0 512 512" fill="none" xmlns="http://www.w3.org/2000/svg">
<path d="M462 0H50C22.39 0 0 22.39 0 50V462C0 489.61 22.39 512 50 512H462C489.61 512 512 489.61 512 462V50C512 22.39 489.61 0 462 0ZM297 284.08H232.78V467H181.91V284.08H118V243H297V284.08ZM462.88 434.57C452.922 452.39 434.61 462.413 415.14 466.56C392.53 471.376 368.489 471.116 345.81 466.87C334.7 464.79 325.08 461.66 316.94 457.49V407.42C326.02 415.04 335.88 420.75 346.52 424.55C357.16 428.36 367.91 430.26 378.761 430.26C388.363 430.26 399.05 429.076 407.32 423.77C412.993 420.149 416.789 414.437 416.79 407.582C416.791 398.257 410.045 391.21 402.78 386.311C392.14 379.136 379.906 374.478 368.12 369.571C350.59 362.271 337.52 353.351 328.91 342.821C313.929 324.499 311.476 295.219 323.04 274.531C332.909 256.876 351.11 246.446 370.31 241.831C391.247 236.798 413.955 236.793 435.18 240.111C444.2 241.521 452.52 243.681 460.14 246.601V293.381C456.38 290.771 452.29 288.481 447.85 286.501C439.095 282.597 429.646 279.957 420.15 278.671C410.651 277.401 400.661 277.18 391.279 279.381C383.889 281.095 376.126 284.512 371.87 291.111C370.1 293.881 369.21 296.981 369.21 300.421C369.21 304.171 370.2 307.54 372.179 310.51C377.201 318.044 386.014 322.894 393.94 326.781C407.842 333.599 422.432 338.732 435.8 346.651C448.764 354.303 460.292 364.981 465.93 379.191C468.64 386.021 470 393.971 470 403.041C470 415.56 467.63 426.07 462.88 434.57Z" fill="#00C695"/>
</svg>
