<svg width="630" height="576" viewBox="0 0 630 576" fill="none" xmlns="http://www.w3.org/2000/svg">
<g clip-path="url(#clip0_32_1149)">
<g filter="url(#filter0_f_32_1149)">
<circle cx="314.781" cy="320.781" r="181.781" fill="#3BCBBE" fill-opacity="0.37"/>
</g>
<path d="M135.437 175.086C145.436 175.086 154.539 177.099 162.747 181.127C170.955 185.155 177.446 190.898 182.222 198.356C186.997 205.666 189.385 214.169 189.385 223.865C189.385 234.307 186.773 243.481 181.55 251.387C176.327 259.293 169.164 265.409 160.061 269.735C151.107 273.912 141.108 276 130.065 276C108.128 276 90.9658 269.287 78.5795 255.862C66.1932 242.436 60 223.268 60 198.356C60 180.605 63.3577 165.39 70.0732 152.71C76.7887 140.03 86.1158 130.409 98.0544 123.845C110.142 117.282 124.096 114 139.914 114C148.271 114 156.255 114.97 163.866 116.909C171.626 118.699 178.192 121.309 183.565 124.74L170.134 151.367C162.374 146.146 152.599 143.536 140.81 143.536C127.528 143.536 117.007 147.414 109.247 155.171C101.487 162.928 97.3082 174.191 96.7113 188.959C105.964 179.71 118.872 175.086 135.437 175.086ZM128.05 248.925C135.81 248.925 142.078 246.837 146.854 242.66C151.778 238.483 154.241 232.815 154.241 225.655C154.241 218.494 151.778 212.826 146.854 208.649C142.078 204.323 135.661 202.16 127.603 202.16C119.693 202.16 113.202 204.398 108.128 208.873C103.054 213.199 100.517 218.793 100.517 225.655C100.517 232.517 102.979 238.111 107.904 242.436C112.828 246.762 119.544 248.925 128.05 248.925Z" fill="#3BCBBE"/>
<path d="M269.684 276C256.701 276 245.135 272.793 234.987 266.378C224.839 259.964 216.855 250.715 211.035 238.633C205.365 226.401 202.529 211.856 202.529 195C202.529 178.144 205.365 163.674 211.035 151.591C216.855 139.359 224.839 130.036 234.987 123.622C245.135 117.207 256.701 114 269.684 114C282.667 114 294.233 117.207 304.381 123.622C314.528 130.036 322.438 139.359 328.109 151.591C333.929 163.674 336.839 178.144 336.839 195C336.839 211.856 333.929 226.401 328.109 238.633C322.438 250.715 314.528 259.964 304.381 266.378C294.233 272.793 282.667 276 269.684 276ZM269.684 245.345C279.235 245.345 286.696 241.243 292.069 233.039C297.59 224.834 300.351 212.155 300.351 195C300.351 177.845 297.59 165.166 292.069 156.961C286.696 148.757 279.235 144.655 269.684 144.655C260.282 144.655 252.821 148.757 247.299 156.961C241.927 165.166 239.24 177.845 239.24 195C239.24 212.155 241.927 224.834 247.299 233.039C252.821 241.243 260.282 245.345 269.684 245.345Z" fill="#3BCBBE"/>
<path d="M390.722 201.265C379.231 201.265 369.829 197.387 362.517 189.63C355.354 181.724 351.772 171.207 351.772 158.08C351.772 144.953 355.354 134.511 362.517 126.754C369.829 118.848 379.231 114.895 390.722 114.895C402.213 114.895 411.54 118.848 418.703 126.754C425.866 134.511 429.448 144.953 429.448 158.08C429.448 171.207 425.866 181.724 418.703 189.63C411.54 197.387 402.213 201.265 390.722 201.265ZM484.067 116.685H510.705L403.705 273.315H377.067L484.067 116.685ZM390.722 182.917C395.796 182.917 399.75 180.829 402.586 176.652C405.57 172.475 407.063 166.285 407.063 158.08C407.063 149.876 405.57 143.685 402.586 139.508C399.75 135.331 395.796 133.243 390.722 133.243C385.797 133.243 381.842 135.406 378.858 139.732C375.873 143.909 374.381 150.025 374.381 158.08C374.381 166.135 375.873 172.326 378.858 176.652C381.842 180.829 385.797 182.917 390.722 182.917ZM497.05 275.105C489.589 275.105 482.873 273.39 476.904 269.959C471.084 266.378 466.532 261.307 463.249 254.743C459.966 248.18 458.324 240.572 458.324 231.92C458.324 223.268 459.966 215.66 463.249 209.097C466.532 202.533 471.084 197.536 476.904 194.105C482.873 190.525 489.589 188.735 497.05 188.735C508.541 188.735 517.868 192.688 525.031 200.594C532.344 208.351 536 218.793 536 231.92C536 245.047 532.344 255.564 525.031 263.47C517.868 271.227 508.541 275.105 497.05 275.105ZM497.05 256.757C502.124 256.757 506.079 254.669 508.914 250.492C511.899 246.166 513.391 239.975 513.391 231.92C513.391 223.865 511.899 217.749 508.914 213.572C506.079 209.246 502.124 207.083 497.05 207.083C492.126 207.083 488.171 209.171 485.186 213.348C482.202 217.525 480.709 223.715 480.709 231.92C480.709 240.124 482.202 246.315 485.186 250.492C488.171 254.669 492.126 256.757 497.05 256.757Z" fill="#3BCBBE"/>
<path d="M129 534.7H340.2C341.1 533.3 341.9 532 342.8 530.6C365.5 496 401.9 471.4 441.6 459.8C459.4 454.6 478.7 451.5 493 439.7C507.7 427.6 514.5 408.2 517.4 389.4C520.9 366.6 519 341 503.5 323.9C485.3 303.8 454.8 301.5 431.1 288.3C390.3 265.6 374.5 213.9 337.4 185.6C314 167.7 282.4 160.8 254 164.7C213.8 170.3 176 197.2 164.6 236.7C161.4 247.7 160.2 259.5 161.2 272.1C163 295.7 168.1 319.5 163.3 342.6C158 368.1 141.4 389.6 131.5 413.7C119.2 443.7 117.5 477.3 122.7 509.3C124.2 517.8 126.2 526.4 129 534.7Z" fill="#3BCBBE"/>
<path opacity="0.7" d="M129 534.7H340.2C341.1 533.3 341.9 532 342.8 530.6C365.5 496 401.9 471.4 441.6 459.8C459.4 454.6 478.7 451.5 493 439.7C507.7 427.6 514.5 408.2 517.4 389.4C520.9 366.6 519 341 503.5 323.9C485.3 303.8 454.8 301.5 431.1 288.3C390.3 265.6 374.5 213.9 337.4 185.6C314 167.7 282.4 160.8 254 164.7C213.8 170.3 176 197.2 164.6 236.7C161.4 247.7 160.2 259.5 161.2 272.1C163 295.7 168.1 319.5 163.3 342.6C158 368.1 141.4 389.6 131.5 413.7C119.2 443.7 117.5 477.3 122.7 509.3C124.2 517.8 126.2 526.4 129 534.7Z" fill="white"/>
<path d="M102 534.7H520.3" stroke="#263238" stroke-miterlimit="10" stroke-linecap="round" stroke-linejoin="round"/>
<path d="M339 216.4V200.7L327.2 199.7C326.5 197.2 325.5 194.9 324.3 192.7L331.9 183.7L320.8 172.6L311.8 180.2C309.6 179 307.2 178 304.8 177.3L303.8 165.5H288L287 177.3C284.5 178 282.2 179 280 180.2L271 172.6L259.9 183.7L267.5 192.7C266.3 194.9 265.3 197.3 264.6 199.7L252.8 200.7V216.4L264.6 217.4C265.3 219.9 266.3 222.2 267.5 224.4L259.9 233.4L271 244.5L280 236.9C282.2 238.1 284.6 239.1 287 239.8L288 251.6H303.7L304.7 239.8C307.2 239.1 309.5 238.1 311.7 236.9L320.7 244.5L331.8 233.4L324.2 224.4C325.4 222.2 326.4 219.8 327.1 217.4L339 216.4ZM295.9 226.8C285.8 226.8 277.7 218.6 277.7 208.6C277.7 198.5 285.9 190.4 295.9 190.4C306 190.4 314.1 198.6 314.1 208.6C314.1 218.6 305.9 226.8 295.9 226.8Z" stroke="#263238" stroke-miterlimit="10" stroke-linecap="round" stroke-linejoin="round"/>
<path d="M507.7 369.8V362.3L502.1 361.8C501.8 360.6 501.3 359.5 500.7 358.4L504.3 354.1L499 348.8L494.7 352.4C493.6 351.8 492.5 351.3 491.3 351L490.8 345.4H483.3L482.8 351C481.6 351.3 480.5 351.8 479.4 352.4L475.1 348.8L469.8 354.1L473.4 358.4C472.8 359.5 472.3 360.6 472 361.8L466.4 362.3V369.8L472 370.3C472.3 371.5 472.8 372.6 473.4 373.7L469.8 378L475.1 383.3L479.4 379.7C480.5 380.3 481.6 380.8 482.8 381.1L483.3 386.7H490.8L491.3 381.1C492.5 380.8 493.6 380.3 494.7 379.7L499 383.3L504.3 378L500.7 373.7C501.3 372.6 501.8 371.5 502.1 370.3L507.7 369.8ZM487 374.8C482.2 374.8 478.3 370.9 478.3 366.1C478.3 361.3 482.2 357.4 487 357.4C491.8 357.4 495.7 361.3 495.7 366.1C495.8 370.9 491.8 374.8 487 374.8Z" stroke="#263238" stroke-miterlimit="10" stroke-linecap="round" stroke-linejoin="round"/>
<path d="M502 232.8C502.3 231.3 502.5 229.8 502.5 228.2C502.5 216.9 493.3 207.7 482 207.7C480.1 207.7 478.4 208 476.6 208.4C473.2 202.4 466.8 198.4 459.4 198.4C448.9 198.4 440.4 206.6 439.7 216.9C438.7 216.7 437.7 216.6 436.7 216.6C428.4 216.6 421.6 222.8 420.7 230.9C415.8 231 411.9 235 411.9 239.9C411.9 244.9 415.9 248.9 420.9 248.9H496.2C501.2 248.9 505.2 244.9 505.2 239.9C505.3 236.9 504 234.4 502 232.8Z" stroke="#263238" stroke-miterlimit="10" stroke-linecap="round" stroke-linejoin="round"/>
<path d="M460.6 241.8V262.6" stroke="#263238" stroke-miterlimit="10" stroke-linecap="round" stroke-linejoin="round"/>
<path d="M460.6 229.4V237.7" stroke="#263238" stroke-miterlimit="10" stroke-linecap="round" stroke-linejoin="round"/>
<path d="M460.6 221.6V226.1" stroke="#263238" stroke-miterlimit="10" stroke-linecap="round" stroke-linejoin="round"/>
<path d="M456.7 260.2L460.6 265L464.5 260.2" stroke="#263238" stroke-miterlimit="10" stroke-linecap="round" stroke-linejoin="round"/>
<path d="M272.6 476.2C272.9 474.7 273.1 473.2 273.1 471.6C273.1 460.3 263.9 451.1 252.6 451.1C250.7 451.1 249 451.4 247.2 451.8C243.8 445.8 237.4 441.8 230 441.8C219.5 441.8 211 450 210.3 460.3C209.3 460.1 208.3 460 207.3 460C199 460 192.2 466.2 191.3 474.3C186.4 474.4 182.5 478.4 182.5 483.3C182.5 488.3 186.5 492.3 191.5 492.3H267C272 492.3 276 488.3 276 483.3C275.9 480.3 274.6 477.8 272.6 476.2Z" stroke="#263238" stroke-miterlimit="10" stroke-linecap="round" stroke-linejoin="round"/>
<path d="M231.2 488.2V467.4" stroke="#263238" stroke-miterlimit="10" stroke-linecap="round" stroke-linejoin="round"/>
<path d="M231.2 500.6V492.3" stroke="#263238" stroke-miterlimit="10" stroke-linecap="round" stroke-linejoin="round"/>
<path d="M231.2 508.4V503.9" stroke="#263238" stroke-miterlimit="10" stroke-linecap="round" stroke-linejoin="round"/>
<path d="M235.2 469.8L231.2 465L227.3 469.8" stroke="#263238" stroke-miterlimit="10" stroke-linecap="round" stroke-linejoin="round"/>
<path d="M369.2 229H109.2V217.1C109.2 214.8 111.1 212.9 113.4 212.9H364.9C367.2 212.9 369.1 214.8 369.1 217.1V229H369.2Z" fill="#3BCBBE" stroke="#263238" stroke-miterlimit="10" stroke-linecap="round" stroke-linejoin="round"/>
<path d="M383.3 232H120.6V416.9H383.3V232Z" fill="#FDFDFD" stroke="#263238" stroke-miterlimit="10" stroke-linecap="round" stroke-linejoin="round"/>
<path d="M387.4 220.9C387.4 223.1 385.6 224.9 383.4 224.9C381.2 224.9 379.4 223.1 379.4 220.9C379.4 218.7 381.2 216.9 383.4 216.9C385.6 216.9 387.4 218.7 387.4 220.9Z" fill="white" stroke="#263238" stroke-miterlimit="10" stroke-linecap="round" stroke-linejoin="round"/>
<path d="M373.2 220.9C373.2 223.1 371.4 224.9 369.2 224.9C367 224.9 365.2 223.1 365.2 220.9C365.2 218.7 367 216.9 369.2 216.9C371.4 216.9 373.2 218.7 373.2 220.9Z" fill="white" stroke="#263238" stroke-miterlimit="10" stroke-linecap="round" stroke-linejoin="round"/>
<path d="M359 220.9C359 223.1 357.2 224.9 355 224.9C352.8 224.9 351 223.1 351 220.9C351 218.7 352.8 216.9 355 216.9C357.2 216.9 359 218.7 359 220.9Z" fill="white" stroke="#263238" stroke-miterlimit="10" stroke-linecap="round" stroke-linejoin="round"/>
<path d="M375.4 239.9H365" stroke="#263238" stroke-width="2" stroke-miterlimit="10" stroke-linecap="round" stroke-linejoin="round"/>
<path d="M375.4 244.1H365" stroke="#263238" stroke-width="2" stroke-miterlimit="10" stroke-linecap="round" stroke-linejoin="round"/>
<path d="M375.4 248.3H365" stroke="#263238" stroke-width="2" stroke-miterlimit="10" stroke-linecap="round" stroke-linejoin="round"/>
<path d="M138.8 349H217.5" stroke="#263238" stroke-width="2" stroke-miterlimit="10" stroke-linecap="round" stroke-linejoin="round"/>
<path d="M138.8 355.2H217.5" stroke="#263238" stroke-width="2" stroke-miterlimit="10" stroke-linecap="round" stroke-linejoin="round"/>
<path d="M138.8 361.5H200.9" stroke="#263238" stroke-width="2" stroke-miterlimit="10" stroke-linecap="round" stroke-linejoin="round"/>
<path d="M305.8 234.1V234.6" stroke="#263238" stroke-linecap="round" stroke-linejoin="round"/>
<path d="M305.8 237.5V411.8" stroke="#263238" stroke-linecap="round" stroke-linejoin="round" stroke-dasharray="1 1"/>
<path d="M305.8 413.3V413.8" stroke="#263238" stroke-linecap="round" stroke-linejoin="round"/>
<path d="M123.8 375.4H124.3" stroke="#263238" stroke-linecap="round" stroke-linejoin="round"/>
<path d="M127.3 375.4H377.3" stroke="#263238" stroke-linecap="round" stroke-linejoin="round" stroke-dasharray="1 1"/>
<path d="M378.8 375.4H379.3" stroke="#263238" stroke-linecap="round" stroke-linejoin="round"/>
<path d="M307.4 373.7H304V377.1H307.4V373.7Z" fill="white" stroke="#263238" stroke-miterlimit="10" stroke-linecap="round" stroke-linejoin="round"/>
<path d="M227 161H177.7C176.5 161 175.5 162 175.5 163.2V186.1C175.5 187.3 176.5 188.3 177.7 188.3H199.8L202.3 197.3L204.8 188.3H227C228.2 188.3 229.2 187.3 229.2 186.1V163.2C229.1 162 228.2 161 227 161Z" fill="#3BCBBE" stroke="#263238" stroke-miterlimit="10" stroke-linecap="round" stroke-linejoin="round"/>
<path d="M183.7 167.6H220.9" stroke="#263238" stroke-width="2" stroke-miterlimit="10" stroke-linecap="round" stroke-linejoin="round"/>
<path d="M183.7 172.3H220.9" stroke="#263238" stroke-width="2" stroke-miterlimit="10" stroke-linecap="round" stroke-linejoin="round"/>
<path d="M183.7 177H220.9" stroke="#263238" stroke-width="2" stroke-miterlimit="10" stroke-linecap="round" stroke-linejoin="round"/>
<path d="M183.7 181.7H211.8" stroke="#263238" stroke-width="2" stroke-miterlimit="10" stroke-linecap="round" stroke-linejoin="round"/>
<path d="M206.9 404.6H153.2V438.2H206.9V404.6Z" fill="#263238" stroke="#263238" stroke-miterlimit="10" stroke-linecap="round" stroke-linejoin="round"/>
<path d="M206.9 404.6H153.2V409.7H206.9V404.6Z" fill="#3BCBBE" stroke="#263238" stroke-miterlimit="10" stroke-linecap="round" stroke-linejoin="round"/>
<path d="M158.7 414H172.4" stroke="white" stroke-miterlimit="10" stroke-linecap="round" stroke-linejoin="round"/>
<path d="M165.5 417.8H189.3" stroke="white" stroke-miterlimit="10" stroke-linecap="round" stroke-linejoin="round"/>
<path d="M162.5 421.4H169.5" stroke="white" stroke-miterlimit="10" stroke-linecap="round" stroke-linejoin="round"/>
<path d="M165.5 425.6H181.5" stroke="white" stroke-miterlimit="10" stroke-linecap="round" stroke-linejoin="round"/>
<path d="M158.7 429.4H172.4" stroke="white" stroke-miterlimit="10" stroke-linecap="round" stroke-linejoin="round"/>
<path d="M292 342.2H245.9" stroke="#263238" stroke-miterlimit="10" stroke-linecap="round" stroke-linejoin="round"/>
<path d="M292.9 363.5C292.9 363.5 292.9 342.1 269 342.1C245.1 342.1 245 363.5 245 363.5" stroke="#263238" stroke-miterlimit="10" stroke-linecap="round" stroke-linejoin="round"/>
<path d="M292.9 365.5C294.004 365.5 294.9 364.605 294.9 363.5C294.9 362.395 294.004 361.5 292.9 361.5C291.795 361.5 290.9 362.395 290.9 363.5C290.9 364.605 291.795 365.5 292.9 365.5Z" fill="#3BCBBE" stroke="#263238" stroke-miterlimit="10" stroke-linecap="round" stroke-linejoin="round"/>
<path d="M243 363.5C243 362.4 243.9 361.5 245 361.5C246.1 361.5 247 362.4 247 363.5C247 364.6 246.1 365.5 245 365.5C243.9 365.6 243 364.6 243 363.5Z" fill="#3BCBBE" stroke="#263238" stroke-miterlimit="10" stroke-linecap="round" stroke-linejoin="round"/>
<path d="M291.155 343.864H294.655V340.364H291.155V343.864Z" fill="#3BCBBE" stroke="#263238" stroke-miterlimit="10" stroke-linecap="round" stroke-linejoin="round"/>
<path d="M267.218 343.864H270.718V340.364H267.218V343.864Z" fill="#3BCBBE" stroke="#263238" stroke-miterlimit="10" stroke-linecap="round" stroke-linejoin="round"/>
<path d="M243.28 343.864H246.78V340.364H243.28V343.864Z" fill="#3BCBBE" stroke="#263238" stroke-miterlimit="10" stroke-linecap="round" stroke-linejoin="round"/>
<path d="M167.4 277.9V270.8L162.1 270.3C161.8 269.2 161.3 268.1 160.8 267.1L164.2 263L159.2 258L155.1 261.4C154.1 260.8 153 260.4 151.9 260.1L151.4 254.8H144.3L143.8 260.1C142.7 260.4 141.6 260.9 140.6 261.4L136.5 258L131.5 263L134.9 267.1C134.3 268.1 133.9 269.2 133.6 270.3L128.3 270.8V277.9L133.6 278.4C133.9 279.5 134.4 280.6 134.9 281.6L131.5 285.7L136.5 290.7L140.6 287.3C141.6 287.9 142.7 288.3 143.8 288.6L144.3 293.9H151.4L151.9 288.6C153 288.3 154.1 287.8 155.1 287.3L159.2 290.7L164.2 285.7L160.8 281.6C161.4 280.6 161.8 279.5 162.1 278.4L167.4 277.9ZM148 282.5C143.5 282.5 139.8 278.8 139.8 274.3C139.8 269.8 143.5 266.1 148 266.1C152.5 266.1 156.2 269.8 156.2 274.3C156.2 278.9 152.6 282.5 148 282.5Z" fill="#3BCBBE" stroke="#263238" stroke-miterlimit="10" stroke-linecap="round" stroke-linejoin="round"/>
<path d="M191.5 293.7V288.9L187.9 288.6C187.7 287.8 187.4 287.1 187 286.4L189.3 283.6L185.9 280.2L183.1 282.5C182.4 282.1 181.7 281.8 180.9 281.6L180.6 278H175.8L175.5 281.6C174.7 281.8 174 282.1 173.3 282.5L170.5 280.2L167.1 283.6L169.4 286.4C169 287.1 168.7 287.8 168.5 288.6L164.9 288.9V293.7L168.5 294C168.7 294.8 169 295.5 169.4 296.2L167.1 299L170.5 302.4L173.3 300.1C174 300.5 174.7 300.8 175.5 301L175.8 304.6H180.6L180.9 301C181.7 300.8 182.4 300.5 183.1 300.1L185.9 302.4L189.3 299L187 296.2C187.4 295.5 187.7 294.8 187.9 294L191.5 293.7ZM178.2 296.9C175.1 296.9 172.6 294.4 172.6 291.3C172.6 288.2 175.1 285.7 178.2 285.7C181.3 285.7 183.8 288.2 183.8 291.3C183.8 294.4 181.3 296.9 178.2 296.9Z" fill="#3BCBBE" stroke="#263238" stroke-miterlimit="10" stroke-linecap="round" stroke-linejoin="round"/>
<path d="M315.6 387.1H354.4" stroke="#263238" stroke-width="2" stroke-miterlimit="10" stroke-linecap="round" stroke-linejoin="round"/>
<path d="M315.6 393.3H354.4" stroke="#263238" stroke-width="2" stroke-miterlimit="10" stroke-linecap="round" stroke-linejoin="round"/>
<path d="M315.6 399.7H337.7" stroke="#263238" stroke-width="2" stroke-miterlimit="10" stroke-linecap="round" stroke-linejoin="round"/>
<path d="M264.6 402.2H244.2C241.4 402.2 239.2 400 239.2 397.2C239.2 394.4 241.4 392.2 244.2 392.2H264.6C267.4 392.2 269.6 394.4 269.6 397.2C269.6 400 267.4 402.2 264.6 402.2Z" fill="#3BCBBE" stroke="#263238" stroke-miterlimit="10" stroke-linecap="round" stroke-linejoin="round"/>
<path d="M302.6 402.2H282.2C279.4 402.2 277.2 400 277.2 397.2C277.2 394.4 279.4 392.2 282.2 392.2H302.6C305.4 392.2 307.6 394.4 307.6 397.2C307.6 400 305.4 402.2 302.6 402.2Z" fill="#3BCBBE" stroke="#263238" stroke-miterlimit="10" stroke-linecap="round" stroke-linejoin="round"/>
<path d="M361.7 295H318.5V338.2H361.7V295Z" fill="white" stroke="#263238" stroke-miterlimit="10" stroke-linecap="round" stroke-linejoin="round"/>
<path d="M318.5 295L361.7 338.2" stroke="#263238" stroke-miterlimit="10" stroke-linecap="round" stroke-linejoin="round"/>
<path d="M361.7 295L318.5 338.2" stroke="#263238" stroke-miterlimit="10" stroke-linecap="round" stroke-linejoin="round"/>
<path d="M408.7 269.3H355V302.9H408.7V269.3Z" fill="#263238" stroke="#263238" stroke-miterlimit="10" stroke-linecap="round" stroke-linejoin="round"/>
<path d="M408.7 269.3H355V274.4H408.7V269.3Z" fill="#3BCBBE" stroke="#263238" stroke-miterlimit="10" stroke-linecap="round" stroke-linejoin="round"/>
<path d="M360.5 278.7H374.2" stroke="white" stroke-miterlimit="10" stroke-linecap="round" stroke-linejoin="round"/>
<path d="M367.3 282.5H391.1" stroke="white" stroke-miterlimit="10" stroke-linecap="round" stroke-linejoin="round"/>
<path d="M364.3 286.1H371.3" stroke="white" stroke-miterlimit="10" stroke-linecap="round" stroke-linejoin="round"/>
<path d="M367.3 290.3H383.3" stroke="white" stroke-miterlimit="10" stroke-linecap="round" stroke-linejoin="round"/>
<path d="M360.5 294.1H374.2" stroke="white" stroke-miterlimit="10" stroke-linecap="round" stroke-linejoin="round"/>
<path d="M335.4 245.9V256L331 260.4H320.9V245.9H335.4Z" fill="white" stroke="#263238" stroke-miterlimit="10" stroke-linecap="round" stroke-linejoin="round"/>
<path d="M335.4 256L331 260.4V256H335.4Z" fill="white" stroke="#263238" stroke-miterlimit="10" stroke-linecap="round" stroke-linejoin="round"/>
<path d="M180.8 323.9V334L176.3 338.5H166.3V323.9H180.8Z" fill="white" stroke="#263238" stroke-miterlimit="10" stroke-linecap="round" stroke-linejoin="round"/>
<path d="M180.8 334L176.3 338.5V334H180.8Z" fill="white" stroke="#263238" stroke-miterlimit="10" stroke-linecap="round" stroke-linejoin="round"/>
<path d="M125.9 386.1V396.2L121.4 400.6H111.3V386.1H125.9Z" fill="white" stroke="#263238" stroke-miterlimit="10" stroke-linecap="round" stroke-linejoin="round"/>
<path d="M125.9 396.2L121.4 400.6V396.2H125.9Z" fill="white" stroke="#263238" stroke-miterlimit="10" stroke-linecap="round" stroke-linejoin="round"/>
<path d="M307.9 324.6C302.6 325.1 295.9 318.7 295.9 318.7C295.9 318.7 294.9 319.7 294 318.5C293.1 317.3 289.4 314.4 289.2 311.9C289 309.4 293.4 305.4 293.4 305.4C290 306.3 289.6 304.3 289.6 304.3C289.6 304.3 295.3 299.6 297.3 299.5C298.1 299.5 301.5 301.4 304.8 304.1C308.2 306.9 314.7 316.6 314.7 316.6C314.7 316.6 336.6 332.5 342.1 336.5C349.4 341.9 358 351.4 358 351.4C358 351.4 387 364.5 395 371.7L384.2 397.3C384.2 397.3 357.8 379.6 355.2 375.1C352.6 370.6 349.9 373.3 347.3 370.4C344.7 367.5 342.1 364.1 342.1 364.1C342.1 364.1 335.7 361.3 329.5 355C323.3 348.7 317.9 339 314.5 333.2C311.1 327.3 307.9 324.6 307.9 324.6Z" fill="white" stroke="#263238" stroke-miterlimit="10" stroke-linecap="round" stroke-linejoin="round"/>
<path d="M309.5 320.8C309.5 320.8 301.6 318.9 301 313.7C300.8 312 299.3 310.1 299.3 310.1C299.3 310.1 292 309.7 292.4 306.7L302.2 305.8C302.2 305.8 307.6 307.6 310.7 313" fill="white"/>
<path d="M309.5 320.8C309.5 320.8 301.6 318.9 301 313.7C300.8 312 299.3 310.1 299.3 310.1C299.3 310.1 292 309.7 292.4 306.7L302.2 305.8C302.2 305.8 307.6 307.6 310.7 313" stroke="#263238" stroke-miterlimit="10" stroke-linecap="round" stroke-linejoin="round"/>
<path d="M295.9 318.7C295.9 318.7 296.4 318 296.2 316.6C296.2 316.6 298.4 316.2 298.1 314.3C298.1 314.3 301.3 313.9 299.2 310.1" stroke="#263238" stroke-miterlimit="10" stroke-linecap="round" stroke-linejoin="round"/>
<path d="M298.1 314.3C298.1 314.3 293.8 311.1 293.3 309.7" stroke="#263238" stroke-miterlimit="10" stroke-linecap="round" stroke-linejoin="round"/>
<path d="M296.2 316.6C296.2 316.6 291.6 313.8 291.5 312.2" stroke="#263238" stroke-miterlimit="10" stroke-linecap="round" stroke-linejoin="round"/>
<path d="M297.2 302.2C297.2 302.2 295.7 304.8 293.3 305.4" stroke="#263238" stroke-miterlimit="10" stroke-linecap="round" stroke-linejoin="round"/>
<path d="M296.5 303.2C296.5 303.2 297.7 303.8 298.7 304.6" stroke="#263238" stroke-miterlimit="10" stroke-linecap="round" stroke-linejoin="round"/>
<path d="M464.1 391.8C464.1 391.8 446.8 384.3 429.2 380.1C411.6 376 383.2 372.3 383.2 372.3C383.2 372.3 391 452.1 389 456.9C386.9 461.7 374.6 477.8 374.6 477.8C374.6 477.8 441.5 503.9 453.2 506.1C464.9 508.3 458.8 467.9 458.8 467.9C458.8 467.9 471 416.5 464.1 391.8Z" fill="#263238"/>
<path d="M440.1 383.2C440.1 383.2 441.7 386.2 437.5 387.8C426.7 391.8 415.1 388.3 416.4 384C416.9 382.4 419.5 384 419.4 378C419.4 377.2 419.1 376.3 418.7 375.3C418 373.8 417 372.2 415.9 370.7C414.1 368.1 412.2 366.1 412.2 366.1C412.2 366.1 429.4 355.1 442.1 366.1C442.1 366.1 437.4 368.5 440.1 383.2Z" fill="white" stroke="#263238" stroke-miterlimit="10" stroke-linecap="round" stroke-linejoin="round"/>
<path d="M461.4 525.4C454.6 536.4 420.3 541.6 401.5 541.1C382.8 540.6 328.8 515.1 325.1 509.7C321.7 504.7 313.4 488.1 326.2 478.1C327.2 477.3 328.4 476.6 329.7 475.9C338.5 471.1 396.9 486.1 396.9 486.1C396.9 486.1 400.5 483.8 401.8 484C405.9 484.5 408.8 487.8 417 490.2C422.8 491.8 438.5 485.5 448.6 491C449.7 491.6 450.7 492.3 451.7 493.2C461.2 502.1 468.2 514.3 461.4 525.4Z" fill="#3BCBBE"/>
<path opacity="0.3" d="M448.8 490.9C438.5 490.2 429.3 492.4 422.9 496.2C415.3 500.7 379.4 518 379.4 518C379.5 516.1 381.5 512.4 381.5 512.4C378.1 509.4 369.3 507 369.3 507C362.4 501.2 335.3 483.7 326.4 478.1C327.4 477.3 328.6 476.6 329.9 475.9C338.7 471.1 397.1 486.1 397.1 486.1C397.1 486.1 400.7 483.8 402 484C406.1 484.5 409 487.8 417.2 490.2C423 491.8 438.7 485.4 448.8 490.9Z" fill="black" fill-opacity="0.7"/>
<path d="M461.4 525.4C454.6 536.4 420.3 541.6 401.5 541.1C382.8 540.6 328.8 515.1 325.1 509.7C321.7 504.7 313.4 488.1 326.2 478.1C327.2 477.3 328.4 476.6 329.7 475.9C338.5 471.1 396.9 486.1 396.9 486.1C396.9 486.1 400.5 483.8 401.8 484C405.9 484.5 408.8 487.8 417 490.2C422.8 491.8 438.5 485.5 448.6 491C449.7 491.6 450.7 492.3 451.7 493.2C461.2 502.1 468.2 514.3 461.4 525.4Z" stroke="#263238" stroke-miterlimit="10" stroke-linecap="round" stroke-linejoin="round"/>
<path d="M450.9 535.3L451.8 539.1C451.8 539.1 449.5 545.6 439.4 546.7C429.3 547.8 423.3 550 418.4 550.3C413.5 550.6 410.7 550.2 410.7 550.2L409.7 548.7L450.9 535.3Z" fill="white" stroke="#263238" stroke-miterlimit="10" stroke-linecap="round" stroke-linejoin="round"/>
<path d="M392.2 534.9L409.7 548.6C409.7 548.6 423.3 547.5 434.8 544.8C443.1 542.9 450.3 540.1 450.7 536.3C451.3 530.6 445.2 529 437.9 529.2C436.5 529.2 435.1 529.3 433.7 529.5C422 530.8 407.2 524.3 407.2 524.3L392.2 534.9Z" fill="#263238"/>
<path opacity="0.3" d="M450.8 536.3C447.7 537.5 443.7 539.3 441.1 541.1C441.1 541.1 424.8 549.5 399.8 540.8L392.2 534.9L407.3 524.4C407.3 524.4 422.1 530.8 433.8 529.6C435.2 529.5 436.6 529.3 438 529.3C445.2 529.1 451.3 530.7 450.8 536.3Z" fill="black" fill-opacity="0.7"/>
<path d="M392.2 534.9L409.7 548.6C409.7 548.6 423.3 547.5 434.8 544.8C443.1 542.9 450.3 540.1 450.7 536.3C451.3 530.6 445.2 529 437.9 529.2C436.5 529.2 435.1 529.3 433.7 529.5C422 530.8 407.2 524.3 407.2 524.3L392.2 534.9Z" stroke="#263238" stroke-miterlimit="10" stroke-linecap="round" stroke-linejoin="round"/>
<path d="M408.5 540.3C405.3 540.8 408.8 547.3 413.1 545.3C417.4 543.4 411.6 539.8 408.5 540.3Z" fill="white"/>
<path opacity="0.2" d="M414.4 544.3C412.2 544 410 543.6 407.6 543.1C407 541.8 407.1 540.5 408.5 540.3C411.1 539.9 415.6 542.3 414.4 544.3Z" fill="black" fill-opacity="0.7"/>
<path d="M408.5 540.3C405.3 540.8 408.8 547.3 413.1 545.3C417.4 543.4 411.6 539.8 408.5 540.3Z" stroke="#263238" stroke-miterlimit="10" stroke-linecap="round" stroke-linejoin="round"/>
<path d="M434.8 544.9C443.1 543 450.3 540.2 450.7 536.4C451.3 530.7 445.2 529.1 437.9 529.3C437.6 529.7 430.5 536.5 434.8 544.9Z" fill="white"/>
<path opacity="0.3" d="M450.8 536.3C447.7 537.5 443.7 539.3 441.1 541.1C441.1 541.1 438.7 542.3 434.3 543.4C431.5 535.7 437.8 529.6 438.1 529.4C445.2 529.1 451.3 530.7 450.8 536.3Z" fill="black" fill-opacity="0.7"/>
<path d="M434.8 544.9C443.1 543 450.3 540.2 450.7 536.4C451.3 530.7 445.2 529.1 437.9 529.3C437.6 529.7 430.5 536.5 434.8 544.9Z" stroke="#263238" stroke-miterlimit="10" stroke-linecap="round" stroke-linejoin="round"/>
<path d="M428.9 537.8C429.4 537.8 429.8 537.5 429.9 537C430.1 533.4 432.9 530.4 432.9 530.4C433.2 530.1 433.2 529.5 432.9 529.2C432.6 528.9 432 528.9 431.7 529.2C431.6 529.3 428.4 532.6 428.2 536.9C428.1 537.3 428.4 537.7 428.9 537.8Z" fill="white" stroke="#263238" stroke-miterlimit="10" stroke-linecap="round" stroke-linejoin="round"/>
<path d="M425.4 538.001C425.4 538.001 425.5 538.001 425.4 538.001C426 538.001 426.3 537.601 426.4 537.201C426.5 533.501 429 530.401 429.1 530.301C429.4 529.901 429.3 529.401 429 529.101C428.6 528.801 428.1 528.801 427.8 529.201C427.7 529.301 424.8 532.901 424.8 537.101C424.6 537.601 425 537.901 425.4 538.001Z" fill="white" stroke="#263238" stroke-miterlimit="10" stroke-linecap="round" stroke-linejoin="round"/>
<path d="M421.3 537.5C421.8 537.5 422.2 537.2 422.3 536.7C422.6 533.7 425.2 529.8 425.2 529.7C425.5 529.3 425.4 528.8 425 528.5C424.6 528.2 424.1 528.3 423.8 528.7C423.7 528.9 420.9 533 420.6 536.5C420.4 537.1 420.8 537.5 421.3 537.5Z" fill="white" stroke="#263238" stroke-miterlimit="10" stroke-linecap="round" stroke-linejoin="round"/>
<path d="M417.3 537.1C417.4 537.1 417.5 537.1 417.5 537.1C418 537 418.3 536.6 418.2 536.1C417.6 532.4 421 529.3 421 529.2C421.4 528.9 421.4 528.3 421.1 528C420.8 527.6 420.2 527.6 419.9 527.9C419.7 528.1 415.7 531.7 416.5 536.3C416.6 536.8 417 537.1 417.3 537.1Z" fill="white" stroke="#263238" stroke-miterlimit="10" stroke-linecap="round" stroke-linejoin="round"/>
<path d="M413.1 536.1C413.2 536.1 413.3 536.1 413.4 536.1C413.9 536 414.2 535.5 414.1 535.1C413.3 531.8 416.6 528.1 416.6 528.1C416.9 527.7 416.9 527.2 416.5 526.9C416.1 526.6 415.6 526.6 415.3 527C415.1 527.2 411.4 531.4 412.4 535.6C412.4 535.8 412.7 536.1 413.1 536.1Z" fill="white" stroke="#263238" stroke-miterlimit="10" stroke-linecap="round" stroke-linejoin="round"/>
<path d="M323 529.7L321.7 533.4C321.7 533.4 323.3 540.1 333.2 542.3C343.1 544.4 348.9 547.3 353.7 548.1C358.5 548.9 361.4 548.8 361.4 548.8L362.5 547.4L323 529.7Z" fill="white" stroke="#263238" stroke-miterlimit="10" stroke-linecap="round" stroke-linejoin="round"/>
<path d="M381.4 535.4L362.5 547.2C362.5 547.2 349.1 544.7 337.9 540.8C329.8 538 322.9 534.5 322.9 530.7C322.9 524.9 329.2 524 336.4 525C337.8 525.2 339.1 525.4 340.5 525.7C352 528.2 367.4 523.3 367.4 523.3L381.4 535.4Z" fill="#263238"/>
<path opacity="0.3" d="M381.4 535.4L370.3 542.4C359.2 539 351.9 531.9 347.8 526.5C357.6 526.5 367.5 523.4 367.5 523.4L381.4 535.4Z" fill="black" fill-opacity="0.7"/>
<path d="M381.4 535.4L362.5 547.2C362.5 547.2 349.1 544.7 337.9 540.8C329.8 538 322.9 534.5 322.9 530.7C322.9 524.9 329.2 524 336.4 525C337.8 525.2 339.1 525.4 340.5 525.7C352 528.2 367.4 523.3 367.4 523.3L381.4 535.4Z" stroke="#263238" stroke-miterlimit="10" stroke-linecap="round" stroke-linejoin="round"/>
<path d="M337.9 540.9C329.8 538.1 322.9 534.6 322.9 530.8C322.9 525 329.2 524.1 336.4 525.1C336.8 525.5 343.1 533 337.9 540.9Z" fill="white" stroke="#263238" stroke-miterlimit="10" stroke-linecap="round" stroke-linejoin="round"/>
<path d="M344.6 534.401C344.6 534.401 344.5 534.401 344.6 534.401C344.1 534.401 343.7 534.001 343.7 533.501C343.9 529.901 341.4 526.701 341.4 526.601C341.1 526.201 341.2 525.701 341.6 525.401C342 525.101 342.5 525.201 342.8 525.601C342.9 525.801 345.7 529.401 345.4 533.601C345.4 534.101 345 534.401 344.6 534.401Z" fill="white" stroke="#263238" stroke-miterlimit="10" stroke-linecap="round" stroke-linejoin="round"/>
<path d="M348 535C347.4 535 347.1 534.5 347.1 534.1C347.4 530.5 345.2 527 345.2 527C344.9 526.6 345 526.1 345.4 525.8C345.8 525.5 346.3 525.6 346.6 526C346.7 526.2 349.2 529.9 348.8 534.2C348.8 534.7 348.5 535 348 535Z" fill="white" stroke="#263238" stroke-miterlimit="10" stroke-linecap="round" stroke-linejoin="round"/>
<path d="M352.2 535C351.7 535 351.3 534.6 351.3 534.1C351.4 531.1 349.2 526.9 349.2 526.9C349 526.5 349.1 526 349.6 525.7C350 525.5 350.5 525.6 350.8 526.1C350.9 526.3 353.2 530.7 353.1 534.2C353 534.6 352.7 535 352.2 535Z" fill="white" stroke="#263238" stroke-miterlimit="10" stroke-linecap="round" stroke-linejoin="round"/>
<path d="M356.1 535.001C356 535.001 355.9 535.001 355.9 535.001C355.4 534.901 355.2 534.401 355.3 533.901C356.3 530.301 353.2 526.801 353.2 526.801C352.9 526.401 352.9 525.901 353.3 525.601C353.7 525.301 354.2 525.301 354.5 525.701C354.7 525.901 358.2 529.901 357 534.401C356.9 534.801 356.5 535.001 356.1 535.001Z" fill="white" stroke="#263238" stroke-miterlimit="10" stroke-linecap="round" stroke-linejoin="round"/>
<path d="M360.5 534.4C360.4 534.4 360.3 534.4 360.2 534.4C359.7 534.2 359.5 533.8 359.7 533.3C360.8 530.1 358 526.1 357.9 526C357.6 525.6 357.7 525.1 358.1 524.8C358.5 524.5 359 524.6 359.3 525C359.4 525.2 362.7 529.8 361.3 533.8C361.2 534.2 360.8 534.4 360.5 534.4Z" fill="white" stroke="#263238" stroke-miterlimit="10" stroke-linecap="round" stroke-linejoin="round"/>
<path d="M364.6 539.1C367.7 539.9 363.6 546 359.5 543.6C355.4 541.2 361.5 538.3 364.6 539.1Z" fill="white" stroke="#263238" stroke-miterlimit="10" stroke-linecap="round" stroke-linejoin="round"/>
<path d="M328.9 507C333.5 513.5 347.3 520.7 360.9 526.6C362.4 529 365.4 533.6 369.5 537.8C377.9 546.5 381.4 541.6 381.4 541.6C381.4 541.6 386.7 541 394.6 539.9C395.1 540.9 396.3 542.5 398.6 542.1C399.6 541.9 401.6 540.5 403.8 538.5C423.6 535.5 450.5 530.5 457.8 524.7" fill="#3BCBBE"/>
<path d="M328.9 507C333.5 513.5 347.3 520.7 360.9 526.6C362.4 529 365.4 533.6 369.5 537.8C377.9 546.5 381.4 541.6 381.4 541.6C381.4 541.6 386.7 541 394.6 539.9C395.1 540.9 396.3 542.5 398.6 542.1C399.6 541.9 401.6 540.5 403.8 538.5C423.6 535.5 450.5 530.5 457.8 524.7" stroke="#263238" stroke-miterlimit="10" stroke-linecap="round" stroke-linejoin="round"/>
<path d="M450 494.6C446.6 490.8 443.1 490.7 435.9 491.2C435.9 491.2 417.1 497.2 404 505.1C390.9 513 371.8 521.4 371.8 521.4C371.8 521.4 366 519.7 361.9 521.4C361.9 521.4 359.1 521.6 361 526.6" stroke="#263238" stroke-miterlimit="10" stroke-linecap="round" stroke-linejoin="round"/>
<path d="M458.701 517.2C458.701 517.2 458.801 523 450.601 527" stroke="#263238" stroke-miterlimit="10" stroke-linecap="round" stroke-linejoin="round"/>
<path d="M367.8 492.9C367.8 492.9 380.8 502.3 383.4 508.5C383.4 508.5 388.4 510.6 390.8 512.3" stroke="#263238" stroke-miterlimit="10" stroke-linecap="round" stroke-linejoin="round"/>
<path d="M384.4 500.7C385.3 503.4 385.6 506.3 384.9 509.1" stroke="#263238" stroke-miterlimit="10" stroke-linecap="round" stroke-linejoin="round"/>
<path d="M381.4 494.601C382.1 495.601 382.7 496.701 383.3 497.901" stroke="#263238" stroke-miterlimit="10" stroke-linecap="round" stroke-linejoin="round"/>
<path d="M399.9 493.8C399.9 493.8 404.3 499.6 405.3 504.3" stroke="#263238" stroke-miterlimit="10" stroke-linecap="round" stroke-linejoin="round"/>
<path d="M424.101 528.9C425.701 528.8 427.301 528.6 428.901 528.3" stroke="#263238" stroke-miterlimit="10" stroke-linecap="round" stroke-linejoin="round"/>
<path d="M383.3 524.8C395.2 527.1 408.2 528.8 420.7 529.1" stroke="#263238" stroke-miterlimit="10" stroke-linecap="round" stroke-linejoin="round"/>
<path d="M471.3 436.6C471.3 436.6 469 477.5 466.2 479.9C463.4 482.3 459.1 483 450.8 483.7C442.5 484.4 406 486.6 406 486.6L402.1 474.8C402.1 474.8 421.5 472.8 430.2 469.6C438.8 466.4 450.1 464.3 450.1 464.3C450.1 464.3 448.5 454 448.5 449.6C448.5 445.2 448.5 433.9 448.5 428.7" fill="white"/>
<path d="M471.3 436.6C471.3 436.6 469 477.5 466.2 479.9C463.4 482.3 459.1 483 450.8 483.7C442.5 484.4 406 486.6 406 486.6L402.1 474.8C402.1 474.8 421.5 472.8 430.2 469.6C438.8 466.4 450.1 464.3 450.1 464.3C450.1 464.3 448.5 454 448.5 449.6C448.5 445.2 448.5 433.9 448.5 428.7" stroke="#263238" stroke-miterlimit="10" stroke-linecap="round" stroke-linejoin="round"/>
<path d="M464.1 391.8C473 397.3 475.6 410 472.6 437.1C472.6 437.1 475.2 440.3 471.3 441.9C471.3 441.9 456.7 436.5 450 440.2C443.2 444 445 435 445 435C445 435 442.2 410.1 448.4 405.6" fill="#263238"/>
<path d="M447.5 401.7C447.5 401.7 438.9 410.6 446.5 433.1C446.5 433.1 445.5 437.2 445.5 438.7C445.5 440.2 447.6 441 447.6 441" stroke="white" stroke-miterlimit="10" stroke-linecap="round" stroke-linejoin="round"/>
<path d="M437.5 416.8C437.5 416.8 438.1 427.8 444.9 432.6" stroke="white" stroke-miterlimit="10" stroke-linecap="round" stroke-linejoin="round"/>
<path d="M439.7 391.3C439.7 391.3 426.4 396.4 415.8 390.8C409.5 387.5 412.1 382.1 412.1 382.1" stroke="white" stroke-miterlimit="10" stroke-linecap="round" stroke-linejoin="round"/>
<path d="M344.2 494.7H416.5C418.1 494.7 419.8 494.5 421.3 494.1L435.6 490.4C436 490.3 436.3 489.9 436.3 489.5C436.3 489 435.9 488.6 435.4 488.6H341.2C340.7 488.6 340.3 489 340.3 489.5V490.8C340.2 492.9 342 494.7 344.2 494.7Z" fill="#757575" stroke="#263238" stroke-miterlimit="10" stroke-linecap="round" stroke-linejoin="round"/>
<path d="M337 491.1H409.5C410.8 491.1 411.5 490.1 411.2 488.8L397.7 436.5C397.4 435.2 396.1 434.2 394.8 434.2H322.3C321 434.2 320.3 435.2 320.6 436.5L334.1 488.8C334.4 490 335.7 491.1 337 491.1Z" fill="#999999" stroke="#263238" stroke-miterlimit="10" stroke-linecap="round" stroke-linejoin="round"/>
<path d="M324.9 435.9H323.5" stroke="#263238" stroke-miterlimit="10" stroke-linecap="round" stroke-linejoin="round"/>
<path d="M335.5 435.9H328.4" stroke="#263238" stroke-miterlimit="10" stroke-linecap="round" stroke-linejoin="round"/>
<path d="M407.8 484.4L395.9 438.2C395.6 436.9 394.3 435.9 393 435.9H337.1" stroke="#263238" stroke-miterlimit="10" stroke-linecap="round" stroke-linejoin="round"/>
<path d="M408.8 488.5L408.5 487.3" stroke="#263238" stroke-miterlimit="10" stroke-linecap="round" stroke-linejoin="round"/>
<path d="M358.8 463.9C358.8 464.3 358.9 464.7 359.1 465.2C360 468.4 363 470.3 365.7 469.5C368.4 468.7 369.9 465.5 368.9 462.3C368 459.1 365 457.2 362.3 458C362 458.1 361.7 458.2 361.4 458.4C361.6 460.7 360.6 462.9 358.8 463.9Z" fill="white" stroke="#263238" stroke-miterlimit="10" stroke-linecap="round" stroke-linejoin="round"/>
<path d="M390.8 365.8C384.5 365.1 381.1 359.1 377.3 358.2C373.5 357.3 371.1 356.2 371.1 356.2C371.1 356.2 369.8 351.7 367.9 353.2C366 354.8 363.4 388.7 365.9 387.6C368.4 386.5 368.4 390.5 368.4 390.5L391.7 411L411.2 376.4C411.3 376.6 397.1 366.5 390.8 365.8Z" fill="#263238"/>
<path d="M200.9 244.9V244.4H201.4" stroke="#263238" stroke-linecap="round" stroke-linejoin="round"/>
<path d="M204.3 244.4H288.9" stroke="#263238" stroke-linecap="round" stroke-linejoin="round" stroke-dasharray="0.98 0.98"/>
<path d="M290.4 244.4H290.9V244.9" stroke="#263238" stroke-linecap="round" stroke-linejoin="round"/>
<path d="M290.9 247.9V302.4" stroke="#263238" stroke-linecap="round" stroke-linejoin="round" stroke-dasharray="1 1"/>
<path d="M290.9 303.9V304.4H290.4" stroke="#263238" stroke-linecap="round" stroke-linejoin="round"/>
<path d="M287.5 304.4H202.9" stroke="#263238" stroke-linecap="round" stroke-linejoin="round" stroke-dasharray="0.98 0.98"/>
<path d="M201.4 304.4H200.9V303.9" stroke="#263238" stroke-linecap="round" stroke-linejoin="round"/>
<path d="M200.9 300.9V246.4" stroke="#263238" stroke-linecap="round" stroke-linejoin="round" stroke-dasharray="1 1"/>
<path d="M245.9 245.9C246.729 245.9 247.4 245.229 247.4 244.4C247.4 243.572 246.729 242.9 245.9 242.9C245.072 242.9 244.4 243.572 244.4 244.4C244.4 245.229 245.072 245.9 245.9 245.9Z" fill="#3BCBBE" stroke="#263238" stroke-miterlimit="10" stroke-linecap="round" stroke-linejoin="round"/>
<path d="M200.9 275.9C201.729 275.9 202.4 275.229 202.4 274.4C202.4 273.572 201.729 272.9 200.9 272.9C200.072 272.9 199.4 273.572 199.4 274.4C199.4 275.229 200.072 275.9 200.9 275.9Z" fill="#3BCBBE" stroke="#263238" stroke-miterlimit="10" stroke-linecap="round" stroke-linejoin="round"/>
<path d="M245.9 305.9C246.729 305.9 247.4 305.229 247.4 304.4C247.4 303.572 246.729 302.9 245.9 302.9C245.072 302.9 244.4 303.572 244.4 304.4C244.4 305.229 245.072 305.9 245.9 305.9Z" fill="#3BCBBE" stroke="#263238" stroke-miterlimit="10" stroke-linecap="round" stroke-linejoin="round"/>
<path d="M290.9 275.9C291.729 275.9 292.4 275.229 292.4 274.4C292.4 273.572 291.729 272.9 290.9 272.9C290.072 272.9 289.4 273.572 289.4 274.4C289.4 275.229 290.072 275.9 290.9 275.9Z" fill="#3BCBBE" stroke="#263238" stroke-miterlimit="10" stroke-linecap="round" stroke-linejoin="round"/>
<path d="M292.6 302.7H289.2V306.1H292.6V302.7Z" fill="#3BCBBE" stroke="#263238" stroke-miterlimit="10" stroke-linecap="round" stroke-linejoin="round"/>
<path d="M292.6 242.7H289.2V246.1H292.6V242.7Z" fill="#3BCBBE" stroke="#263238" stroke-miterlimit="10" stroke-linecap="round" stroke-linejoin="round"/>
<path d="M202.6 302.7H199.2V306.1H202.6V302.7Z" fill="#3BCBBE" stroke="#263238" stroke-miterlimit="10" stroke-linecap="round" stroke-linejoin="round"/>
<path d="M202.6 242.7H199.2V246.1H202.6V242.7Z" fill="#3BCBBE" stroke="#263238" stroke-miterlimit="10" stroke-linecap="round" stroke-linejoin="round"/>
<path d="M285.2 249.7H206.9V299.5H285.2V249.7Z" fill="white" stroke="#263238" stroke-miterlimit="10" stroke-linecap="round" stroke-linejoin="round"/>
<path d="M285.2 284.8L276.5 293.5L252.9 269.9L243 279.8L227.2 264L206.9 284.4V299.5H285.2V284.8Z" fill="#3BCBBE" stroke="#263238" stroke-miterlimit="10" stroke-linecap="round" stroke-linejoin="round"/>
<path d="M269 269.3C272.038 269.3 274.5 266.838 274.5 263.8C274.5 260.763 272.038 258.3 269 258.3C265.963 258.3 263.5 260.763 263.5 263.8C263.5 266.838 265.963 269.3 269 269.3Z" fill="#3BCBBE" stroke="#263238" stroke-miterlimit="10" stroke-linecap="round" stroke-linejoin="round"/>
<path d="M395 375C395 375 389.1 386.2 388.3 403.3" stroke="white" stroke-miterlimit="10" stroke-linecap="round" stroke-linejoin="round"/>
<path d="M377.4 382.7C377.4 382.7 379.2 392.2 384.4 399.1" stroke="white" stroke-miterlimit="10" stroke-linecap="round" stroke-linejoin="round"/>
<path d="M402 421.9C402 421.9 411 451.5 430.6 460.2" stroke="white" stroke-miterlimit="10" stroke-linecap="round" stroke-linejoin="round"/>
<path d="M425.7 368.4C425.7 368.4 424.8 374.8 418.7 375.3C418 373.8 417 372.2 415.9 370.7C420 369.4 425.7 368.4 425.7 368.4Z" fill="#263238"/>
<path d="M438.9 368.9C438.9 368.9 449.3 370.2 453.6 356.2C457.9 342.3 454.5 331.8 437.4 326.7C427.9 323.9 418.4 326.2 414.9 333.4C412 339.6 413.3 344.7 412.7 346.8C411.9 349.1 404.9 351.1 404.9 352.7C404.9 354 408.8 356.3 408.8 356.3L407.7 359.8L408.8 360.4C408.8 360.4 406.8 368.2 407.7 370.9C408.4 372.9 425.9 373.7 427.3 368.8" fill="white"/>
<path d="M438.9 368.9C438.9 368.9 449.3 370.2 453.6 356.2C457.9 342.3 454.5 331.8 437.4 326.7C427.9 323.9 418.4 326.2 414.9 333.4C412 339.6 413.3 344.7 412.7 346.8C411.9 349.1 404.9 351.1 404.9 352.7C404.9 354 408.8 356.3 408.8 356.3L407.7 359.8L408.8 360.4C408.8 360.4 406.8 368.2 407.7 370.9C408.4 372.9 425.9 373.7 427.3 368.8" stroke="#263238" stroke-miterlimit="10" stroke-linecap="round" stroke-linejoin="round"/>
<path d="M415 338.5C415 338.5 418.4 339.4 419.4 341.2" stroke="#263238" stroke-miterlimit="10" stroke-linecap="round" stroke-linejoin="round"/>
<path d="M415.6 346.4C415.5 347.4 415.7 348.3 416.1 348.3C416.5 348.4 417 347.6 417.2 346.6C417.3 345.6 417.1 344.7 416.7 344.7C416.2 344.6 415.7 345.4 415.6 346.4Z" fill="#263238"/>
<path d="M408.7 360.3C408.7 360.3 414.3 362.4 416.4 361.1" stroke="#263238" stroke-miterlimit="10" stroke-linecap="round" stroke-linejoin="round"/>
<path d="M410.701 345.6C410.301 347.8 410.801 349.8 411.801 350C412.801 350.2 414.001 348.5 414.401 346.3C414.801 344.1 414.301 342.1 413.301 341.9C412.301 341.7 411.101 343.3 410.701 345.6Z" stroke="#263238" stroke-miterlimit="10" stroke-linecap="round" stroke-linejoin="round"/>
<path d="M454.1 334.2C454.1 334.2 453.3 328.4 447.6 324.1C441.9 319.9 435 319 435 319C435 319 438.3 320.4 439.6 322.4C439.6 322.4 431 316 420.9 320.2C410.7 324.4 412 335.4 412 335.4L413.5 332.5C413.5 332.5 413.3 335.9 415.1 337.2C415.1 337.2 416.2 333.9 417.3 332.4C417.3 332.4 420 340.5 427.4 343.3C427.4 343.3 426.6 341.7 427.3 339.3C427.3 339.3 431.4 348.2 430.2 352.6L431.5 354.9C431.5 354.9 436.2 350.1 440.1 354.1C442.3 356.4 435.9 365.1 435 365.1L438.9 370.8C438.9 370.8 448.6 372.2 454.2 361.7C459.8 351.2 458.4 346.7 458.4 346.7C458.4 346.7 460.2 349.3 460.5 350.7C460.3 350.5 461.9 339.2 454.1 334.2Z" fill="#263238"/>
<path d="M431.2 355.8C431.2 355.8 434.2 345.7 440.6 349.3C447 352.9 442.4 358.2 440.1 360.3C437.8 362.4 436.1 366.1 434.6 366.1C433.1 366.1 432.8 364.3 432.8 364.3" fill="white"/>
<path d="M431.2 355.8C431.2 355.8 434.2 345.7 440.6 349.3C447 352.9 442.4 358.2 440.1 360.3C437.8 362.4 436.1 366.1 434.6 366.1C433.1 366.1 432.8 364.3 432.8 364.3" stroke="#263238" stroke-miterlimit="10" stroke-linecap="round" stroke-linejoin="round"/>
<path d="M414.4 346.3L432.2 350" stroke="#263238" stroke-miterlimit="10" stroke-linecap="round" stroke-linejoin="round"/>
</g>
<defs>
<filter id="filter0_f_32_1149" x="-67" y="-61" width="763.562" height="763.562" filterUnits="userSpaceOnUse" color-interpolation-filters="sRGB">
<feFlood flood-opacity="0" result="BackgroundImageFix"/>
<feBlend mode="normal" in="SourceGraphic" in2="BackgroundImageFix" result="shape"/>
<feGaussianBlur stdDeviation="100" result="effect1_foregroundBlur_32_1149"/>
</filter>
<clipPath id="clip0_32_1149">
<rect width="630" height="576" fill="white"/>
</clipPath>
</defs>
</svg>
