<svg width="630" height="576" viewBox="0 0 630 576" fill="none" xmlns="http://www.w3.org/2000/svg">
<g clip-path="url(#clip0_32_2303)">
<g filter="url(#filter0_f_32_2303)">
<circle cx="314.781" cy="320.781" r="181.781" fill="#3BCBBE" fill-opacity="0.37"/>
</g>
<path d="M94.32 195C121.947 195 142.293 200.507 155.36 211.52C168.613 222.533 175.24 237.28 175.24 255.76C175.24 267.707 172.253 278.627 166.28 288.52C160.307 298.227 151.16 306.067 138.84 312.04C126.707 317.827 111.68 320.72 93.76 320.72C79.9467 320.72 66.32 318.947 52.88 315.4C39.6267 311.667 28.3333 306.44 19 299.72L36.92 265C44.3867 270.6 52.9733 274.987 62.68 278.16C72.3867 281.147 82.3733 282.64 92.64 282.64C104.027 282.64 112.987 280.4 119.52 275.92C126.053 271.44 129.32 265.187 129.32 257.16C129.32 248.76 125.867 242.413 118.96 238.12C112.24 233.827 100.48 231.68 83.68 231.68H33.56L43.64 121.36H163.2V157.76H81.44L78.36 195H94.32Z" fill="#3BCBBE"/>
<path d="M277.643 320.72C261.403 320.72 246.937 316.707 234.243 308.68C221.55 300.653 211.563 289.08 204.283 273.96C197.19 258.653 193.643 240.453 193.643 219.36C193.643 198.267 197.19 180.16 204.283 165.04C211.563 149.733 221.55 138.067 234.243 130.04C246.937 122.013 261.403 118 277.643 118C293.883 118 308.35 122.013 321.043 130.04C333.737 138.067 343.63 149.733 350.723 165.04C358.003 180.16 361.643 198.267 361.643 219.36C361.643 240.453 358.003 258.653 350.723 273.96C343.63 289.08 333.737 300.653 321.043 308.68C308.35 316.707 293.883 320.72 277.643 320.72ZM277.643 282.36C289.59 282.36 298.923 277.227 305.643 266.96C312.55 256.693 316.003 240.827 316.003 219.36C316.003 197.893 312.55 182.027 305.643 171.76C298.923 161.493 289.59 156.36 277.643 156.36C265.883 156.36 256.55 161.493 249.643 171.76C242.923 182.027 239.563 197.893 239.563 219.36C239.563 240.827 242.923 256.693 249.643 266.96C256.55 277.227 265.883 282.36 277.643 282.36Z" fill="#3BCBBE"/>
<path d="M429.043 227.2C414.669 227.2 402.909 222.347 393.763 212.64C384.803 202.747 380.323 189.587 380.323 173.16C380.323 156.733 384.803 143.667 393.763 133.96C402.909 124.067 414.669 119.12 429.043 119.12C443.416 119.12 455.083 124.067 464.043 133.96C473.003 143.667 477.483 156.733 477.483 173.16C477.483 189.587 473.003 202.747 464.043 212.64C455.083 222.347 443.416 227.2 429.043 227.2ZM545.803 121.36H579.122L445.283 317.36H411.963L545.803 121.36ZM429.043 204.24C435.389 204.24 440.336 201.627 443.883 196.4C447.616 191.173 449.483 183.427 449.483 173.16C449.483 162.893 447.616 155.147 443.883 149.92C440.336 144.693 435.389 142.08 429.043 142.08C422.883 142.08 417.936 144.787 414.203 150.2C410.469 155.427 408.603 163.08 408.603 173.16C408.603 183.24 410.469 190.987 414.203 196.4C417.936 201.627 422.883 204.24 429.043 204.24ZM562.043 319.6C552.709 319.6 544.309 317.453 536.843 313.16C529.563 308.68 523.869 302.333 519.763 294.12C515.656 285.907 513.603 276.387 513.603 265.56C513.603 254.733 515.656 245.213 519.763 237C523.869 228.787 529.563 222.533 536.843 218.24C544.309 213.76 552.709 211.52 562.043 211.52C576.416 211.52 588.083 216.467 597.043 226.36C606.189 236.067 610.763 249.133 610.763 265.56C610.763 281.987 606.189 295.147 597.043 305.04C588.083 314.747 576.416 319.6 562.043 319.6ZM562.043 296.64C568.389 296.64 573.336 294.027 576.883 288.8C580.616 283.387 582.483 275.64 582.483 265.56C582.483 255.48 580.616 247.827 576.883 242.6C573.336 237.187 568.389 234.48 562.043 234.48C555.883 234.48 550.936 237.093 547.203 242.32C543.469 247.547 541.603 255.293 541.603 265.56C541.603 275.827 543.469 283.573 547.203 288.8C550.936 294.027 555.883 296.64 562.043 296.64Z" fill="#3BCBBE"/>
<path d="M388 148.6C388 148.6 310.6 121.1 234.6 164.9C158.6 208.7 120.3 295.7 87.3999 365.4C54.4999 435.1 73.3999 505.9 131.4 538.3C189.4 570.6 228.8 523 310.2 520.7C391.6 518.4 413.4 530 481 484.1C548.5 438.1 560.7 329.6 507.5 249.3C454.2 168.8 388 148.6 388 148.6Z" fill="#3BCBBE"/>
<path opacity="0.7" d="M388 148.6C388 148.6 310.6 121.1 234.6 164.9C158.6 208.7 120.3 295.7 87.3999 365.4C54.4999 435.1 73.3999 505.9 131.4 538.3C189.4 570.6 228.8 523 310.2 520.7C391.6 518.4 413.4 530 481 484.1C548.5 438.1 560.7 329.6 507.5 249.3C454.2 168.8 388 148.6 388 148.6Z" fill="white"/>
<path d="M94.9 397.3C94.9 397.3 96.7999 400.8 95.0999 404.1C93.3999 407.4 91.3999 410.7 92.5999 412.4C93.7999 414.1 97.6 416.1 97.2 419.7C96.8 423.2 91.8 430.3 94.9 434.2C98 438.1 103.2 437.9 103.4 442.3C103.6 446.7 98.4 450.2 99.9 454.1C101.4 458 109.8 458.9 109.8 461.6C109.8 464.3 106.5 467.2 109.2 470.1C111.9 473 124.9 480.6 126.8 477.5C128.7 474.4 132.4 465.8 129.9 453.6C129.5 451.5 126.6 451.1 126.2 448.2C125.8 445.3 127 440.1 125 437.2C122.9 434.3 116.3 433.3 115.9 431C115.5 428.7 118.4 423.1 115.5 419.6C112.6 416.1 105.8 414.4 105.8 412.1C105.8 409.8 107.9 406.9 105 403.8C102 400.6 94.9 397.3 94.9 397.3Z" fill="#3BCBBE"/>
<path d="M104.9 421.7C109.2 434.7 116.8 452.4 119.8 460.9C123.5 471.3 126.8 478.8 128.4 489.1C130 499.4 131 568.9 131 568.9" stroke="#263238" stroke-miterlimit="10" stroke-linecap="round" stroke-linejoin="round"/>
<path d="M96 398.5C96 398.5 99.5 401.4 102.6 414C102.8 414.8 103 415.7 103.3 416.6" stroke="#263238" stroke-miterlimit="10" stroke-linecap="round" stroke-linejoin="round"/>
<path d="M159.7 420.9C159.7 420.9 158.2 423.7 159.5 426.4C160.8 429.1 162.5 431.7 161.5 433C160.5 434.3 157.5 436 157.9 438.8C158.2 441.6 162.2 447.3 159.7 450.4C157.2 453.6 153.1 453.4 152.9 456.9C152.7 460.4 156.9 463.2 155.7 466.4C154.5 469.6 147.7 470.2 147.7 472.4C147.7 474.6 150.4 476.9 148.2 479.2C146 481.5 135.6 487.6 134.1 485.1C132.6 482.6 129.6 475.7 131.6 466C131.9 464.4 134.3 464 134.6 461.7C134.9 459.4 133.9 455.2 135.6 452.9C137.3 450.6 142.6 449.7 142.9 447.9C143.2 446.1 140.9 441.6 143.2 438.8C145.5 436 151 434.7 151 432.8C151 431 149.3 428.7 151.7 426.2C154.1 423.6 159.7 420.9 159.7 420.9Z" fill="#3BCBBE"/>
<path d="M151.8 440.5C148.3 450.9 142.3 465 139.8 471.9C136.8 480.2 134.2 486.2 132.9 494.5C131.6 502.8 130.9 558.3 130.9 558.3" stroke="#263238" stroke-miterlimit="10" stroke-linecap="round" stroke-linejoin="round"/>
<path d="M158.9 421.9C158.9 421.9 156.1 424.2 153.6 434.3C153.4 435 153.3 435.6 153 436.4" stroke="#263238" stroke-miterlimit="10" stroke-linecap="round" stroke-linejoin="round"/>
<path d="M102.7 467.9C102.7 467.9 103.9 470.3 102.8 472.5C101.7 474.7 100.3 476.9 101.1 478C101.9 479.1 104.4 480.5 104.1 482.8C103.8 485.2 100.5 489.9 102.6 492.5C104.7 495.1 108.1 495 108.3 497.9C108.4 500.8 105 503.2 105.9 505.8C106.9 508.4 112.6 509 112.6 510.8C112.6 512.6 110.4 514.5 112.2 516.5C114 518.4 122.7 523.5 124 521.4C125.2 519.3 127.8 513.6 126.1 505.4C125.8 504 123.9 503.7 123.6 501.8C123.3 499.9 124.2 496.4 122.8 494.5C121.4 492.6 117 491.9 116.7 490.3C116.4 488.8 118.4 485 116.4 482.7C114.5 480.3 109.9 479.2 109.9 477.7C109.9 476.2 111.3 474.2 109.3 472.2C107.4 470.1 102.7 467.9 102.7 467.9Z" fill="#3BCBBE"/>
<path d="M109.3 484.2C112.2 492.9 117.2 504.7 119.3 510.4C121.8 517.3 124 522.3 125.1 529.3C126.2 536.2 126.8 561.9 126.8 561.9" stroke="#263238" stroke-miterlimit="10" stroke-linecap="round" stroke-linejoin="round"/>
<path d="M103.4 468.7C103.4 468.7 105.8 470.6 107.8 479.1C107.9 479.6 108.1 480.2 108.3 480.8" stroke="#263238" stroke-miterlimit="10" stroke-linecap="round" stroke-linejoin="round"/>
<path d="M174 464.4C174 464.4 172.2 466.4 172.8 468.8C173.4 471.2 174.2 473.7 173.2 474.6C172.1 475.5 169.4 476.3 169.1 478.6C168.8 481 171 486.3 168.4 488.4C165.8 490.5 162.4 489.6 161.6 492.4C160.8 495.2 163.6 498.3 162.1 500.6C160.6 502.9 154.9 502.2 154.5 503.9C154.1 505.7 155.8 508 153.6 509.5C151.4 511 141.8 513.9 141 511.6C140.3 509.3 139.1 503.1 142.6 495.6C143.2 494.3 145.2 494.5 145.9 492.7C146.6 490.9 146.6 487.3 148.4 485.7C150.2 484.1 154.7 484.5 155.3 483C155.9 481.6 154.9 477.5 157.3 475.6C159.7 473.8 164.4 473.7 164.8 472.2C165.1 470.7 164.2 468.5 166.6 466.9C169 465.5 174 464.4 174 464.4Z" fill="#3BCBBE"/>
<path d="M163.8 478.8C159 486.6 151.4 496.9 148.1 502C144.1 508.2 139.3 512.1 138.2 519C137.1 525.9 136.5 551.6 136.5 551.6" stroke="#263238" stroke-miterlimit="10" stroke-linecap="round" stroke-linejoin="round"/>
<path d="M173.2 465.1C173.2 465.1 170.5 466.4 166.5 474.2C166.2 474.7 166 475.2 165.7 475.8" stroke="#263238" stroke-miterlimit="10" stroke-linecap="round" stroke-linejoin="round"/>
<path d="M124.8 576.7H140.2C148.3 572.5 154.1 561.9 154.1 549.5C154.1 541.4 151.6 534 147.6 528.7H117.4C113.4 534 110.9 541.3 110.9 549.5C111 561.9 116.7 572.5 124.8 576.7Z" fill="white" stroke="#263238" stroke-miterlimit="10" stroke-linecap="round" stroke-linejoin="round"/>
<path d="M354.3 189H108.7V374.9H354.3V189Z" stroke="#263238" stroke-miterlimit="10" stroke-linecap="round" stroke-linejoin="round"/>
<path d="M348.7 193.9H114.5V370H348.7V193.9Z" stroke="#263238" stroke-miterlimit="10" stroke-linecap="round" stroke-linejoin="round"/>
<path d="M185.8 219.8C185.8 219.8 147.5 217 144.3 223C141.1 229 143.4 338.7 145.2 340.1C147 341.5 198.7 342.4 203.7 340.6C208.8 338.8 201.9 227.2 201.9 224C201.9 220.8 189.9 219.4 189.9 219.4" stroke="#263238" stroke-width="2" stroke-miterlimit="10" stroke-linecap="round" stroke-linejoin="round"/>
<path d="M148.3 310.6C148.4 325.1 148.7 335.7 149.4 336C151.7 336.9 200.6 341.1 201.9 336.5C203.3 331.9 198.2 227.7 198.2 227.7" stroke="#263238" stroke-width="2" stroke-miterlimit="10" stroke-linecap="round" stroke-linejoin="round"/>
<path d="M196.5 227.1C196.5 227.1 149.9 225.3 149.5 227.6C149.2 229.1 148.4 272.3 148.4 303.7" stroke="#263238" stroke-width="2" stroke-miterlimit="10" stroke-linecap="round" stroke-linejoin="round"/>
<path d="M150.8 235.4H196" stroke="#263238" stroke-width="2" stroke-miterlimit="10" stroke-linecap="round" stroke-linejoin="round"/>
<path d="M191.8 233.4C189 236.3 191.8 233.4 193.6 229.2C195.4 225 191.8 230 187.6 233.4C183.5 236.7 185.8 234.2 187.1 229.6C188.5 225 185.7 229.6 182 232.5C178.3 235.4 180.2 234.2 181.5 229.2C182.9 224.2 181.5 229.2 176 232.5C170.5 235.8 173.2 235.8 176 230.8C178.8 225.8 174.2 230.8 169.1 232.5C164 234.2 169.1 232.5 170.9 227.9C172.7 223.3 167.7 229.2 164 231.7C160.3 234.2 164 231.7 164.9 228.8C165.8 225.9 162.6 229.6 158.9 233.4C155.2 237.2 158.9 233.4 159.4 230.1C159.9 226.8 155.3 235.5 155.3 235.5C155.3 235.5 156.7 227.2 155.8 229.2C154.9 231.3 153.5 233 153.5 233" stroke="#3BCBBE" stroke-width="2" stroke-miterlimit="10" stroke-linecap="round" stroke-linejoin="round"/>
<path d="M175.7 243.3H153.1V266.8H175.7V243.3Z" stroke="#3BCBBE" stroke-width="2" stroke-miterlimit="10" stroke-linecap="round" stroke-linejoin="round"/>
<path d="M157.7 243.3L154 247.4L161.9 244.7L154 252L167 243.7L154 257.6L171.6 244.7L153.1 261.7L175.2 246.5L153.1 266.8L175.2 252L159.6 265.9L175.7 257.1L165.6 265.4L175.2 262.2L173.4 265.4" stroke="#3BCBBE" stroke-width="2" stroke-miterlimit="10" stroke-linecap="round" stroke-linejoin="round"/>
<path d="M195.2 315.2H177.9V333.2H195.2V315.2Z" stroke="#3BCBBE" stroke-width="2" stroke-miterlimit="10" stroke-linecap="round" stroke-linejoin="round"/>
<path d="M181.4 315.2L178.6 318.4L184.6 316.2L178.6 321.9L188.5 315.5L178.6 326.1L192 316.2L177.9 329.3L194.8 317.6L177.9 333.2L194.8 321.9L182.8 332.5L195.2 325.8L187.4 332.1L194.8 329.6L193.4 332.1" stroke="#3BCBBE" stroke-width="2" stroke-miterlimit="10" stroke-linecap="round" stroke-linejoin="round"/>
<path d="M152.7 275.5H196.9" stroke="#263238" stroke-width="2" stroke-miterlimit="10" stroke-linecap="round" stroke-linejoin="round"/>
<path d="M152.2 279.7L196 280.1" stroke="#263238" stroke-width="2" stroke-miterlimit="10" stroke-linecap="round" stroke-linejoin="round"/>
<path d="M180.3 244.7H194.6" stroke="#263238" stroke-width="2" stroke-miterlimit="10" stroke-linecap="round" stroke-linejoin="round"/>
<path d="M180.3 250.2H194.6" stroke="#263238" stroke-width="2" stroke-miterlimit="10" stroke-linecap="round" stroke-linejoin="round"/>
<path d="M180.3 255.7H194.6" stroke="#263238" stroke-width="2" stroke-miterlimit="10" stroke-linecap="round" stroke-linejoin="round"/>
<path d="M180.3 261.2H194.6" stroke="#263238" stroke-width="2" stroke-miterlimit="10" stroke-linecap="round" stroke-linejoin="round"/>
<path d="M196 282.5H153.1V303.2H196V282.5Z" stroke="#3BCBBE" stroke-width="2" stroke-miterlimit="10" stroke-linecap="round" stroke-linejoin="round"/>
<path d="M152.7 286.6L158.7 282.9L151.7 293.5L163.3 282.9L153.1 298.1L171.1 282.5L155.4 300.9L174.8 282.9L160 300.9L181.2 282.5L164.2 302.7L185.4 282.9L169.3 301.8L190.9 282.5L174.3 302.7L196 282.5L180.3 302.3L195.1 289.4L185.4 301.4L195.1 294.9L193.2 298L191.4 300.9" stroke="#3BCBBE" stroke-width="2" stroke-miterlimit="10" stroke-linecap="round" stroke-linejoin="round"/>
<path d="M155 308.7H194.6" stroke="#263238" stroke-width="2" stroke-miterlimit="10" stroke-linecap="round" stroke-linejoin="round"/>
<path d="M154 313.8H167" stroke="#263238" stroke-width="2" stroke-miterlimit="10" stroke-linecap="round" stroke-linejoin="round"/>
<path d="M203.8 229.9L235.5 226" stroke="#263238" stroke-width="2" stroke-miterlimit="10" stroke-linecap="round" stroke-linejoin="round"/>
<path d="M198.8 252.5H231.9" stroke="#263238" stroke-width="2" stroke-miterlimit="10" stroke-linecap="round" stroke-linejoin="round"/>
<path d="M146.2 294.4L131.9 299.5" stroke="#263238" stroke-width="2" stroke-miterlimit="10" stroke-linecap="round" stroke-linejoin="round"/>
<path d="M186.8 336.4C186.8 336.4 184 350.7 202.9 354.4" stroke="#263238" stroke-width="2" stroke-miterlimit="10" stroke-linecap="round" stroke-linejoin="round"/>
<path d="M200.1 350.7L204.7 354.8L198.3 356.7" stroke="#263238" stroke-width="2" stroke-miterlimit="10" stroke-linecap="round" stroke-linejoin="round"/>
<path d="M227.8 248.3L235.2 253L228.7 255.7" stroke="#263238" stroke-width="2" stroke-miterlimit="10" stroke-linecap="round" stroke-linejoin="round"/>
<path d="M229.5 224.6L237.3 225.6L231.8 230.6" stroke="#263238" stroke-width="2" stroke-miterlimit="10" stroke-linecap="round" stroke-linejoin="round"/>
<path d="M133.8 294.9L125.9 301.4L135.6 301.8" stroke="#263238" stroke-width="2" stroke-miterlimit="10" stroke-linecap="round" stroke-linejoin="round"/>
<path d="M255 248.3H237.5V266.7H255V248.3Z" fill="#3BCBBE"/>
<path d="M241.6 252.5L251.8 253" stroke="#263238" stroke-width="2" stroke-miterlimit="10" stroke-linecap="round" stroke-linejoin="round"/>
<path d="M241.6 256.2L251.8 256.6" stroke="#263238" stroke-width="2" stroke-miterlimit="10" stroke-linecap="round" stroke-linejoin="round"/>
<path d="M241.6 259.9L251.8 260.3" stroke="#263238" stroke-width="2" stroke-miterlimit="10" stroke-linecap="round" stroke-linejoin="round"/>
<path d="M227.059 273.244L209.68 275.293L211.835 293.567L229.214 291.517L227.059 273.244Z" fill="#3BCBBE"/>
<path d="M214.3 278.9L224.5 278.1" stroke="#263238" stroke-width="2" stroke-miterlimit="10" stroke-linecap="round" stroke-linejoin="round"/>
<path d="M214.8 282.5L224.9 281.8" stroke="#263238" stroke-width="2" stroke-miterlimit="10" stroke-linecap="round" stroke-linejoin="round"/>
<path d="M215.2 286.2L225.3 285.5" stroke="#263238" stroke-width="2" stroke-miterlimit="10" stroke-linecap="round" stroke-linejoin="round"/>
<path d="M136.256 304.542L118.876 306.591L121.031 324.864L138.41 322.815L136.256 304.542Z" fill="#3BCBBE"/>
<path d="M123.5 310.2L133.6 309.5" stroke="#263238" stroke-width="2" stroke-miterlimit="10" stroke-linecap="round" stroke-linejoin="round"/>
<path d="M124 313.9L134.1 313.2" stroke="#263238" stroke-width="2" stroke-miterlimit="10" stroke-linecap="round" stroke-linejoin="round"/>
<path d="M124.4 317.5L134.5 316.8" stroke="#263238" stroke-width="2" stroke-miterlimit="10" stroke-linecap="round" stroke-linejoin="round"/>
<path d="M226.818 342.878L209.416 341.028L207.471 359.325L224.873 361.175L226.818 342.878Z" fill="#3BCBBE"/>
<path d="M213.101 345.6L223.201 347.1" stroke="#263238" stroke-width="2" stroke-miterlimit="10" stroke-linecap="round" stroke-linejoin="round"/>
<path d="M212.8 349.3L222.8 350.8" stroke="#263238" stroke-width="2" stroke-miterlimit="10" stroke-linecap="round" stroke-linejoin="round"/>
<path d="M212.4 352.9L222.4 354.5" stroke="#263238" stroke-width="2" stroke-miterlimit="10" stroke-linecap="round" stroke-linejoin="round"/>
<path d="M354.3 374.9H108.7V381.2H354.3V374.9Z" fill="#263238" stroke="#263238" stroke-miterlimit="10" stroke-linecap="round" stroke-linejoin="round"/>
<path d="M452.9 419.9V408.2H417.6V419.9C417.6 423.7 416.3 427.4 413.9 430.4L412.4 432.3H458.3L456.8 430.4C454.3 427.5 452.9 423.8 452.9 419.9Z" fill="#263238" stroke="#263238" stroke-miterlimit="10" stroke-linecap="round" stroke-linejoin="round"/>
<path d="M450.9 419.9V408.2H415.6V419.9C415.6 423.7 414.3 427.4 411.9 430.4L410.4 432.3H456.3L454.8 430.4C452.3 427.5 450.9 423.8 450.9 419.9Z" fill="white" stroke="#263238" stroke-miterlimit="10" stroke-linecap="round" stroke-linejoin="round"/>
<path d="M451.2 411.5H415.8V415.1H451.2V411.5Z" fill="#263238"/>
<path d="M495.7 411.9H370.9C366.2 411.9 362.4 408.1 362.4 403.4V316.3C362.4 311.6 366.2 307.8 370.9 307.8H495.7C500.4 307.8 504.2 311.6 504.2 316.3V403.4C504.2 408.1 500.4 411.9 495.7 411.9Z" fill="#263238" stroke="#263238" stroke-miterlimit="10" stroke-linecap="round" stroke-linejoin="round"/>
<path d="M499.5 411.9H374.7C370 411.9 366.2 408.1 366.2 403.4V316.3C366.2 311.6 370 307.8 374.7 307.8H499.5C504.2 307.8 508 311.6 508 316.3V403.4C508 408.1 504.2 411.9 499.5 411.9Z" fill="#263238" stroke="#263238" stroke-miterlimit="10" stroke-linecap="round" stroke-linejoin="round"/>
<path d="M495.7 411.9H370.9C366.2 411.9 362.4 408.1 362.4 403.4V395.7H504.2V403.4C504.2 408.1 500.4 411.9 495.7 411.9Z" fill="white" stroke="#263238" stroke-miterlimit="10" stroke-linecap="round" stroke-linejoin="round"/>
<path d="M497.1 314.3H369.6V387.8H497.1V314.3Z" fill="white"/>
<path d="M413.9 379.8H388.8C387.1 379.8 385.8 378.4 385.8 376.8V325C385.8 323.3 387.2 322 388.8 322H413.9C415.6 322 416.9 323.4 416.9 325V376.8C417 378.5 415.6 379.8 413.9 379.8Z" fill="#263238"/>
<path d="M414.3 326.8H388.4V375H414.3V326.8Z" fill="#3BCBBE"/>
<path d="M448.6 327.6H425.1V330H448.6V327.6Z" fill="#263238"/>
<path d="M436.4 332.9H425.5V344.2H436.4V332.9Z" fill="#3BCBBE"/>
<path d="M447 367.7H441.1V373.8H447V367.7Z" fill="#3BCBBE"/>
<path d="M448 352.3H425.7V363.6H448V352.3Z" fill="#3BCBBE"/>
<path d="M438.4 333.7H447.3" stroke="#263238" stroke-miterlimit="10" stroke-linecap="round" stroke-linejoin="round"/>
<path d="M438.4 336.5H447.3" stroke="#263238" stroke-miterlimit="10" stroke-linecap="round" stroke-linejoin="round"/>
<path d="M438.4 339.4H447.3" stroke="#263238" stroke-miterlimit="10" stroke-linecap="round" stroke-linejoin="round"/>
<path d="M438.4 342.2H447.3" stroke="#263238" stroke-miterlimit="10" stroke-linecap="round" stroke-linejoin="round"/>
<path d="M426.1 348.7H447.6" stroke="#263238" stroke-miterlimit="10" stroke-linecap="round" stroke-linejoin="round"/>
<path d="M426.1 366.5H447.6" stroke="#263238" stroke-miterlimit="10" stroke-linecap="round" stroke-linejoin="round"/>
<path d="M450.5 325.2H423V376.2H450.5V325.2Z" stroke="#263238" stroke-miterlimit="10" stroke-linecap="round" stroke-linejoin="round"/>
<path d="M484.1 325.2H458.2V344.2H484.1V325.2Z" fill="#BFBFBF"/>
<path d="M484.1 325.2H458.2V329.2H484.1V325.2Z" fill="#263238"/>
<path d="M467.1 332.2H460.3V338.8H467.1V332.2Z" stroke="#263238" stroke-miterlimit="10" stroke-linecap="round" stroke-linejoin="round"/>
<path d="M480.6 332.2H473.8V338.8H480.6V332.2Z" stroke="#263238" stroke-miterlimit="10" stroke-linecap="round" stroke-linejoin="round"/>
<path d="M481.7 327.5C481.7 328 481.3 328.5 480.7 328.5C480.2 328.5 479.7 328.1 479.7 327.5C479.7 326.9 480.1 326.5 480.7 326.5C481.2 326.5 481.7 326.9 481.7 327.5Z" fill="white"/>
<path d="M476 328.5C476.552 328.5 477 328.052 477 327.5C477 326.948 476.552 326.5 476 326.5C475.447 326.5 475 326.948 475 327.5C475 328.052 475.447 328.5 476 328.5Z" fill="white"/>
<path d="M482 354.5H462.2V369.1H482V354.5Z" fill="#BFBFBF"/>
<path d="M482 354.5H462.2V357.6H482V354.5Z" fill="#263238"/>
<path d="M480.2 356.3C480.2 356.7 479.9 357.1 479.4 357.1C479 357.1 478.6 356.8 478.6 356.3C478.6 355.9 478.9 355.5 479.4 355.5C479.8 355.5 480.2 355.9 480.2 356.3Z" fill="white"/>
<path d="M476.6 356.3C476.6 356.7 476.299 357.1 475.799 357.1C475.399 357.1 475 356.8 475 356.3C475 355.9 475.299 355.5 475.799 355.5C476.199 355.5 476.6 355.9 476.6 356.3Z" fill="white"/>
<path d="M382 318.1H373.7V383.4H382V318.1Z" fill="#BFBFBF"/>
<path d="M382 318.1H373.7V321.1H382V318.1Z" fill="#263238"/>
<path d="M379.7 323.1H375.7V327.8H379.7V323.1Z" stroke="#263238" stroke-miterlimit="10" stroke-linecap="round" stroke-linejoin="round"/>
<path d="M379.7 330.8H375.7V335.5H379.7V330.8Z" stroke="#263238" stroke-miterlimit="10" stroke-linecap="round" stroke-linejoin="round"/>
<path d="M379.7 338.5H375.7V343.2H379.7V338.5Z" stroke="#263238" stroke-miterlimit="10" stroke-linecap="round" stroke-linejoin="round"/>
<path d="M379.7 346.1H375.7V350.8H379.7V346.1Z" stroke="#263238" stroke-miterlimit="10" stroke-linecap="round" stroke-linejoin="round"/>
<path d="M379.7 353.8H375.7V358.5H379.7V353.8Z" stroke="#263238" stroke-miterlimit="10" stroke-linecap="round" stroke-linejoin="round"/>
<path d="M379.7 361.5H375.7V366.2H379.7V361.5Z" stroke="#263238" stroke-miterlimit="10" stroke-linecap="round" stroke-linejoin="round"/>
<path d="M379.7 369.1H375.7V373.8H379.7V369.1Z" stroke="#263238" stroke-miterlimit="10" stroke-linecap="round" stroke-linejoin="round"/>
<path d="M379.7 376.8H375.7V381.5H379.7V376.8Z" stroke="#263238" stroke-miterlimit="10" stroke-linecap="round" stroke-linejoin="round"/>
<path d="M493.4 317.5H387.4V320.2H493.4V317.5Z" fill="#BFBFBF"/>
<path d="M493.4 382.1H387.4V384.8H493.4V382.1Z" fill="#BFBFBF"/>
<path d="M456.3 432.4H410.4V434.5H456.3V432.4Z" fill="#263238" stroke="#263238" stroke-miterlimit="10" stroke-linecap="round" stroke-linejoin="round"/>
<path d="M486.2 430.7H379.7V434.5H486.2V430.7Z" fill="white" stroke="#263238" stroke-miterlimit="10" stroke-linecap="round" stroke-linejoin="round"/>
<path d="M284.3 579H280L277.8 446.3H286.5L284.3 579Z" fill="white" stroke="#263238" stroke-miterlimit="10" stroke-linecap="round" stroke-linejoin="round"/>
<path d="M284.3 579H282.4L282.7 446.3H286.5L284.3 579Z" fill="#263238" stroke="#263238" stroke-miterlimit="10" stroke-linecap="round" stroke-linejoin="round"/>
<path d="M346.1 579H341.7L339.6 446.3H348.2L346.1 579Z" fill="white" stroke="#263238" stroke-miterlimit="10" stroke-linecap="round" stroke-linejoin="round"/>
<path d="M346.1 579H344.2L344.4 446.3H348.2L346.1 579Z" fill="#263238" stroke="#263238" stroke-miterlimit="10" stroke-linecap="round" stroke-linejoin="round"/>
<path d="M324 579H319.6L317.5 446.3H326.1L324 579Z" fill="#263238" stroke="#263238" stroke-miterlimit="10" stroke-linecap="round" stroke-linejoin="round"/>
<path d="M324 579H322.1L322.3 446.3H326.1L324 579Z" fill="#263238" stroke="#263238" stroke-miterlimit="10" stroke-linecap="round" stroke-linejoin="round"/>
<path d="M365.7 579H361.3L359.2 446.3H367.8L365.7 579Z" fill="#263238" stroke="#263238" stroke-miterlimit="10" stroke-linecap="round" stroke-linejoin="round"/>
<path d="M365.7 579H363.8L364 446.3H367.8L365.7 579Z" fill="#263238" stroke="#263238" stroke-miterlimit="10" stroke-linecap="round" stroke-linejoin="round"/>
<path d="M368.9 448.4H300.9V531.4H368.9V448.4Z" fill="#263238" stroke="#263238" stroke-miterlimit="10" stroke-linecap="round" stroke-linejoin="round"/>
<path d="M350.2 448.4H282.2V531.4H350.2V448.4Z" fill="white" stroke="#263238" stroke-miterlimit="10" stroke-linecap="round" stroke-linejoin="round"/>
<path d="M487.5 579H483.1L481 446.3H489.6L487.5 579Z" fill="white" stroke="#263238" stroke-miterlimit="10" stroke-linecap="round" stroke-linejoin="round"/>
<path d="M487.5 579H485.6L485.8 446.3H489.6L487.5 579Z" fill="#263238" stroke="#263238" stroke-miterlimit="10" stroke-linecap="round" stroke-linejoin="round"/>
<path d="M527.1 579H522.8L520.6 446.3H529.3L527.1 579Z" fill="#263238" stroke="#263238" stroke-miterlimit="10" stroke-linecap="round" stroke-linejoin="round"/>
<path d="M527.1 579H525.2L525.4 446.3H529.3L527.1 579Z" fill="#263238" stroke="#263238" stroke-miterlimit="10" stroke-linecap="round" stroke-linejoin="round"/>
<path d="M532 441.3H272.1V450.4H532V441.3Z" fill="white" stroke="#263238" stroke-miterlimit="10" stroke-linecap="round" stroke-linejoin="round"/>
<path d="M532 441.3H272.1V445.9H532V441.3Z" fill="#263238" stroke="#263238" stroke-miterlimit="10" stroke-linecap="round" stroke-linejoin="round"/>
<path d="M532 441.3H493.6V450.4H532V441.3Z" fill="#263238" stroke="#263238" stroke-miterlimit="10" stroke-linecap="round" stroke-linejoin="round"/>
<path d="M540.4 434H265.1V443.1H540.4V434Z" fill="white" stroke="#263238" stroke-miterlimit="10" stroke-linecap="round" stroke-linejoin="round"/>
<path d="M540.4 434H502V443.1H540.4V434Z" fill="#263238" stroke="#263238" stroke-miterlimit="10" stroke-linecap="round" stroke-linejoin="round"/>
<path d="M346 456.3H286.5V485.3H346V456.3Z" fill="white" stroke="#263238" stroke-miterlimit="10" stroke-linecap="round" stroke-linejoin="round"/>
<path d="M322.8 467.8H309.8V472.3H322.8V467.8Z" fill="#263238" stroke="#263238" stroke-miterlimit="10" stroke-linecap="round" stroke-linejoin="round"/>
<path d="M346 492.8H286.5V521.8H346V492.8Z" fill="white" stroke="#263238" stroke-miterlimit="10" stroke-linecap="round" stroke-linejoin="round"/>
<path d="M322.8 504.3H309.8V508.8H322.8V504.3Z" fill="#263238" stroke="#263238" stroke-miterlimit="10" stroke-linecap="round" stroke-linejoin="round"/>
<path d="M437.572 501.478H455.372V465.678H437.572V501.478Z" fill="#263238"/>
<path d="M442.072 538.261H450.972V488.761H442.072V538.261Z" fill="#263238"/>
<path d="M450.1 534.5C450.1 534.5 457.6 543 476.8 545.9C486.9 547.5 497.5 549.4 506.7 554.3C512.6 557.4 524.3 564.2 524.3 572C524.3 575.9 521.2 579 517.3 579C513.4 579 510.3 575.9 510.3 572C510.3 570.2 511 568.5 512.2 567.2C511.2 565.6 504.9 556.1 491.5 553.1C476.9 549.9 466.2 551.2 445.7 537.6L450.1 534.5Z" fill="#263238"/>
<path d="M443.7 534.5C443.7 534.5 436.2 543 417 545.9C406.9 547.5 396.3 549.4 387.1 554.3C381.2 557.4 369.5 564.2 369.5 572C369.5 575.9 372.6 579 376.5 579C380.4 579 383.5 575.9 383.5 572C383.5 570.2 382.8 568.5 381.6 567.2C382.6 565.6 388.9 556.1 402.3 553.1C416.9 549.9 427.6 551.2 448.1 537.6L443.7 534.5Z" fill="#263238"/>
<path d="M443.4 565.9H450.1C450.5 565.9 450.8 566.2 450.8 566.6V578.4C450.8 578.8 450.5 579.1 450.1 579.1H443.4C443 579.1 442.7 578.8 442.7 578.4V566.6C442.8 566.2 443.1 565.9 443.4 565.9Z" fill="#263238"/>
<path d="M444.907 578.966H448.707V535.666H444.907V578.966Z" fill="#263238"/>
<path d="M489.5 362.5C487.4 373.7 485.9 386 485.5 398.4C485.2 407.7 485.1 415.6 484.9 422.6C484.5 444.4 484.2 456.5 480.8 459.7C480.4 460 477.5 461.7 471.6 462.2C469.9 462.3 464.7 462.4 457.5 462.4C434.7 462.3 410.8 462.1 410.4 462.1H409C408.9 462.2 408.9 462.2 408.8 462.3C395.1 462.2 391.6 462.1 391.4 462.1H390C387.1 464.6 388.8 467.8 391.3 467.8C393.2 467.8 425.8 468.1 448.1 468.1C452 468.1 455.8 468.1 459 468.1C464.4 468.1 469.6 468.1 474.1 468.1C485.8 468.1 495.4 468 498.1 467.8C506.3 467.1 510 464.3 510.4 464C515.9 459.1 516.1 448.4 516.6 422.5C516.7 415.5 516.9 407.6 517.2 398.3C517.6 385.9 519.2 373.5 521.3 362.3H489.5V362.5Z" fill="#263238"/>
<path d="M312.8 549.2L315 561C315 561 313 565.2 305.2 568.8C297.4 572.4 293.7 573.8 293.7 574.8C293.7 575.8 293.2 578 295.2 578.8C297.2 579.6 339.7 578.8 339.7 578.8C339.7 578.8 341.9 577.8 341.9 573C341.9 568.2 339.9 559.5 339.9 557.5C339.9 555.5 338.5 550.7 338.5 550C338.5 549.3 321.4 550.2 321.4 550.2C321.4 550.2 316.5 545.4 312.8 549.2Z" fill="white" stroke="#263238" stroke-miterlimit="10" stroke-linecap="round" stroke-linejoin="round"/>
<path d="M321.5 550.2C321.5 550.2 322.7 561.4 323.5 562.2C324.3 563 340 563 340 563" fill="white"/>
<path d="M321.5 550.2C321.5 550.2 322.7 561.4 323.5 562.2C324.3 563 340 563 340 563" stroke="#263238" stroke-miterlimit="10" stroke-linecap="round" stroke-linejoin="round"/>
<path d="M340 557.4L322.5 557.7" stroke="#263238" stroke-miterlimit="10" stroke-linecap="round" stroke-linejoin="round"/>
<path d="M344 408.3C344 408.3 330.1 455 328.4 461.4C326.7 467.8 336.5 524.3 336.5 525.3C336.5 526.3 337.9 529.4 337.9 532.7C337.9 536 336.5 537.1 337.2 538.1C337.9 539.1 340.2 541.5 339.9 543.5C339.6 545.5 339.2 546.2 337.9 547.6C336.5 549 335.2 549.3 335.2 549.3H327.1C327.1 549.3 325.1 534.1 319.7 493.8C314.3 453.6 323.1 430.6 324.8 423.1C326.5 415.7 329.9 409.2 329.9 409.2L344 408.3Z" fill="#263238" stroke="#263238" stroke-miterlimit="10" stroke-linecap="round" stroke-linejoin="round"/>
<path d="M301.2 549.2L303.4 561C303.4 561 301.4 565.2 293.6 568.8C285.8 572.4 282.1 573.8 282.1 574.8C282.1 575.8 281.6 578 283.6 578.8C285.6 579.6 328.1 578.8 328.1 578.8C328.1 578.8 330.3 577.8 330.3 573C330.3 568.2 328.3 559.5 328.3 557.5C328.3 555.5 326.9 550.7 326.9 550C326.9 549.3 309.8 550.2 309.8 550.2C309.8 550.2 305 545.4 301.2 549.2Z" fill="white" stroke="#263238" stroke-miterlimit="10" stroke-linecap="round" stroke-linejoin="round"/>
<path d="M310 550.2C310 550.2 311.2 561.4 312 562.2C312.8 563 328.5 563 328.5 563" fill="white"/>
<path d="M310 550.2C310 550.2 311.2 561.4 312 562.2C312.8 563 328.5 563 328.5 563" stroke="#263238" stroke-miterlimit="10" stroke-linecap="round" stroke-linejoin="round"/>
<path d="M328.5 557.4L311 557.7" stroke="#263238" stroke-miterlimit="10" stroke-linecap="round" stroke-linejoin="round"/>
<path d="M288.2 408.3C288.2 408.3 287.9 437.7 289.6 450.2C291.3 462.7 297.7 491.8 298.7 507.7C299.7 523.6 301.4 531 301.4 531C301.4 531 299 533 299 535.1C299 537.1 300.4 537.1 300 540.2C299.7 543.2 298.3 544.3 299.3 545.6C300.3 547 301 549.7 304.4 550.3C307.8 551 323.7 550.6 327.1 550C330.5 549.3 332.2 545.9 332.2 543.2C332.2 540.5 331.2 538.5 331.2 535.4C331.2 532.3 332.9 529.7 332.9 527.6C332.9 525.6 332.2 524.6 332.2 522.5C332.2 520.5 327.8 488 327.8 481.3C327.8 474.5 327.5 451.5 328.5 445.8C329.5 440.1 334.6 412.7 334.6 412.7L288.2 408.3Z" fill="#3BCBBE" stroke="#263238" stroke-miterlimit="10" stroke-linecap="round" stroke-linejoin="round"/>
<path d="M309.6 418.2C309.6 418.2 315.4 420.3 322 420.6C328.7 420.9 331.7 421.5 331.7 421.5L333.5 413L309.6 418.2Z" fill="#263238" stroke="#263238" stroke-miterlimit="10" stroke-linecap="round" stroke-linejoin="round"/>
<path d="M305.9 419.6C305.9 419.6 307.6 466.1 310.9 481.6C314.2 497.1 318.6 522.5 317.5 525.9C316.4 529.2 314.7 537 314.7 537C314.7 537 320.8 535.9 320.8 539.2C320.8 542.5 311.9 544.7 314.2 546.4C316.4 548.1 318.6 549.9 318.6 549.9" stroke="#263238" stroke-miterlimit="10" stroke-linecap="round" stroke-linejoin="round"/>
<path d="M325.6 538.4C325.6 538.4 307.2 541.4 312.4 542.4C317.6 543.4 327.5 542.2 328 540.9C328.6 539.6 327.1 538.1 325.6 538.4Z" fill="#263238" stroke="#263238" stroke-miterlimit="10" stroke-linecap="round" stroke-linejoin="round"/>
<path d="M244.5 217.2L244 237.9L263.6 237.7L263.8 217L244.5 217.2Z" fill="#3BCBBE"/>
<path d="M266.8 255.5C266.8 255.5 262.6 251.3 260.7 247.4C258.8 243.5 256.1 241.2 256.1 238.5C256.1 235.8 257.3 229.6 256.8 227C256.3 224.4 256.8 219.2 258.5 219.2C260.2 219.2 261.4 220.7 261 222.4C260.7 224.1 262 230 262 230C262 230 263.4 218.7 263.5 218C263.7 217.3 266 217.3 267 217.8C268 218.3 269.2 218.1 269.2 220.3C269.2 222.5 268.7 225 268.7 225.5C268.7 226 273.4 228.7 273.6 230.7C273.8 232.7 273.3 237.6 272.1 239.6C270.9 241.6 270.2 243 270.1 243.7C269.9 244.4 274.7 251.5 274.7 251.5L266.8 255.5Z" fill="white" stroke="#263238" stroke-miterlimit="10" stroke-linecap="round" stroke-linejoin="round"/>
<path d="M274.7 248.3L263.2 257.1C263.2 257.1 282.8 297.7 283.5 299C284.2 300.4 298.4 309.1 298.4 309.1L319.7 282.7C319.7 282.7 293 274.2 292.3 273.2C291.6 272.3 274.7 248.3 274.7 248.3Z" fill="#263238" stroke="#263238" stroke-miterlimit="10" stroke-linecap="round" stroke-linejoin="round"/>
<path d="M288.2 397.4L287.2 413.2C287.2 413.2 300.2 418.7 314.2 418.4C328.2 418.1 347 412.6 347 412.6L349.8 397.1C349.8 397.1 316 399.9 305.8 398.9C295.6 397.9 288.2 397.4 288.2 397.4Z" fill="white" stroke="#263238" stroke-miterlimit="10" stroke-linecap="round" stroke-linejoin="round"/>
<path d="M278.2 392.4L277.4 396.9C277.4 396.9 288 402.7 311.4 404.9C335.2 407.1 354.2 400.4 354.2 400.4L354.4 392.6C354.4 392.6 335.9 397.4 316.4 397.1C296.9 396.8 278.2 392.4 278.2 392.4Z" fill="#263238" stroke="#263238" stroke-miterlimit="10" stroke-linecap="round" stroke-linejoin="round"/>
<path d="M297.2 299.4C297.2 299.4 289 313.9 286.2 325.2C283.4 336.5 278 388.4 277.2 391.4C276.4 394.4 294 400.4 305.4 400.6C316.8 400.8 342.6 401.4 347.2 399.6C351.8 397.8 356 395.4 356 392.6C356 389.8 356.2 379.6 356.2 371.4C356.2 363.2 353.7 319.7 351.4 309.7C349.1 299.7 347.6 292.7 346.9 291.5C346.2 290.3 340.7 284.3 329.4 285C318.1 285.7 308.6 290 304.4 292.5C300.2 295 297.2 299.4 297.2 299.4Z" fill="#263238" stroke="#263238" stroke-miterlimit="10" stroke-linecap="round" stroke-linejoin="round"/>
<path d="M221.9 315.6C221.9 315.6 217.8 317.3 217.5 321.3C217.2 325.4 224.6 329.4 229 335.5C233.4 341.6 239.1 348 239.1 348L247.9 360.2L258.4 351.4L231.4 320C231.4 320 232.8 317 231.1 315.9C229.3 314.9 224.9 314.2 221.9 315.6Z" fill="white" stroke="#263238" stroke-miterlimit="10" stroke-linecap="round" stroke-linejoin="round"/>
<path d="M222.5 325L252.9 314.9C252.9 314.9 254.9 323.4 264.1 332.1C273.2 340.9 281.7 346.6 281.7 346.6L254.3 362.2L222.5 325Z" fill="white" stroke="#263238" stroke-miterlimit="10" stroke-linecap="round" stroke-linejoin="round"/>
<path d="M222.5 325C222.5 325 224.5 323 224.9 319.6C225.2 316.2 221.9 315.5 221.9 315.5L252 306.7C252 306.7 257.7 308.7 253 314.8L222.5 325Z" fill="white" stroke="#263238" stroke-miterlimit="10" stroke-linecap="round" stroke-linejoin="round"/>
<path d="M262.9 357.2C262.9 357.2 256.1 356.2 255.8 354.2C255.5 352.2 254.1 347.8 252.8 346.1C251.4 344.4 245 341 243 338.7C241 336.3 239.6 333 238.3 333.3C236.9 333.6 234.9 335 235.6 336.3C236.3 337.7 239.3 343.4 239.3 343.4L240 345.8C240 345.8 233.9 344.8 232.9 344.4C231.9 344.1 230.5 344.7 230.5 346.4C230.5 348.1 229.1 348.1 230.8 349.1C232.5 350.1 234.5 351.5 234.5 351.5C234.5 351.5 236.9 356.9 237.5 357.9C238.2 358.9 243.6 361.3 244.6 362C245.6 362.7 251 364.4 253.7 365C256.4 365.7 262.5 368 262.5 368L264.2 360.2L262.9 357.2Z" fill="white" stroke="#263238" stroke-miterlimit="10" stroke-linecap="round" stroke-linejoin="round"/>
<path d="M334.5 310.5C334.5 310.5 333.8 339.2 333.8 340.6C333.8 342 334.8 369.7 331.8 372C328.8 374.4 313.9 377.4 292.2 376.7C270.6 376 261.1 371.3 261.1 371.3L262.8 357.1L304 354.1C304 354.1 299.6 322.7 300.3 311.8C301 301 309.8 295.2 309.8 295.2" fill="#263238"/>
<path d="M334.5 310.5C334.5 310.5 333.8 339.2 333.8 340.6C333.8 342 334.8 369.7 331.8 372C328.8 374.4 313.9 377.4 292.2 376.7C270.6 376 261.1 371.3 261.1 371.3L262.8 357.1L304 354.1C304 354.1 299.6 322.7 300.3 311.8C301 301 309.8 295.2 309.8 295.2" stroke="#263238" stroke-miterlimit="10" stroke-linecap="round" stroke-linejoin="round"/>
<path d="M289 378.1C289 378.1 329.9 379.5 332.1 374.5C334.3 369.5 334.3 319.9 334.3 319.9" stroke="#707070" stroke-miterlimit="10" stroke-linecap="round" stroke-linejoin="round"/>
<path d="M307 301.2C307 301.2 298.4 310.5 299.8 322.8C301.2 335 304.1 354.2 304.1 354.2L288.3 355.1" stroke="#707070" stroke-miterlimit="10" stroke-linecap="round" stroke-linejoin="round"/>
<path d="M289.5 223.1C289.5 223.1 283.8 232.9 284.9 234.2C286 235.5 285.1 237.9 285.1 237.9C285.1 237.9 279.4 242.3 279.9 243.8C280.3 245.3 284.9 249.5 284.9 249.5C284.9 249.5 285.8 261.3 286.9 262.4C288 263.5 295.4 264.8 296.9 265C298.4 265.2 299.3 265.7 299.3 265.7L303.7 289.2L328.1 267.2L324.2 256.7C324.2 256.7 322 242.8 322.2 236.2C322.4 229.7 311.1 221.8 304.3 219.9C297.6 217.9 289.5 223.1 289.5 223.1Z" fill="white" stroke="#263238" stroke-miterlimit="10" stroke-linecap="round" stroke-linejoin="round"/>
<path d="M294.1 209.8C294.1 209.8 288.4 203.9 281.7 208.5C274.9 213.1 276.9 220.5 283 223.1C289.1 225.7 296.3 223.8 293.9 226.4C291.5 229 290.8 234.7 294.6 235.8C298.3 236.9 297.7 241 297.7 242.8C297.7 244.6 300.8 244.3 301.4 242.8C302.1 241.3 303.8 237.1 307.9 238.9C312 240.7 311.8 250.2 310.3 252.6C308.8 255 307.2 254.8 307.2 254.8C307.2 254.8 309.6 255.7 308.1 258.5C306.6 261.3 306.6 261.3 306.6 261.3C306.6 261.3 310.1 265.4 318.8 263.9C327.5 262.4 329.5 258.5 328.2 255.2C326.9 251.9 323.8 251.5 327.1 246.7C330.4 241.9 338.4 236.2 337.8 225.3C337.4 218.1 320.4 211.4 320.4 211.4C320.4 211.4 324.3 204.9 315.4 200.7C306.5 196.6 296.2 201.4 296.9 205.7C297.4 210 294.1 209.8 294.1 209.8Z" fill="#263238" stroke="#263238" stroke-miterlimit="10" stroke-linecap="round" stroke-linejoin="round"/>
<path d="M284.9 233.4C284.9 233.4 282.1 232.7 281.9 234C281.7 235.3 281.9 241.8 281.9 241.8C281.9 241.8 283.6 242.9 285.2 242.5C286.7 242.1 285.9 236.6 285.9 236.6" stroke="#263238" stroke-miterlimit="10" stroke-linecap="round" stroke-linejoin="round"/>
<path d="M302.2 240.8L282.1 237.5V236.2L302.2 240.8Z" fill="#263238" stroke="#263238" stroke-miterlimit="10" stroke-linecap="round" stroke-linejoin="round"/>
<path d="M330.9 260.4C330.9 260.4 319.8 268.5 312.2 276.7C304.6 285 295.4 294.1 295 297C294.6 299.8 295.4 304.2 299.8 299.6C304.2 295 312.2 288.9 318.3 288.5C324.4 288.1 333.8 291.1 338.6 291.8C343.4 292.5 346.4 293.8 348.2 291.1C349.9 288.5 345.4 282.6 345.4 279.5C345.4 276.4 346.1 271.2 343.9 267.5C341.6 263.9 334.6 259.3 330.9 260.4Z" fill="#757575" stroke="#263238" stroke-miterlimit="10" stroke-linecap="round" stroke-linejoin="round"/>
<path d="M345.2 271.2C345.2 271.2 343.9 275.4 342.7 277.3C341.4 279.2 323.6 282.8 323.6 282.8C323.6 282.8 338.3 282 341 282C343.7 282 346.9 284.5 346.9 284.5L345.4 280.5C345.4 280.4 346 273.1 345.2 271.2Z" fill="#263238" stroke="#263238" stroke-miterlimit="10" stroke-linecap="round" stroke-linejoin="round"/>
</g>
<defs>
<filter id="filter0_f_32_2303" x="-67" y="-61" width="763.562" height="763.562" filterUnits="userSpaceOnUse" color-interpolation-filters="sRGB">
<feFlood flood-opacity="0" result="BackgroundImageFix"/>
<feBlend mode="normal" in="SourceGraphic" in2="BackgroundImageFix" result="shape"/>
<feGaussianBlur stdDeviation="100" result="effect1_foregroundBlur_32_2303"/>
</filter>
<clipPath id="clip0_32_2303">
<rect width="630" height="576" fill="white"/>
</clipPath>
</defs>
</svg>
