<svg width="630" height="576" viewBox="0 0 630 576" fill="none" xmlns="http://www.w3.org/2000/svg">
<g clip-path="url(#clip0_32_1158)">
<path d="M190.72 272.2H158.8V313.36H114.56V272.2H9V241.68L101.4 117.36H149L63.32 235.24H115.96V198.56H158.8V235.24H190.72V272.2Z" fill="#3BCBBE"/>
<path d="M288.287 316.72C272.047 316.72 257.58 312.707 244.887 304.68C232.194 296.653 222.207 285.08 214.927 269.96C207.834 254.653 204.287 236.453 204.287 215.36C204.287 194.267 207.834 176.16 214.927 161.04C222.207 145.733 232.194 134.067 244.887 126.04C257.58 118.013 272.047 114 288.287 114C304.527 114 318.994 118.013 331.687 126.04C344.38 134.067 354.274 145.733 361.367 161.04C368.647 176.16 372.287 194.267 372.287 215.36C372.287 236.453 368.647 254.653 361.367 269.96C354.274 285.08 344.38 296.653 331.687 304.68C318.994 312.707 304.527 316.72 288.287 316.72ZM288.287 278.36C300.234 278.36 309.567 273.227 316.287 262.96C323.194 252.693 326.647 236.827 326.647 215.36C326.647 193.893 323.194 178.027 316.287 167.76C309.567 157.493 300.234 152.36 288.287 152.36C276.527 152.36 267.194 157.493 260.287 167.76C253.567 178.027 250.207 193.893 250.207 215.36C250.207 236.827 253.567 252.693 260.287 262.96C267.194 273.227 276.527 278.36 288.287 278.36Z" fill="#3BCBBE"/>
<path d="M439.686 223.2C425.313 223.2 413.553 218.347 404.406 208.64C395.446 198.747 390.966 185.587 390.966 169.16C390.966 152.733 395.446 139.667 404.406 129.96C413.553 120.067 425.313 115.12 439.686 115.12C454.059 115.12 465.726 120.067 474.686 129.96C483.646 139.667 488.126 152.733 488.126 169.16C488.126 185.587 483.646 198.747 474.686 208.64C465.726 218.347 454.059 223.2 439.686 223.2ZM556.446 117.36H589.766L455.926 313.36H422.606L556.446 117.36ZM439.686 200.24C446.033 200.24 450.979 197.627 454.526 192.4C458.259 187.173 460.126 179.427 460.126 169.16C460.126 158.893 458.259 151.147 454.526 145.92C450.979 140.693 446.033 138.08 439.686 138.08C433.526 138.08 428.579 140.787 424.846 146.2C421.113 151.427 419.246 159.08 419.246 169.16C419.246 179.24 421.113 186.987 424.846 192.4C428.579 197.627 433.526 200.24 439.686 200.24ZM572.686 315.6C563.353 315.6 554.953 313.453 547.486 309.16C540.206 304.68 534.513 298.333 530.406 290.12C526.299 281.907 524.246 272.387 524.246 261.56C524.246 250.733 526.299 241.213 530.406 233C534.513 224.787 540.206 218.533 547.486 214.24C554.953 209.76 563.353 207.52 572.686 207.52C587.059 207.52 598.726 212.467 607.686 222.36C616.833 232.067 621.406 245.133 621.406 261.56C621.406 277.987 616.833 291.147 607.686 301.04C598.726 310.747 587.059 315.6 572.686 315.6ZM572.686 292.64C579.033 292.64 583.979 290.027 587.526 284.8C591.259 279.387 593.126 271.64 593.126 261.56C593.126 251.48 591.259 243.827 587.526 238.6C583.979 233.187 579.033 230.48 572.686 230.48C566.526 230.48 561.579 233.093 557.846 238.32C554.113 243.547 552.246 251.293 552.246 261.56C552.246 271.827 554.113 279.573 557.846 284.8C561.579 290.027 566.526 292.64 572.686 292.64Z" fill="#3BCBBE"/>
<g filter="url(#filter0_f_32_1158)">
<circle cx="314.781" cy="320.781" r="181.781" fill="#3BCBBE" fill-opacity="0.37"/>
</g>
<path d="M529.7 370.8C529.7 380.4 528.7 390 526.4 399.3C525.6 402.4 524.7 405.4 523.7 408.4C523.4 409.3 523.1 410.1 522.8 411C522.5 411.7 522.3 412.4 522 413.1C521.9 413.3 521.9 413.5 521.8 413.7C521.5 414.4 521.2 415.1 520.9 415.8C520.9 415.9 520.8 416 520.8 416.2C520.5 416.9 520.2 417.6 519.9 418.3C519.8 418.6 519.6 418.9 519.5 419.2C519.2 419.8 518.9 420.4 518.6 421C518.3 421.7 518 422.3 517.6 422.9C517.5 423.1 517.4 423.4 517.2 423.6C516.9 424.1 516.6 424.7 516.3 425.2C516.1 425.6 515.8 426.1 515.6 426.5C514.5 428.5 513.4 430.4 512.3 432.3C511.8 433.1 511.4 433.9 510.9 434.6C510.8 434.8 510.7 435 510.5 435.2C509.9 436.1 509.4 437 508.8 437.8C508.3 438.5 507.9 439.2 507.4 439.9C507 440.5 506.6 441.1 506.1 441.8C506 441.9 505.9 442.1 505.8 442.2C505.4 442.8 504.9 443.5 504.5 444.1C503.9 444.9 503.4 445.7 502.8 446.4C502.7 446.6 502.6 446.7 502.4 446.9C501.8 447.8 501.1 448.7 500.4 449.5C500 450 499.6 450.5 499.2 451.1C498.5 452 497.7 453 497 453.9C496.3 454.8 495.6 455.7 494.8 456.6C494.7 456.7 494.6 456.8 494.6 456.9C493.9 457.8 493.2 458.7 492.4 459.5C492.2 459.8 492 460 491.7 460.3C491 461.1 490.3 461.9 489.7 462.7C487.7 465 485.8 467.3 483.8 469.6C479.8 474.3 475.6 478.9 471.4 483.5C467.9 487.3 464.3 491.1 460.7 494.8C443.3 512.7 424.4 529.4 403.9 542.7C401.4 544.3 398.8 546 396.2 547.5C395.3 548.1 394.3 548.6 393.4 549.2C393.2 549.3 393.1 549.4 392.9 549.5C391.9 550.1 390.9 550.6 390 551.1C389 551.7 388 552.2 387 552.7C386.5 552.9 386.1 553.2 385.6 553.4C383.6 554.4 381.6 555.4 379.6 556.4C378.5 556.9 377.4 557.4 376.3 557.9C375.3 558.4 374.3 558.8 373.3 559.3C372.9 559.5 372.5 559.7 372.1 559.8C371.2 560.2 370.2 560.6 369.3 561C367.5 561.7 365.7 562.4 363.8 563.1C363.1 563.4 362.4 563.6 361.7 563.9C361.3 564 360.9 564.2 360.5 564.3C359.8 564.5 359.2 564.7 358.5 564.9C357.9 565.1 357.4 565.3 356.8 565.4C356.8 565.4 356.8 565.4 356.7 565.4C355.6 565.8 354.4 566.1 353.3 566.4C351.5 566.9 349.7 567.4 347.9 567.9C346.7 568.2 345.5 568.5 344.3 568.8C343.2 569.1 342 569.3 340.9 569.5C340.8 569.5 340.7 569.5 340.6 569.5C339.4 569.7 338.2 570 337 570.2C336.4 570.3 335.8 570.4 335.2 570.5C334.6 570.6 334 570.7 333.4 570.8C332.9 570.9 332.3 571 331.7 571C331 571.1 330.3 571.2 329.7 571.3C322.6 572.2 315.5 572.6 308.3 572.5C307.9 572.5 307.4 572.5 307 572.5C300.5 572.4 294.1 571.9 287.6 571.1C287.1 571 286.7 571 286.2 570.9C285.4 570.8 284.6 570.7 283.8 570.6C283.2 570.5 282.5 570.4 281.9 570.3C279.2 569.9 276.6 569.4 273.9 568.9C273.3 568.8 272.7 568.7 272.1 568.5C270.3 568.1 268.5 567.7 266.8 567.3C265.6 567 264.4 566.7 263.2 566.4C262.6 566.3 262 566.1 261.4 565.9C260.8 565.8 260.2 565.6 259.6 565.4C257.2 564.8 254.9 564.1 252.6 563.4C249.9 562.6 247.2 561.7 244.5 560.8C243.5 560.5 242.6 560.1 241.6 559.8C238.6 558.7 235.6 557.6 232.6 556.4C232.1 556.2 231.5 556 231 555.7C230.6 555.5 230.1 555.3 229.7 555.1C229.4 555 229.1 554.8 228.8 554.7C226.9 553.8 224.7 552.8 222.5 551.6C222.1 551.4 221.7 551.2 221.3 551C219.9 550.3 218.5 549.5 217 548.7C213.9 547 210.5 545.1 207 543C167 519.5 105.7 475.3 91.4001 458.5C90.7001 457.6 90.0001 456.8 89.2001 455.9C88.7001 455.2 88.1001 454.5 87.6001 453.8C87.1001 453.2 86.6001 452.5 86.2001 451.9C85.8001 451.3 85.4001 450.8 85.0001 450.2C84.6001 449.7 84.2001 449.1 83.9001 448.6C83.9001 448.6 83.9001 448.5 83.8001 448.5C83.3001 447.8 82.9001 447.2 82.5001 446.5C82.1001 445.9 81.7001 445.2 81.3001 444.5C81.1001 444.2 80.9001 443.9 80.7001 443.6C80.2001 442.9 79.8001 442.1 79.4001 441.4C78.9001 440.6 78.5001 439.8 78.0001 438.9C77.2001 437.5 76.5001 436 75.8001 434.5C75.6001 434.1 75.4001 433.7 75.3001 433.4C73.9001 430.4 72.6001 427.3 71.6001 424.1C71.2001 423 70.9001 421.9 70.5001 420.8C70.1001 419.4 69.7001 417.9 69.3001 416.5C69.2001 416.2 69.2001 415.9 69.1001 415.6C68.9001 414.8 68.7001 414.1 68.6001 413.3C68.4001 412.2 68.2001 411.2 68.0001 410.1C68.0001 409.8 67.9001 409.6 67.9001 409.3C67.8001 408.8 67.7001 408.2 67.7001 407.6C67.6001 406.9 67.5001 406.3 67.5001 405.6C67.5001 405.4 67.4001 405.1 67.4001 404.9C67.3001 404.3 67.3001 403.8 67.3001 403.2C67.3001 403.1 67.3001 403.1 67.3001 403.1C67.3001 402.4 67.2001 401.7 67.2001 401.1C67.2001 401 67.2001 401 67.2001 400.9C67.2001 400.2 67.1001 399.5 67.1001 398.8C67.1001 398.5 67.1001 398.3 67.1001 398C67.1001 397.6 67.1001 397.2 67.1001 396.8C67.1001 395.8 67.1001 394.7 67.2001 393.7C67.2001 393 67.3001 392.3 67.3001 391.7C67.4001 390.4 67.6001 389 67.8001 387.7C67.9001 387 68.0001 386.3 68.1001 385.7C68.3001 384.3 68.6001 383 69.0001 381.6C69.9001 378.1 71.1001 374.6 72.5001 371.4C73.6001 368.9 74.8001 366.4 76.1001 364.1C76.2001 363.9 76.3001 363.7 76.4001 363.5C81.8001 354 89.1001 345.6 97.4001 337.8C98.3001 337 99.2001 336.1 100.1 335.3C101.1 334.4 102 333.6 103 332.7C103.1 332.7 103.1 332.6 103.2 332.5C104.8 331.1 106.3 329.8 107.9 328.5C110.4 326.5 112.8 324.4 115.4 322.4C115.5 322.3 115.6 322.3 115.6 322.2C117.8 320.5 119.9 318.8 122.1 317.1C125.5 314.5 128.9 311.9 132.3 309.2C133.2 308.5 134.1 307.8 134.9 307.1C135.9 306.3 136.8 305.6 137.8 304.8C146.8 297.6 154.5 290 161.7 282.2C163.1 280.7 164.5 279.1 165.8 277.6C166.5 276.9 167.1 276.1 167.7 275.4C176.8 265 185.3 254.5 194.8 244.6C197 242.2 199.4 239.9 201.7 237.6C203.7 235.7 205.7 233.8 207.8 232C210.2 229.9 212.7 227.8 215.3 225.8C218.9 223 222.6 220.4 226.6 217.9C227.6 217.3 228.5 216.7 229.5 216.1C329.2 154.1 402.6 174.4 451.6 216.1C455.3 219.2 458.8 222.5 462.3 225.9C464.4 227.9 466.4 230 468.3 232.1C468.5 232.3 468.7 232.5 468.9 232.8C470.3 234.3 471.6 235.7 472.9 237.2C473.3 237.6 473.7 238.1 474 238.5C474.6 239.2 475.1 239.8 475.7 240.5C476.4 241.3 477.1 242.1 477.8 242.9C478.2 243.4 478.7 243.9 479.1 244.5C481.8 247.9 484.4 251.3 486.9 254.7C487.4 255.4 487.9 256.1 488.4 256.8C491.8 261.6 495 266.4 497.9 271.3C498.3 272 498.7 272.7 499.1 273.4C499.5 274.1 499.9 274.8 500.3 275.5C500.7 276.2 501.1 276.9 501.5 277.6C501.9 278.3 502.3 279 502.7 279.7C503.1 280.4 503.5 281.1 503.8 281.8C504.2 282.5 504.6 283.2 504.9 283.8C505.3 284.5 505.6 285.2 506 285.8C506.4 286.5 506.7 287.2 507.1 287.8C507.4 288.5 507.8 289.1 508.1 289.8C508.4 290.5 508.8 291.1 509.1 291.8C510.4 294.4 511.6 297 512.8 299.6C513.4 300.9 514 302.2 514.5 303.5C517 309.2 519.1 314.7 520.9 319.8V319.9C521.1 320.4 521.2 320.9 521.4 321.3C521.6 321.8 521.7 322.3 521.9 322.8C522 323.2 522.1 323.6 522.3 323.9C522.5 324.5 522.7 325 522.8 325.6C523 326.2 523.2 326.8 523.3 327.4C523.6 328.5 523.9 329.6 524.3 330.8C524.6 331.7 524.8 332.7 525.1 333.7C525.1 333.9 525.2 334 525.2 334.2C525.2 334.3 525.3 334.5 525.3 334.6C525.4 335.2 525.6 335.7 525.7 336.3C526.1 337.8 526.4 339.3 526.7 340.8C526.9 341.6 527 342.4 527.2 343.2C527.2 343.3 527.3 343.5 527.3 343.7C527.4 344.5 527.6 345.2 527.7 346C527.9 347 528 348.1 528.2 349.1C528.3 349.9 528.4 350.7 528.5 351.5C528.5 351.6 528.5 351.7 528.6 351.9C528.7 352.4 528.7 353 528.8 353.5C528.9 353.9 528.9 354.4 529 354.8C529.2 356.4 529.3 358 529.5 359.6C529.5 360 529.6 360.3 529.6 360.7C529.6 361.3 529.7 361.9 529.7 362.5C529.7 363.2 529.8 363.8 529.8 364.5C529.8 365 529.8 365.5 529.9 366.1C529.9 366.9 529.9 367.6 530 368.4C529.7 369.1 529.7 369.9 529.7 370.8Z" fill="#3BCBBE" fill-opacity="0.56"/>
<path opacity="0.2" d="M80.0998 387.3C79.8998 387.1 79.9998 387 80.0998 387.3V387.3Z" fill="#263238"/>
<path opacity="0.2" d="M173.7 378.4C172.7 385.2 167.7 390.7 161.1 392.9L158.6 393.7C149.7 406.3 134 411.7 120.7 403.9L116.8 401.6L105.9 388.6H105.8C102.3 389.3 98.4001 388.8 95.9001 386.4C95.5001 388.5 92.7001 389.8 90.8001 388.7C88.9001 387.6 88.7001 384.5 90.4001 383.2C88.2001 385.1 84.8001 384.2 82.7001 382.1C82.6001 376.3 83.2001 370.5 84.7001 364.8C85.6001 361.2 86.7001 357.8 88.2001 354.6C89.3001 352.1 90.5001 349.6 91.8001 347.3C91.9001 347.1 92.0001 346.9 92.1001 346.7C94.1001 343.2 96.3001 339.9 98.7001 336.7C99.1001 336.3 99.5001 335.9 100 335.6C101 334.7 101.9 333.9 102.9 333C103 333 103 332.9 103.1 332.8C104.7 331.4 106.2 330.1 107.8 328.8C110.3 326.8 112.7 324.7 115.3 322.7C115.4 322.6 115.5 322.6 115.5 322.5C117.7 320.8 119.8 319.1 122 317.4C123.1 316.6 124.2 315.7 125.3 314.9C126 315 126.6 315.1 127.2 315.3C129.9 316.2 130.3 318.7 132.2 320.4C134.7 322.6 137 318.9 140.8 319C152.5 319.4 147.9 331.3 153.6 329.8C178.2 323.3 174 354.7 163.4 361.6C169.5 366.8 174.9 370.3 173.7 378.4Z" fill="black"/>
<path d="M120.8 408.3C143.664 408.3 162.2 389.988 162.2 367.4C162.2 344.812 143.664 326.5 120.8 326.5C97.9353 326.5 79.3999 344.812 79.3999 367.4C79.3999 389.988 97.9353 408.3 120.8 408.3Z" fill="white" stroke="#263238" stroke-miterlimit="10"/>
<path d="M120.8 403C141.676 403 158.6 386.3 158.6 365.7C158.6 345.1 141.676 328.4 120.8 328.4C99.9236 328.4 83 345.1 83 365.7C83 386.3 99.9236 403 120.8 403Z" fill="#263238" stroke="white" stroke-miterlimit="10"/>
<path d="M80.2 380.4C77.8 381.9 77.1 386.9 79 389C80.9 391.1 84.5 389.5 85.2 386.1C85.5 387 86.7 387.2 87.2 386.4C87.6 385.8 87.6 384.9 87.3 384.3C87.1 384.1 87.2 384 87.3 384.3C88.5 385.3 90.6 384.2 90.9 382.1C90 387.6 95 392.4 98.7 389.6C97.6 391.9 99 395 100.9 395.6C102.8 396.2 104.8 395.1 106.7 393.8C108.5 392.6 110.4 391.1 112.4 391C114.1 390.9 115.7 391.9 117.4 392.5C122.7 394.3 128.8 391.9 132.8 386.4C135.5 390.9 142 389.3 143.8 383.6C144.2 386.3 146 388.3 148 388.3C150 388.3 152.1 386.4 152.8 383.7C152.8 386.2 155.1 387.4 156.7 385.8C158.7 383.7 160 380 159 376.9C161.7 376.8 164.4 373.6 164.8 370C165.2 366.3 163.4 362.7 160.7 361.9C165.2 360 168.7 353.9 168.9 347.6C169.1 341.3 165.8 335.5 161.4 334C159.7 333.4 157.7 333.6 156.3 335.1C155.8 331.5 154.2 328.3 151.8 326.7C148 324.1 142.7 325.9 139.9 330.7C141.3 328.2 141.4 324.7 140.1 322.3C138.8 320 136.3 319 134.2 320.1C133.7 316.3 130.8 313.5 127.9 314.3C125 315 122.7 319.1 122.9 323C122.6 319.9 118.9 319.1 117.6 321.7C117.7 321.9 117.5 321.8 117.6 321.7C115.8 317.8 112 315.9 108.6 317C104.9 318.2 101.8 322.8 101.3 327.9C98.8 325.6 95 325.7 92.3 328.1C89.6 330.6 88 335.2 88.5 339.4C85.6 336.6 80.8 338.1 78.8 342.5C76.8 346.9 78.2 353.1 81.5 354.9C79.2 355.2 77.2 358.3 77.2 361.4C77.2 364.5 79.2 367.1 81.5 367C79.2 367.2 77 369.9 76.7 373.1C76.5 376.6 78 379.8 80.2 380.4Z" fill="#3BCBBE"/>
<g opacity="0.2">
<g opacity="0.2">
<path opacity="0.2" d="M118.3 366.1C117.1 365.1 115.7 364.7 114.3 365.1C112.9 365.5 111.6 367 111.3 368.8C111 370.6 111.8 372.6 113.2 372.9C114.9 373.3 116.6 371.4 118.3 371.6C118.9 371.7 119.5 372 120.1 372.2C122.6 372.9 125.1 370.7 127.2 368.6C127.9 367.9 128.7 367.1 129.2 366.1C129.7 365.1 129.9 363.8 129.5 362.8C128.9 361.5 127.4 361.3 126.1 361.6C123.6 362.1 121.1 363.6 119.1 365.7C119.2 365.2 119.2 364.7 119.3 364.2L118.3 366.1Z" fill="white"/>
</g>
<g opacity="0.2">
<path opacity="0.2" d="M154.5 361.2C153.8 360.6 153.2 360.1 152.4 359.9C151.6 359.7 150.7 360 150.1 360.8C149.4 362 149.8 363.7 150.7 364.6C151.6 365.4 152.7 365.6 153.8 365.8C154.9 366 156.4 365.9 157 364.6C157.4 363.6 157.1 362.4 156.5 361.7C155.9 361 155.1 360.7 154.3 360.4L154.5 361.2Z" fill="white"/>
</g>
<g opacity="0.2">
<path opacity="0.2" d="M97.9 340.7C95.6 342.1 93.8 344.9 93.2 348C93 348.9 93 350.1 93.7 350.6C94.1 350.9 94.7 350.7 95.3 350.6C97.5 349.8 99.7 349 101.9 348.2C100.8 348.8 99.7 349.4 98.9 350.4C98 351.4 97.4 352.9 97.7 354.3C98 355.9 99.4 356.8 100.7 356.7C102 356.6 103.3 355.7 104.4 354.6C105.6 353.5 106.7 352 106.8 350.1C106.9 348.3 105.1 346.7 104 348C106.5 347 109 345.4 111.2 343.5C112 342.8 112.8 342 113.3 340.9C113.8 339.8 114 338.5 113.6 337.5C111.4 332.4 108.4 340.3 107 341C104.2 342.5 101.3 338.8 97.9 340.7Z" fill="white"/>
<path opacity="0.2" d="M87.1998 363.7C86.8998 364.7 87.0998 366 87.6998 366.6C88.2998 367.2 89.4998 366.9 89.7998 365.9C88.2998 366.6 86.6998 367.3 85.7998 369C84.8998 370.6 84.9998 373.4 86.4998 373.9C87.3998 374.2 88.3998 373.6 89.2998 373C91.6998 371.2 93.9998 369.1 96.1998 366.9C95.4998 368.9 96.9998 371 98.6998 371C100.3 371.1 101.9 369.9 103.3 368.7C105.1 367.3 107.1 365.1 106.7 362.6C106.3 360.4 104.2 359.6 102.5 360.3C100.8 361 99.4998 362.9 98.2998 364.6C99.2998 362.8 97.9998 360.3 96.3998 360.2C94.7998 360 93.1998 361.3 92.1998 362.9C94.0998 361.5 94.4998 358.1 92.0998 357.9C90.3998 357.6 87.6998 362 87.1998 363.7Z" fill="white"/>
<path opacity="0.2" d="M137.8 353.1C136.4 352.5 134.7 353.8 134.3 355.6C133.9 357.4 134.9 359.5 136.4 359.7C135.3 359.9 134.3 360.6 133.6 361.7C133.2 362.3 132.9 363.1 133 363.8C133.1 364.9 134 365.6 134.9 365.6C135.8 365.6 136.7 365 137.5 364.5C136.6 364.7 135.7 364.8 135 365.6C134.3 366.3 134 367.8 134.6 368.6C135.1 369.2 136 369.1 136.7 368.8C138.3 368.1 139.8 367 141.1 365.4C142 366.6 143.3 367.5 144.7 367.1C146.1 366.7 147.2 364.8 146.8 363.2C146.5 362 145.6 361.4 144.6 361.3C143.6 361.2 142.7 361.6 141.7 362C142.7 361.1 143.7 360.1 144.1 358.6C144.5 357.2 143.8 355.3 142.6 355.5C141.3 355.7 140.6 358 139.5 358.9C138.1 357.6 140.5 354.2 137.8 353.1Z" fill="white"/>
<g opacity="0.2">
<path opacity="0.2" d="M114.4 347.6C112.9 349 112.3 351.5 112.4 353.8C112.5 356.3 113.3 359 115.1 359.9C117.5 361.1 120.5 358.4 121 355.1C121.5 351.8 119.9 348.6 117.6 347.2C117.5 347.1 115.9 346.2 114.4 347.6Z" fill="white"/>
</g>
<g opacity="0.2">
<path opacity="0.2" d="M131.1 343.9C131.3 344.1 131.5 344.3 131.7 344.5C130.7 342.9 128.6 342.8 127.4 344.3C126.2 345.8 126.1 348.5 127.3 349.9C128.5 351.2 130.6 350.9 131.7 349.2C133.4 350.1 135.7 349.6 136.9 347.6C138.1 345.7 137.9 342.4 136.3 341.3C134.7 340.2 132.1 342.2 132.3 344.6C132.1 344.3 131.8 344 131.6 343.6L131.1 343.9Z" fill="white"/>
</g>
<g opacity="0.2">
<path opacity="0.2" d="M149.4 346.5C148.2 348.1 146.9 349.7 146.5 351.8C146 353.9 146.7 356.4 148.3 356.8C149.9 357.2 151.4 355.4 152.4 353.6C153.2 352 153.9 350 153.5 348.2C153.1 346.4 151.1 345.5 150 346.9L149.4 346.5Z" fill="white"/>
</g>
<path opacity="0.2" d="M123.1 335.8C122.5 334.1 120.6 333.6 119.4 334.7C118.1 335.8 117.6 338 118.1 339.7C118.6 341.4 120 342.5 121.4 342.6C123.2 342.7 125.4 340.7 125 338.5C125.8 339.8 127.1 340.2 128.4 340C129.7 339.8 130.9 338.9 132 338.1C133.5 336.9 135.2 335.1 135.1 332.9C135 331.1 133.7 329.9 132.3 329.8C130.9 329.7 129.5 330.6 128.4 331.8C127.5 332.8 126.8 333.9 125.9 334.8C125 335.7 123.7 336.2 122.8 335.5L123.1 335.8Z" fill="white"/>
</g>
</g>
<path d="M424.4 397.8H193.7V494.9H424.4V397.8Z" fill="#3BCBBE" stroke="#263238" stroke-miterlimit="10" stroke-linecap="round" stroke-linejoin="round"/>
<path d="M220.2 403.6H198.5V415.6H220.2V403.6Z" fill="white" stroke="#263238" stroke-miterlimit="10"/>
<path d="M419 462.2H384.8V474.2H419V462.2Z" fill="white" stroke="#263238" stroke-miterlimit="10"/>
<path d="M419 418.6H397.9V430.6H419V418.6Z" fill="white" stroke="#263238" stroke-miterlimit="10"/>
<path d="M220.2 447.399H198.5V459.399H220.2V447.399Z" fill="white" stroke="#263238" stroke-miterlimit="10"/>
<path d="M216.1 432.899H198.5V444.899H216.1V432.899Z" fill="white" stroke="#263238" stroke-miterlimit="10"/>
<path d="M210.5 418.3H198.5V430.3H210.5V418.3Z" fill="white" stroke="#263238" stroke-miterlimit="10"/>
<path d="M225.8 418.3H213.8V430.3H225.8V418.3Z" fill="white" stroke="#263238" stroke-miterlimit="10"/>
<path d="M241.2 418.3H229.2V430.3H241.2V418.3Z" fill="white" stroke="#263238" stroke-miterlimit="10"/>
<path d="M256.5 418.3H244.5V430.3H256.5V418.3Z" fill="white" stroke="#263238" stroke-miterlimit="10"/>
<path d="M271.8 418.3H259.8V430.3H271.8V418.3Z" fill="white" stroke="#263238" stroke-miterlimit="10"/>
<path d="M287.2 418.3H275.2V430.3H287.2V418.3Z" fill="white" stroke="#263238" stroke-miterlimit="10"/>
<path d="M302.5 418.3H290.5V430.3H302.5V418.3Z" fill="white" stroke="#263238" stroke-miterlimit="10"/>
<path d="M317.8 418.3H305.8V430.3H317.8V418.3Z" fill="white" stroke="#263238" stroke-miterlimit="10"/>
<path d="M333.2 418.3H321.2V430.3H333.2V418.3Z" fill="white" stroke="#263238" stroke-miterlimit="10"/>
<path d="M348.5 418.3H336.5V430.3H348.5V418.3Z" fill="white" stroke="#263238" stroke-miterlimit="10"/>
<path d="M363.8 418.3H351.8V430.3H363.8V418.3Z" fill="white" stroke="#263238" stroke-miterlimit="10"/>
<path d="M379.2 418.3H367.2V430.3H379.2V418.3Z" fill="white" stroke="#263238" stroke-miterlimit="10"/>
<path d="M394.5 418.3H382.5V430.3H394.5V418.3Z" fill="white" stroke="#263238" stroke-miterlimit="10"/>
<path d="M210.5 477H198.5V489H210.5V477Z" fill="white" stroke="#263238" stroke-miterlimit="10"/>
<path d="M225.8 477H213.8V489H225.8V477Z" fill="white" stroke="#263238" stroke-miterlimit="10"/>
<path d="M241.2 477H229.2V489H241.2V477Z" fill="white" stroke="#263238" stroke-miterlimit="10"/>
<path d="M259.2 477H244.5V489H259.2V477Z" fill="white" stroke="#263238" stroke-miterlimit="10"/>
<path d="M335.8 477H262.5V489H335.8V477Z" fill="white" stroke="#263238" stroke-miterlimit="10"/>
<path d="M372.5 477H360.5V489H372.5V477Z" fill="white" stroke="#263238" stroke-miterlimit="10"/>
<path d="M387.8 477H375.8V489H387.8V477Z" fill="white" stroke="#263238" stroke-miterlimit="10"/>
<path d="M403.2 477H391.2V489H403.2V477Z" fill="white" stroke="#263238" stroke-miterlimit="10"/>
<path d="M357.5 477H338.8V489H357.5V477Z" fill="white" stroke="#263238" stroke-miterlimit="10"/>
<path d="M419 477H407V489H419V477Z" fill="white" stroke="#263238" stroke-miterlimit="10"/>
<path d="M231.5 432.899H219.5V444.899H231.5V432.899Z" fill="white" stroke="#263238" stroke-miterlimit="10"/>
<path d="M246.8 432.899H234.8V444.899H246.8V432.899Z" fill="white" stroke="#263238" stroke-miterlimit="10"/>
<path d="M262.1 432.899H250.1V444.899H262.1V432.899Z" fill="white" stroke="#263238" stroke-miterlimit="10"/>
<path d="M277.5 432.899H265.5V444.899H277.5V432.899Z" fill="white" stroke="#263238" stroke-miterlimit="10"/>
<path d="M292.8 432.899H280.8V444.899H292.8V432.899Z" fill="white" stroke="#263238" stroke-miterlimit="10"/>
<path d="M308.1 432.899H296.1V444.899H308.1V432.899Z" fill="white" stroke="#263238" stroke-miterlimit="10"/>
<path d="M323.5 432.899H311.5V444.899H323.5V432.899Z" fill="white" stroke="#263238" stroke-miterlimit="10"/>
<path d="M338.8 432.899H326.8V444.899H338.8V432.899Z" fill="white" stroke="#263238" stroke-miterlimit="10"/>
<path d="M354.1 432.899H342.1V444.899H354.1V432.899Z" fill="white" stroke="#263238" stroke-miterlimit="10"/>
<path d="M369.5 432.899H357.5V444.899H369.5V432.899Z" fill="white" stroke="#263238" stroke-miterlimit="10"/>
<path d="M384.8 432.899H372.8V444.899H384.8V432.899Z" fill="white" stroke="#263238" stroke-miterlimit="10"/>
<path d="M400.2 432.899H388.2V444.899H400.2V432.899Z" fill="white" stroke="#263238" stroke-miterlimit="10"/>
<path d="M419 432.899V459.599H407V444.899H403.5V432.899H419Z" fill="white" stroke="#263238" stroke-miterlimit="10"/>
<path d="M235 447.6H223V459.6H235V447.6Z" fill="white" stroke="#263238" stroke-miterlimit="10"/>
<path d="M250.3 447.6H238.3V459.6H250.3V447.6Z" fill="white" stroke="#263238" stroke-miterlimit="10"/>
<path d="M265.7 447.6H253.7V459.6H265.7V447.6Z" fill="white" stroke="#263238" stroke-miterlimit="10"/>
<path d="M281 447.6H269V459.6H281V447.6Z" fill="white" stroke="#263238" stroke-miterlimit="10"/>
<path d="M296.3 447.6H284.3V459.6H296.3V447.6Z" fill="white" stroke="#263238" stroke-miterlimit="10"/>
<path d="M311.7 447.6H299.7V459.6H311.7V447.6Z" fill="white" stroke="#263238" stroke-miterlimit="10"/>
<path d="M327 447.6H315V459.6H327V447.6Z" fill="white" stroke="#263238" stroke-miterlimit="10"/>
<path d="M342.3 447.6H330.3V459.6H342.3V447.6Z" fill="white" stroke="#263238" stroke-miterlimit="10"/>
<path d="M357.7 447.6H345.7V459.6H357.7V447.6Z" fill="white" stroke="#263238" stroke-miterlimit="10"/>
<path d="M373 447.6H361V459.6H373V447.6Z" fill="white" stroke="#263238" stroke-miterlimit="10"/>
<path d="M388.3 447.6H376.3V459.6H388.3V447.6Z" fill="white" stroke="#263238" stroke-miterlimit="10"/>
<path d="M403.7 447.6H391.7V459.6H403.7V447.6Z" fill="white" stroke="#263238" stroke-miterlimit="10"/>
<path d="M228.5 462.2H216.5V474.2H228.5V462.2Z" fill="white" stroke="#263238" stroke-miterlimit="10"/>
<path d="M243.8 462.2H231.8V474.2H243.8V462.2Z" fill="white" stroke="#263238" stroke-miterlimit="10"/>
<path d="M259.1 462.2H247.1V474.2H259.1V462.2Z" fill="white" stroke="#263238" stroke-miterlimit="10"/>
<path d="M274.5 462.2H262.5V474.2H274.5V462.2Z" fill="white" stroke="#263238" stroke-miterlimit="10"/>
<path d="M289.8 462.2H277.8V474.2H289.8V462.2Z" fill="white" stroke="#263238" stroke-miterlimit="10"/>
<path d="M305.1 462.2H293.1V474.2H305.1V462.2Z" fill="white" stroke="#263238" stroke-miterlimit="10"/>
<path d="M320.5 462.2H308.5V474.2H320.5V462.2Z" fill="white" stroke="#263238" stroke-miterlimit="10"/>
<path d="M335.8 462.2H323.8V474.2H335.8V462.2Z" fill="white" stroke="#263238" stroke-miterlimit="10"/>
<path d="M351.1 462.2H339.1V474.2H351.1V462.2Z" fill="white" stroke="#263238" stroke-miterlimit="10"/>
<path d="M366.5 462.2H354.5V474.2H366.5V462.2Z" fill="white" stroke="#263238" stroke-miterlimit="10"/>
<path d="M381.8 462.2H369.8V474.2H381.8V462.2Z" fill="white" stroke="#263238" stroke-miterlimit="10"/>
<path d="M235 404.399H223V416.399H235V404.399Z" fill="white" stroke="#263238" stroke-miterlimit="10"/>
<path d="M250.3 404.399H238.3V416.399H250.3V404.399Z" fill="white" stroke="#263238" stroke-miterlimit="10"/>
<path d="M265.7 404.399H253.7V416.399H265.7V404.399Z" fill="white" stroke="#263238" stroke-miterlimit="10"/>
<path d="M281 404.399H269V416.399H281V404.399Z" fill="white" stroke="#263238" stroke-miterlimit="10"/>
<path d="M296.3 404.399H284.3V416.399H296.3V404.399Z" fill="white" stroke="#263238" stroke-miterlimit="10"/>
<path d="M311.7 404.399H299.7V416.399H311.7V404.399Z" fill="white" stroke="#263238" stroke-miterlimit="10"/>
<path d="M327 404.399H315V416.399H327V404.399Z" fill="white" stroke="#263238" stroke-miterlimit="10"/>
<path d="M342.3 404.399H330.3V416.399H342.3V404.399Z" fill="white" stroke="#263238" stroke-miterlimit="10"/>
<path d="M357.7 404.399H345.7V416.399H357.7V404.399Z" fill="white" stroke="#263238" stroke-miterlimit="10"/>
<path d="M373 404.399H361V416.399H373V404.399Z" fill="white" stroke="#263238" stroke-miterlimit="10"/>
<path d="M388.3 404.399H376.3V416.399H388.3V404.399Z" fill="white" stroke="#263238" stroke-miterlimit="10"/>
<path d="M403.7 404.399H391.7V416.399H403.7V404.399Z" fill="white" stroke="#263238" stroke-miterlimit="10"/>
<path d="M419 404.399H407V416.399H419V404.399Z" fill="white" stroke="#263238" stroke-miterlimit="10"/>
<path d="M213.1 462.2H198.5V474.2H213.1V462.2Z" fill="white" stroke="#263238" stroke-miterlimit="10"/>
<path d="M193.7 398.4L198.5 396.8H421.2L424.4 398.4H193.7Z" fill="#263238"/>
<path opacity="0.2" d="M358.3 565L353.6 536.8C352.6 532.6 350.4 528.8 347.2 525.7C337.9 516.7 325.5 507.5 325 495.7C324.2 477.7 321.4 478.2 321.7 473.8C321.7 473.6 323.1 471.7 324.9 467.2C325.5 465.8 325.9 463.6 326.3 461.9C326.7 460.1 328.5 458.8 330.3 459.1C331.6 459.3 332.8 459.8 333.7 460.7C335.4 462.4 336.2 464.8 336.2 467.2C336.3 469.6 335.7 471.9 335.2 474.3C336.9 478.1 337.7 482.6 338.2 486.7C339.3 483.4 340.1 480.1 341.2 476.8C341.4 476.7 341.3 476.4 341.6 476.3C340.1 473.1 341.4 473.2 338.4 466.1C333.4 454.1 327.8 442.5 323.8 427.5C323.5 426.3 323.5 424.4 323.9 423.3C325.3 419 329.8 420 331.7 422.5C332.2 423.2 332.6 423.9 332.9 424.7C334.9 430.1 339.3 438.3 342.5 443.1L353.4 459.7C353.4 459.7 357.2 456.6 357.8 455.2C358.4 453.8 358.7 442.5 358.7 442.5C358.7 442.5 357.8 444.6 355.9 444.5C354.5 444.4 351.7 445.2 349.7 443C348.1 441.2 348.1 438.4 349.5 436.5L354.4 429.8C354.4 429.8 357.7 426.9 362.1 428.9C366.5 430.9 370.8 435 370.8 435C370.8 435 374.9 434.8 378.4 436.5C381.9 438.2 385.5 443 385.5 443C385.5 443 389.6 443.2 391.4 444.6C391.9 444.9 398.1 454.6 395.8 462.1C394.5 466.6 393.6 473.1 393 474.9L389.9 519L396 548L382.9 555.3C378.1 558 373 560.3 367.8 562.1L358.3 565Z" fill="black"/>
<path d="M395.7 513.5L395.8 469.3C396.3 467.5 396.7 461 397.7 456.4C399.4 448.7 392.6 439.5 392.1 439.2C390.2 438 386.1 438 386.1 438C386.1 438 382.1 433.4 378.5 432C374.9 430.6 370.8 431 370.8 431C370.8 431 366.3 427.2 361.7 425.5C357.2 423.8 354 426.9 354 426.9L349.5 433.9C348.2 436 348.4 438.7 350.1 440.4C352.2 442.5 355 441.5 356.4 441.5C358.3 441.5 359 439.3 359 439.3C359 439.3 359.5 450.6 359 452C358.5 453.4 354.9 456.8 354.9 456.8L342.9 441C339.4 436.4 334.5 428.4 332.1 423.2C331.7 422.4 331.3 421.7 330.8 421.1C328.7 418.7 324.2 418 323 422.4C322.7 423.6 322.8 425.5 323.2 426.6C328.2 441.4 334.6 452.5 340.4 464.2C343.9 471.1 342.6 471 344.3 474.2C344.1 474.3 344.2 474.6 344 474.7C343.2 478.1 342.6 481.4 341.7 484.8C340.9 480.8 339.8 476.3 337.9 472.6C338.3 470.2 338.7 467.9 338.4 465.5C338.2 463.1 337.3 460.7 335.4 459.2C334.5 458.4 333.2 457.9 331.9 457.8C330 457.7 328.3 459 328.1 460.9C327.8 462.7 327.6 464.8 327.1 466.3C325.6 470.9 324.3 472.9 324.3 473.1C324.3 477.6 327.1 476.8 329.1 494.8C330.7 508.8 348.7 518 358.5 528.1L368.9 561C381 556.1 392.6 549.9 403.8 542.7L395.7 513.5Z" fill="white"/>
<path d="M390.5 453.4C391 452.1 391.7 450.8 392.8 449.9C393.9 449 395.7 449 396.6 450C395.9 447.7 395.1 445.4 394.2 443.2C393.6 441.5 392.8 439.7 391.4 438.5C390 437.3 387.6 437.1 386.4 438.5C387.3 443.7 387.4 449.1 386.7 454.3C386.3 457.1 385.9 460.4 387.8 462.5C388.3 462.9 389.2 462.2 388.9 461.6C388.7 461.3 388.2 461.3 387.9 461.3C388.6 458.7 389.5 456 390.5 453.4Z" fill="#3BCBBE"/>
<path d="M390.5 453.4C391 452.1 391.7 450.8 392.8 449.9C393.9 449 395.7 449 396.6 450C395.9 447.7 395.1 445.4 394.2 443.2C393.6 441.5 392.8 439.7 391.4 438.5C390 437.3 387.6 437.1 386.4 438.5C387.3 443.7 387.4 449.1 386.7 454.3C386.3 457.1 385.9 460.4 387.8 462.5C388.3 462.9 389.2 462.2 388.9 461.6C388.7 461.3 388.2 461.3 387.9 461.3C388.6 458.7 389.5 456 390.5 453.4Z" fill="#3BCBBE"/>
<path opacity="0.5" d="M390.5 453.4C391 452.1 391.7 450.8 392.8 449.9C393.9 449 395.7 449 396.6 450C395.9 447.7 395.1 445.4 394.2 443.2C393.6 441.5 392.8 439.7 391.4 438.5C390 437.3 387.6 437.1 386.4 438.5C387.3 443.7 387.4 449.1 386.7 454.3C386.3 457.1 385.9 460.4 387.8 462.5C388.3 462.9 389.2 462.2 388.9 461.6C388.7 461.3 388.2 461.3 387.9 461.3C388.6 458.7 389.5 456 390.5 453.4Z" fill="white"/>
<path d="M374.6 448.7C374.7 450.6 374.7 452.6 375.1 454.4C375.6 456.3 376.6 458.1 378.3 459C377.3 455.3 377.8 451.3 378.4 447.5C378.7 445.2 379.1 442.9 379.4 440.5C379.5 439.7 379.6 438.9 380.1 438.2C380.6 437.5 381.5 437.1 382.2 437.4C381.2 438 379.9 437.2 379.3 436.2C378.7 435.2 378.5 434 377.8 433.1C376.5 431.4 373.6 431 371.6 431.5C372.2 437.3 374.4 442.8 374.6 448.7Z" fill="#3BCBBE"/>
<path d="M374.6 448.7C374.7 450.6 374.7 452.6 375.1 454.4C375.6 456.3 376.6 458.1 378.3 459C377.3 455.3 377.8 451.3 378.4 447.5C378.7 445.2 379.1 442.9 379.4 440.5C379.5 439.7 379.6 438.9 380.1 438.2C380.6 437.5 381.5 437.1 382.2 437.4C381.2 438 379.9 437.2 379.3 436.2C378.7 435.2 378.5 434 377.8 433.1C376.5 431.4 373.6 431 371.6 431.5C372.2 437.3 374.4 442.8 374.6 448.7Z" fill="#3BCBBE"/>
<g opacity="0.5">
<path opacity="0.5" d="M374.6 448.7C374.7 450.6 374.7 452.6 375.1 454.4C375.6 456.3 376.6 458.1 378.3 459C377.3 455.3 377.8 451.3 378.4 447.5C378.7 445.2 379.1 442.9 379.4 440.5C379.5 439.7 379.6 438.9 380.1 438.2C380.6 437.5 381.5 437.1 382.2 437.4C381.2 438 379.9 437.2 379.3 436.2C378.7 435.2 378.5 434 377.8 433.1C376.5 431.4 373.6 431 371.6 431.5C372.2 437.3 374.4 442.8 374.6 448.7Z" fill="white"/>
</g>
<path d="M358.3 433.3C357.7 432.8 357.4 432 357.2 431.2C357 430.4 356.7 429.6 356 429.2C352.9 431.1 354.6 436.9 351.5 438.8C350.9 439.2 350.1 439.4 349.8 440C349.5 440.6 349.7 441.3 350.1 441.8C350.5 442.3 351.2 442.5 351.8 442.6C354.3 443 356.9 441.8 358.3 439.8C359.5 438.1 360.4 435.4 359.8 433.4C359.4 433.5 358.7 433.6 358.3 433.3Z" fill="#3BCBBE"/>
<path d="M326.3 470.6C326.2 470.8 326.2 471.1 326.4 471.2C326.7 471.4 327 471.1 327.2 470.8C328.5 469 331 468.1 333.2 468.9C334 468.9 334.3 467.7 333.8 467C333.3 466.4 332.4 466.3 331.6 466.3C330.8 466.3 329.9 466.3 329.2 465.9C328.4 465.4 328 464.3 328.2 463.4C327.6 465.8 327 468.2 326.3 470.6Z" fill="#3BCBBE"/>
<g opacity="0.5">
<path opacity="0.5" d="M358.3 433.3C357.7 432.8 357.4 432 357.2 431.2C357 430.4 356.7 429.6 356 429.2C352.9 431.1 354.6 436.9 351.5 438.8C350.9 439.2 350.1 439.4 349.8 440C349.5 440.6 349.7 441.3 350.1 441.8C350.5 442.3 351.2 442.5 351.8 442.6C354.3 443 356.9 441.8 358.3 439.8C359.5 438.1 360.4 435.4 359.8 433.4C359.4 433.5 358.7 433.6 358.3 433.3Z" fill="white"/>
<path opacity="0.5" d="M326.3 470.6C326.2 470.8 326.2 471.1 326.4 471.2C326.7 471.4 327 471.1 327.2 470.8C328.5 469 331 468.1 333.2 468.9C334 468.9 334.3 467.7 333.8 467C333.3 466.4 332.4 466.3 331.6 466.3C330.8 466.3 329.9 466.3 329.2 465.9C328.4 465.4 328 464.3 328.2 463.4C327.6 465.8 327 468.2 326.3 470.6Z" fill="white"/>
</g>
<path d="M367.1 432.5C365.4 432.3 363.5 432.2 362 431.3C360.1 430.2 358.8 427.8 356.6 427.7C354.6 427.6 353.2 429.4 352.1 431C352 428.6 353.8 426.3 356 425.4C358.3 424.5 360.9 424.8 363.2 425.7C365.5 426.6 367.5 428.1 369.4 429.6C370.2 430.2 371 430.8 371.5 431.6C373.8 435.5 368.6 432.7 367.1 432.5Z" fill="#3BCBBE"/>
<path opacity="0.5" d="M367.1 432.5C365.4 432.3 363.5 432.2 362 431.3C360.1 430.2 358.8 427.8 356.6 427.7C354.6 427.6 353.2 429.4 352.1 431C352 428.6 353.8 426.3 356 425.4C358.3 424.5 360.9 424.8 363.2 425.7C365.5 426.6 367.5 428.1 369.4 429.6C370.2 430.2 371 430.8 371.5 431.6C373.8 435.5 368.6 432.7 367.1 432.5Z" fill="white"/>
<path d="M335.8 489.3C335.9 489.1 336 488.9 336.1 488.6C335.9 488.8 335.8 489 335.8 489.3Z" fill="#3BCBBE"/>
<path d="M338.7 473.8C338.5 471.3 338.9 468.9 338.8 466.4C338.7 463.9 338.1 461.3 336.3 459.6C333.7 457.2 326.7 458.4 329 463C329.7 464.3 331.4 464.9 332.7 464.4C334 463.8 334.7 462 333.9 460.8C336.8 465.1 336.5 471.3 333.3 475.4C337 478.6 338.1 484.3 336.1 488.7C336.5 488.4 337.3 488.3 337.7 488.7C338.4 489.2 338.6 490.2 339 491C339.3 491.8 340 492.6 340.9 492.6C342.1 489.7 341.7 486.3 340.9 483.2C340.1 480 339 477 338.7 473.8Z" fill="#3BCBBE"/>
<path d="M364.6 427.4C363.2 426.3 361.6 425.6 359.9 425.4L364.6 427.4Z" fill="#3BCBBE"/>
<path d="M376.4 458.7C376 457 375.2 455.4 374.8 453.7C373.7 449.8 374.4 445.6 373.9 441.6C373.3 436.4 370.5 431.5 366.5 428.1L364.7 427.3C366.4 428.6 367.7 430.5 368.3 432.5C369.7 437.3 370.1 442.3 370.7 447.2C371.6 454.8 373 462.4 374.9 469.8C376 466.3 377.2 462.5 376.4 458.7Z" fill="#3BCBBE"/>
<path d="M357.3 440.9C358.5 439.9 359.2 438.4 359.4 436.8C359.6 435.4 359.5 434 359.3 432.6C359.2 433.2 358.4 433.7 357.7 433.5C356.8 433.3 356.3 432.5 355.8 431.8C355.7 432.2 355.6 432.6 355.4 433.1C355.4 432.9 355.3 432.6 355.3 432.4L354.8 433C355.5 435 356.2 437.3 355.1 439.2C354.6 440.1 353.7 440.7 352.8 441.3C354.2 442.2 356.1 441.9 357.3 440.9Z" fill="#3BCBBE"/>
<path d="M359.3 432.1C359.3 432.3 359.3 432.4 359.4 432.6C359.4 432.4 359.4 432.3 359.3 432.1Z" fill="#3BCBBE"/>
<path d="M354.1 452.3C350.6 445.4 347.1 438.5 343.2 431.8C340.9 427.9 338.6 424 335.6 420.6C334.3 419.1 330.4 415.6 328.3 417.9C326.9 419.4 328.7 422.2 327 423.8C327.4 423.8 329.4 423.6 329.6 423.9C334 429.3 336.4 436.3 336.3 443.3C337.7 442.2 339.6 443.7 340.7 445.1C347.5 453.8 353.8 462.9 359.7 472.2C358.6 468.1 358.5 463.7 357.3 459.6C356.5 457.2 355.3 454.7 354.1 452.3Z" fill="#3BCBBE"/>
<path d="M394.8 469.1C396.5 464.6 397.8 460 397.9 455.3C398 451 397 446.5 394.8 442.8C394.2 441.9 391.8 438 390.5 438.3C388.2 438.9 391.2 442.9 391.8 444C393.8 447.8 395.9 451.9 395.8 456.3C395.7 459.7 394.3 462.8 393.2 466C392.4 468.2 391.8 470.6 391.8 472.9C391.6 473.2 391.5 473.4 391.3 473.7C389.7 475.7 387.6 477.4 385 477.8C386 474.8 386.9 471.8 387.9 468.8C388.2 467.7 388.4 466.3 387.8 465.5C388 465.1 388.1 464.7 388.1 464.2C388.1 463.4 387.6 462.6 387.3 461.9C386 459 386.4 455.7 386.7 452.5C387.1 448.6 387.3 444.6 386.1 440.8C385 437.1 382.3 433.6 378.6 432.3C378.9 432.6 379.2 433 379.6 433.3L378.3 432.4C379.1 434 379.9 435.6 380.6 437.3C380.3 437.7 380 438.1 379.7 438.5C381 437.8 382.6 438.8 383.2 440.1C383.8 441.4 383.6 443 383.5 444.4C382.7 452.5 383.1 460.7 384.7 468.7C384.6 470.6 384.2 472.4 383.3 474C382.3 475.7 380.3 477 378.3 476.7C378.7 474.8 378 472.5 376.4 471.4C374.4 474.2 375.6 478.5 375.9 481.7C376.4 486.5 377.1 491.3 378.2 496.1C378.5 492 379.4 487.9 380.8 484.1C381.9 488 383 492 384.1 495.9C384.1 494.8 384.2 493.6 384.7 492.7C385.2 491.7 386.4 491 387.5 491.4C388.3 491.7 388.8 492.6 389.2 493.5C392 500.3 392.7 507.9 391.2 515.1C392.5 515.8 394.3 514.9 395.1 513.6C395.8 512.3 395.8 510.6 395.8 509.1C395.3 495.8 395 482.5 394.8 469.1Z" fill="#3BCBBE"/>
<path d="M360.9 473.4C360.3 474.5 362.9 479 363.3 480C365.5 485.4 367.7 490.8 369.9 496.1C369.2 489 367.4 482 364.8 475.4C364.3 474.4 362.2 471.1 360.9 473.4Z" fill="#3BCBBE"/>
<path d="M364.3 444.8C363.9 445.4 363.4 446.1 362.7 445.9C362.1 445.7 362 444.9 362 444.3C362.1 440.6 362.1 436.8 362.2 433.1C359.2 435.3 359.6 438.1 359.4 441.3C359.3 443.2 359.8 452.1 358.5 453.2C361.5 450.7 364 447.6 365.9 444.1C365.4 443.7 364.7 444.3 364.3 444.8Z" fill="#3BCBBE"/>
<g opacity="0.5">
<path opacity="0.5" d="M335.8 489.3C335.9 489.1 336 488.9 336.1 488.6C335.9 488.8 335.8 489 335.8 489.3Z" fill="white"/>
<path opacity="0.5" d="M338.7 473.8C338.5 471.3 338.9 468.9 338.8 466.4C338.7 463.9 338.1 461.3 336.3 459.6C333.7 457.2 326.7 458.4 329 463C329.7 464.3 331.4 464.9 332.7 464.4C334 463.8 334.7 462 333.9 460.8C336.8 465.1 336.5 471.3 333.3 475.4C337 478.6 338.1 484.3 336.1 488.7C336.5 488.4 337.3 488.3 337.7 488.7C338.4 489.2 338.6 490.2 339 491C339.3 491.8 340 492.6 340.9 492.6C342.1 489.7 341.7 486.3 340.9 483.2C340.1 480 339 477 338.7 473.8Z" fill="white"/>
<path opacity="0.5" d="M364.6 427.4C363.2 426.3 361.6 425.6 359.9 425.4L364.6 427.4Z" fill="white"/>
<path opacity="0.5" d="M376.4 458.7C376 457 375.2 455.4 374.8 453.7C373.7 449.8 374.4 445.6 373.9 441.6C373.3 436.4 370.5 431.5 366.5 428.1L364.7 427.3C366.4 428.6 367.7 430.5 368.3 432.5C369.7 437.3 370.1 442.3 370.7 447.2C371.6 454.8 373 462.4 374.9 469.8C376 466.3 377.2 462.5 376.4 458.7Z" fill="white"/>
<path opacity="0.5" d="M357.3 440.9C358.5 439.9 359.2 438.4 359.4 436.8C359.6 435.4 359.5 434 359.3 432.6C359.2 433.2 358.4 433.7 357.7 433.5C356.8 433.3 356.3 432.5 355.8 431.8C355.7 432.2 355.6 432.6 355.4 433.1C355.4 432.9 355.3 432.6 355.3 432.4L354.8 433C355.5 435 356.2 437.3 355.1 439.2C354.6 440.1 353.7 440.7 352.8 441.3C354.2 442.2 356.1 441.9 357.3 440.9Z" fill="white"/>
<path opacity="0.5" d="M359.3 432.1C359.3 432.3 359.3 432.4 359.4 432.6C359.4 432.4 359.4 432.3 359.3 432.1Z" fill="white"/>
<path opacity="0.5" d="M354.1 452.3C350.6 445.4 347.1 438.5 343.2 431.8C340.9 427.9 338.6 424 335.6 420.6C334.3 419.1 330.4 415.6 328.3 417.9C326.9 419.4 328.7 422.2 327 423.8C327.4 423.8 329.4 423.6 329.6 423.9C334 429.3 336.4 436.3 336.3 443.3C337.7 442.2 339.6 443.7 340.7 445.1C347.5 453.8 353.8 462.9 359.7 472.2C358.6 468.1 358.5 463.7 357.3 459.6C356.5 457.2 355.3 454.7 354.1 452.3Z" fill="white"/>
<path opacity="0.5" d="M394.8 469.1C396.5 464.6 397.8 460 397.9 455.3C398 451 397 446.5 394.8 442.8C394.2 441.9 391.8 438 390.5 438.3C388.2 438.9 391.2 442.9 391.8 444C393.8 447.8 395.9 451.9 395.8 456.3C395.7 459.7 394.3 462.8 393.2 466C392.4 468.2 391.8 470.6 391.8 472.9C391.6 473.2 391.5 473.4 391.3 473.7C389.7 475.7 387.6 477.4 385 477.8C386 474.8 386.9 471.8 387.9 468.8C388.2 467.7 388.4 466.3 387.8 465.5C388 465.1 388.1 464.7 388.1 464.2C388.1 463.4 387.6 462.6 387.3 461.9C386 459 386.4 455.7 386.7 452.5C387.1 448.6 387.3 444.6 386.1 440.8C385 437.1 382.3 433.6 378.6 432.3C378.9 432.6 379.2 433 379.6 433.3L378.3 432.4C379.1 434 379.9 435.6 380.6 437.3C380.3 437.7 380 438.1 379.7 438.5C381 437.8 382.6 438.8 383.2 440.1C383.8 441.4 383.6 443 383.5 444.4C382.7 452.5 383.1 460.7 384.7 468.7C384.6 470.6 384.2 472.4 383.3 474C382.3 475.7 380.3 477 378.3 476.7C378.7 474.8 378 472.5 376.4 471.4C374.4 474.2 375.6 478.5 375.9 481.7C376.4 486.5 377.1 491.3 378.2 496.1C378.5 492 379.4 487.9 380.8 484.1C381.9 488 383 492 384.1 495.9C384.1 494.8 384.2 493.6 384.7 492.7C385.2 491.7 386.4 491 387.5 491.4C388.3 491.7 388.8 492.6 389.2 493.5C392 500.3 392.7 507.9 391.2 515.1C392.5 515.8 394.3 514.9 395.1 513.6C395.8 512.3 395.8 510.6 395.8 509.1C395.3 495.8 395 482.5 394.8 469.1Z" fill="white"/>
<path opacity="0.5" d="M360.9 473.4C360.3 474.5 362.9 479 363.3 480C365.5 485.4 367.7 490.8 369.9 496.1C369.2 489 367.4 482 364.8 475.4C364.3 474.4 362.2 471.1 360.9 473.4Z" fill="white"/>
<path opacity="0.5" d="M364.3 444.8C363.9 445.4 363.4 446.1 362.7 445.9C362.1 445.7 362 444.9 362 444.3C362.1 440.6 362.1 436.8 362.2 433.1C359.2 435.3 359.6 438.1 359.4 441.3C359.3 443.2 359.8 452.1 358.5 453.2C361.5 450.7 364 447.6 365.9 444.1C365.4 443.7 364.7 444.3 364.3 444.8Z" fill="white"/>
</g>
<path d="M327.6 470.1C326.4 471 325.4 472.1 324.7 473.4L327.6 470.1Z" fill="white"/>
<path d="M369.1 561.1L358.7 528.2C348.9 518.1 330.9 508.9 329.3 494.9C327.3 477 324.5 477.7 324.5 473.2C324.5 473 325.8 471 327.3 466.4C327.8 464.9 328 462.8 328.3 461C328.6 459.1 330.2 457.7 332.1 457.9C333.4 458 334.6 458.5 335.6 459.3C337.4 460.8 338.3 463.2 338.6 465.6C338.8 468 338.5 470.4 338.1 472.7C340 476.3 341.1 480.8 341.9 484.9C342.7 481.5 343.3 478.2 344.2 474.8C344.4 474.7 344.3 474.4 344.5 474.3C342.8 471.2 344.1 471.3 340.6 464.3C334.8 452.7 328.4 441.5 323.4 426.7C323 425.6 322.9 423.6 323.2 422.5C324.4 418.1 328.9 418.8 331 421.2C331.6 421.8 332 422.5 332.3 423.3C334.7 428.5 339.6 436.5 343.1 441.1L355.1 456.9C355.1 456.9 358.7 453.6 359.2 452.1C359.7 450.7 359.2 439.4 359.2 439.4C359.2 439.4 358.5 441.6 356.6 441.6C355.2 441.6 352.5 442.6 350.3 440.5C348.6 438.8 348.4 436 349.7 434L354.2 427C354.2 427 357.3 423.9 361.9 425.6C366.4 427.3 371 431.1 371 431.1C371 431.1 375.1 430.6 378.7 432.1C382.3 433.5 386.3 438.1 386.3 438.1C386.3 438.1 390.4 438.1 392.3 439.3C392.8 439.6 399.6 448.8 397.9 456.5C396.9 461.1 396.5 467.6 396 469.4L395.9 513.6L404.2 542.9" stroke="#263238" stroke-miterlimit="10"/>
<path d="M372 432.601C373.8 439.101 374.7 445.901 374.7 452.601C374.7 453.701 374.7 454.901 375.1 456.001C375.5 457.101 376.3 458.101 377.4 458.301" stroke="#263238" stroke-miterlimit="10"/>
<path d="M386.1 439.201C389.1 445.501 386 459.401 386.3 460.401C386.5 461.401 387.1 462.301 388 462.801" stroke="#263238" stroke-miterlimit="10"/>
<path d="M360.3 431.701C360 433.701 359.7 436 359.3 438C357 436 355.5 433.1 355.3 430" stroke="#263238" stroke-miterlimit="10"/>
<path d="M341.2 485.101C340.5 485.401 339.8 485.701 339 486.101" stroke="#263238" stroke-miterlimit="10"/>
<path d="M341.7 486.8C341.3 488.5 341.3 490.2 341.7 491.9" stroke="#263238" stroke-miterlimit="10"/>
<path d="M354.4 468.101C355.2 469.501 356 471.001 356.8 472.401" stroke="#263238" stroke-miterlimit="10"/>
<path d="M359 452.4C359.8 451.3 360.6 450.2 361.4 449" stroke="#263238" stroke-miterlimit="10"/>
<path d="M392.4 468.101C392.2 469.001 391.9 469.901 391.7 470.701" stroke="#263238" stroke-miterlimit="10"/>
<path d="M386.6 460.901C387.3 458.701 388 456.401 388.7 454.201" stroke="#263238" stroke-miterlimit="10"/>
<path d="M393.6 449.001C394.8 448.301 396.6 448.801 397.2 450.101" stroke="#263238" stroke-miterlimit="10"/>
<path d="M379.3 437.5C381 437 382.8 437.5 384.1 438.6" stroke="#263238" stroke-miterlimit="10"/>
<path d="M334.7 444.2C336.2 442.5 338.6 441.6 340.9 441.9" stroke="#263238" stroke-miterlimit="10"/>
<path d="M325.7 425.301C327.1 424.301 329 423.801 330.7 424.101" stroke="#263238" stroke-miterlimit="10"/>
<path d="M327.6 470.101C326.4 471.001 325.4 472.101 324.7 473.401" stroke="#263238" stroke-miterlimit="10"/>
<path d="M328.5 465.501C330.1 464.401 332.6 466.901 334.1 465.601C334.7 465.101 334.7 464.201 334.6 463.401C334.5 462.601 334.2 461.901 334.3 461.101" stroke="#263238" stroke-miterlimit="10"/>
<path d="M373.1 458.601C375 462.501 375.4 467.201 374.2 471.401" stroke="#263238" stroke-miterlimit="10"/>
<path d="M384.7 464.8C385 466.7 384.7 468.7 383.7 470.3" stroke="#263238" stroke-miterlimit="10"/>
<path opacity="0.2" d="M288.1 479.8C288.2 480.5 288.2 481.2 288 481.9C287.3 484.9 285.5 493.7 284.8 498.5C284 504.4 274.5 522.5 274.5 522.5C274.5 522.5 265.8 533.3 261.3 539C259.1 541.8 255.7 553 252.7 563.7C249 562.6 245.3 561.4 241.7 560.1C238.7 559 235.7 557.9 232.7 556.7C228.5 555.1 223.2 552.4 217.1 549.1C218.8 543.1 219.9 538.4 219.9 538.2C219.8 537.6 223.5 530.6 223.5 530.6L220.4 489.2L218.5 482.9C217.5 479.6 216.9 476.3 216.7 472.9C216.3 467.8 216.7 462.6 218 457.6L223.4 449.5L225.9 449.3L233.8 438.3C233.8 438.3 238 437 239.1 440.2C240.2 443.4 235.6 449.4 235.6 449.4L234 459.3L237.8 468.5L239.8 469.2C239.8 469.2 240.5 452.9 240 449.7L244.2 434.9C244.2 434.9 246.7 429.9 247.5 427.4C248.3 424.9 252.7 422.4 255.3 426.8C255.3 426.8 256.7 429 255.7 432.1C254.6 435.1 253.8 437.5 253.8 437.5C253.8 437.5 252.9 450.1 252.6 450.4C252.3 450.7 254.4 469.1 254.4 469.1L256 469.8L256.6 452.2L260 435.7C260 435.7 259.7 427.8 265.3 428.7C265.3 428.7 267.9 428.4 269.4 431.3C270.9 434.2 269.5 453.1 269.5 453.1L270.9 472.7L273.1 487.8L275.7 477.4C275.7 477.4 275.8 462.5 285.2 461.3C285.2 461.3 288 460.8 288.6 462.7C289.2 464.6 287.2 468.6 287.5 472.4C287.5 475.2 287.9 478.2 288.1 479.8Z" fill="black"/>
<path d="M285.2 461.4C284.8 459.4 282 459.7 282 459.7C272.6 460.3 271.3 475.1 271.3 475.1L267.9 485.2L266.8 469.9L266.9 450.2C266.9 450.2 269.8 431.4 268.5 428.4C267.2 425.4 264.6 425.5 264.6 425.5C259.1 424.1 258.8 432 258.8 432L254.2 448.2L252.3 465.7L250.7 464.9C250.7 464.9 250 446.4 250.3 446.1C250.6 445.8 252.5 433.3 252.5 433.3C252.5 433.3 253.5 431 254.8 428C256.1 425 254.8 422.7 254.8 422.7C252.6 418.2 247.9 420.3 247 422.7C246 425.1 243.2 429.9 243.2 429.9L237.9 444.4C238.1 447.7 236.2 463.9 236.2 463.9L234.3 463L231.2 453.5L233.5 443.8C233.5 443.8 238.6 438.2 237.7 434.9C236.9 431.6 232.5 432.6 232.5 432.6L223.8 443H221.3L215.3 450.6C213.7 455.5 212.8 460.6 212.8 465.8C212.8 469.2 213.2 472.6 213.9 475.9L215.3 482.3V523.9C215.3 523.9 211.2 530.6 211.2 531.2C211.2 531.5 209.5 536.7 207.1 543.3C217.5 549.4 226.4 554.1 232.7 556.6C235.7 557.8 238.7 558.9 241.7 560C245.5 549.3 249.9 537.9 252.4 535.2C257.3 529.9 266.8 519.8 266.8 519.8C266.8 519.8 277.6 502.4 278.9 496.7C279.9 492 282.5 483.4 283.4 480.4C283.6 479.7 283.7 479 283.6 478.3C283.5 476.7 283.4 473.7 283.4 471C283.4 467.2 285.6 463.4 285.2 461.4Z" fill="white"/>
<path d="M220.3 457.2C221.9 455.2 225.2 454.4 227.1 456.2C228.2 457.2 228.5 458.8 228.8 460.2C229.1 461.7 229.3 463.2 230.3 464.3C231.3 465.4 233.2 465.9 234.2 464.8C234.3 467 234.5 469.2 234.6 471.4C236.9 467.3 238.1 462.6 238 458C238 455.7 237.6 453.4 238.1 451.2C238.6 449 240.3 446.8 242.6 446.7C245.1 446.6 247.1 449 247.6 451.5C248.1 454 247.5 456.5 247.4 459C247.2 462.8 247.9 466.7 249.6 470.2C250.1 469.1 250.7 468.1 251.2 467C251.7 469.2 252.2 471.3 252.6 473.5C253 468.8 253.4 464 253.8 459.3C253.9 458 254 456.6 254.7 455.4C255.3 454.2 256.6 453.2 257.9 453.4C259.7 453.6 260.7 455.5 261.3 457.2C265.8 469.9 263.9 483.9 262 497.3C263.3 497.5 264.3 496.3 264.6 495C264.9 493.8 264.8 492.4 265.3 491.3C265.8 490.1 267.2 489.1 268.3 489.8C269.9 490.8 268.8 493.9 270.4 494.7C270.9 490.7 272.5 486.9 274.9 483.8C276 482.4 277.7 480.9 279.4 481.4C280.7 481.7 281.6 483.1 281.8 484.4C282 485.7 283.9 480.2 283.6 481.5C284.4 473.8 282.8 473 283.6 465.3C283.7 463.9 286 461.5 285 460.5C284.1 459.5 281.4 458.1 280.2 458.7C279 459.3 275.1 461.2 274.3 462.3C269.4 469.1 269.7 478.9 268.2 487.1C266.9 474.5 265.6 461.8 267.9 449.4C269.2 442.6 271.5 435.4 269.3 428.8C268.3 425.8 265.6 422.8 262.5 423.3C260 423.8 258.5 426.3 257.4 428.7C254 436.6 252.4 445.2 250.9 453.7C252.8 445.2 254.7 436.6 256.5 428.1C257 425.9 257.5 423.6 257.1 421.4C256.7 419.2 255.2 417 252.9 416.5C250.7 416 248.5 417.3 246.8 418.9C240.9 424.3 238.6 432.6 236.7 440.5C237.4 438.5 238.1 436.3 237.9 434.2C237.7 432.1 236.3 429.9 234.2 429.4C231.5 428.8 229 431.2 227.8 433.8C226.6 436.3 226 439.2 224.1 441.2C222.7 439.6 220.1 439.7 218.4 440.9C216.7 442.1 215.6 444 214.8 445.9C211.7 452.9 210.3 460.7 210.9 468.4C212.3 465.3 215.8 463.3 219.1 463.7C218.9 462 218.7 460.3 218.5 458.6" fill="#3BCBBE"/>
<path d="M226.9 473.5C226.8 474.8 226.7 476 226.6 477.3C227 476.2 228.5 475.9 229.4 476.6C229.2 475.8 229.7 475 230 474.3C230.3 473.5 230.4 472.5 229.6 472.1C228.7 471.7 227.9 472.7 227.4 473.5C227.4 473.2 227.3 472.9 227.3 472.6L226.9 473.5Z" fill="#3BCBBE"/>
<path d="M241.2 471.2C240.2 472.4 239.5 473.8 239.2 475.4C239.6 475 240.1 474.5 240.7 474.3C241.3 474.1 242 474.2 242.4 474.7C242.6 475 242.7 475.4 243 475.6C243.3 475.8 243.8 475.6 244 475.2C244.2 474.9 244.2 474.5 244.3 474.1C244.3 473.4 244.4 472.6 244.2 471.9C244 471.2 243.5 470.5 242.8 470.4C242.1 470.2 241.2 470.8 241.2 471.5V471.2Z" fill="#3BCBBE"/>
<path d="M255.1 474.7C254 476.2 253.3 477.9 253 479.7C253.7 479.6 254.4 479.1 254.9 478.7C255.5 478.2 256.1 477.8 256.9 477.7C257.6 477.6 258.5 478.2 258.5 478.9C258.4 478.1 258.5 477.2 258.6 476.4C258.7 475.6 258.7 474.7 258.4 473.9C258.1 473.1 257.3 472.4 256.5 472.5C255.7 472.5 254.9 473.5 255.3 474.3L255.1 474.7Z" fill="#3BCBBE"/>
<path d="M216.9 479.7C216.1 481.1 215.7 482.8 215.7 484.4C215.7 483.6 216.4 483 217.2 482.9C217.9 482.8 218.7 483.1 219.3 483.5C219.4 482.7 219.6 482 219.4 481.2C219.2 480.4 218.7 479.7 217.9 479.6C217.1 479.5 216.3 480.2 216.5 481C216.4 480.8 216.3 480.6 216.3 480.4L216.9 479.7Z" fill="#3BCBBE"/>
<path opacity="0.5" d="M220.3 457.2C221.9 455.2 225.2 454.4 227.1 456.2C228.2 457.2 228.5 458.8 228.8 460.2C229.1 461.7 229.3 463.2 230.3 464.3C231.3 465.4 233.2 465.9 234.2 464.8C234.3 467 234.5 469.2 234.6 471.4C236.9 467.3 238.1 462.6 238 458C238 455.7 237.6 453.4 238.1 451.2C238.6 449 240.3 446.8 242.6 446.7C245.1 446.6 247.1 449 247.6 451.5C248.1 454 247.5 456.5 247.4 459C247.2 462.8 247.9 466.7 249.6 470.2C250.1 469.1 250.7 468.1 251.2 467C251.7 469.2 252.2 471.3 252.6 473.5C253 468.8 253.4 464 253.8 459.3C253.9 458 254 456.6 254.7 455.4C255.3 454.2 256.6 453.2 257.9 453.4C259.7 453.6 260.7 455.5 261.3 457.2C265.8 469.9 263.9 483.9 262 497.3C263.3 497.5 264.3 496.3 264.6 495C264.9 493.8 264.8 492.4 265.3 491.3C265.8 490.1 267.2 489.1 268.3 489.8C269.9 490.8 268.8 493.9 270.4 494.7C270.9 490.7 272.5 486.9 274.9 483.8C276 482.4 277.7 480.9 279.4 481.4C280.7 481.7 281.6 483.1 281.8 484.4C282 485.7 283.9 480.2 283.6 481.5C284.4 473.8 282.8 473 283.6 465.3C283.7 463.9 286 461.5 285 460.5C284.1 459.5 281.4 458.1 280.2 458.7C279 459.3 275.1 461.2 274.3 462.3C269.4 469.1 269.7 478.9 268.2 487.1C266.9 474.5 265.6 461.8 267.9 449.4C269.2 442.6 271.5 435.4 269.3 428.8C268.3 425.8 265.6 422.8 262.5 423.3C260 423.8 258.5 426.3 257.4 428.7C254 436.6 252.4 445.2 250.9 453.7C252.8 445.2 254.7 436.6 256.5 428.1C257 425.9 257.5 423.6 257.1 421.4C256.7 419.2 255.2 417 252.9 416.5C250.7 416 248.5 417.3 246.8 418.9C240.9 424.3 238.6 432.6 236.7 440.5C237.4 438.5 238.1 436.3 237.9 434.2C237.7 432.1 236.3 429.9 234.2 429.4C231.5 428.8 229 431.2 227.8 433.8C226.6 436.3 226 439.2 224.1 441.2C222.7 439.6 220.1 439.7 218.4 440.9C216.7 442.1 215.6 444 214.8 445.9C211.7 452.9 210.3 460.7 210.9 468.4C212.3 465.3 215.8 463.3 219.1 463.7C218.9 462 218.7 460.3 218.5 458.6" fill="white"/>
<g opacity="0.5">
<g opacity="0.5">
<path opacity="0.5" d="M226.9 473.5C226.8 474.8 226.7 476 226.6 477.3C227 476.2 228.5 475.9 229.4 476.6C229.2 475.8 229.7 475 230 474.3C230.3 473.5 230.4 472.5 229.6 472.1C228.7 471.7 227.9 472.7 227.4 473.5C227.4 473.2 227.3 472.9 227.3 472.6L226.9 473.5Z" fill="white"/>
</g>
<g opacity="0.5">
<path opacity="0.5" d="M241.2 471.2C240.2 472.4 239.5 473.8 239.2 475.4C239.6 475 240.1 474.5 240.7 474.3C241.3 474.1 242 474.2 242.4 474.7C242.6 475 242.7 475.4 243 475.6C243.3 475.8 243.8 475.6 244 475.2C244.2 474.9 244.2 474.5 244.3 474.1C244.3 473.4 244.4 472.6 244.2 471.9C244 471.2 243.5 470.5 242.8 470.4C242.1 470.2 241.2 470.8 241.2 471.5V471.2Z" fill="white"/>
</g>
<g opacity="0.5">
<path opacity="0.5" d="M255.1 474.7C254 476.2 253.3 477.9 253 479.7C253.7 479.6 254.4 479.1 254.9 478.7C255.5 478.2 256.1 477.8 256.9 477.7C257.6 477.6 258.5 478.2 258.5 478.9C258.4 478.1 258.5 477.2 258.6 476.4C258.7 475.6 258.7 474.7 258.4 473.9C258.1 473.1 257.3 472.4 256.5 472.5C255.7 472.5 254.9 473.5 255.3 474.3L255.1 474.7Z" fill="white"/>
</g>
<g opacity="0.5">
<path opacity="0.5" d="M216.9 479.7C216.1 481.1 215.7 482.8 215.7 484.4C215.7 483.6 216.4 483 217.2 482.9C217.9 482.8 218.7 483.1 219.3 483.5C219.4 482.7 219.6 482 219.4 481.2C219.2 480.4 218.7 479.7 217.9 479.6C217.1 479.5 216.3 480.2 216.5 481C216.4 480.8 216.3 480.6 216.3 480.4L216.9 479.7Z" fill="white"/>
</g>
</g>
<path d="M207.1 543.3C209.5 536.8 211.2 531.5 211.2 531.2C211.2 530.6 215.3 523.9 215.3 523.9V482.3L213.9 475.9C213.2 472.6 212.8 469.2 212.8 465.8C212.8 460.7 213.6 455.5 215.3 450.6L221.3 443H223.8L232.5 432.6C232.5 432.6 236.8 431.6 237.7 434.9C238.5 438.2 233.5 443.8 233.5 443.8L231.2 453.5L234.3 463L236.2 463.9C236.2 463.9 238.1 447.7 237.9 444.4L243.2 429.9C243.2 429.9 246.1 425.1 247 422.7C248 420.3 252.6 418.2 254.8 422.7C254.8 422.7 256.1 425 254.8 428C253.5 431 252.5 433.3 252.5 433.3C252.5 433.3 250.6 445.8 250.3 446.1C250 446.4 250.7 464.9 250.7 464.9L252.3 465.7L254.2 448.2L258.8 432C258.8 432 259.1 424.1 264.6 425.5C264.6 425.5 267.2 425.4 268.5 428.4C269.8 431.4 266.9 450.2 266.9 450.2L266.8 469.9L267.9 485.2L271.3 475.1C271.3 475.1 272.6 460.3 282 459.7C282 459.7 284.8 459.4 285.2 461.4C285.6 463.4 283.4 467.2 283.4 471C283.4 473.7 283.5 476.7 283.6 478.3C283.6 479 283.6 479.7 283.4 480.4C282.5 483.4 280 492 278.9 496.7C277.6 502.5 266.8 519.8 266.8 519.8C266.8 519.8 257.3 530 252.4 535.2C249.9 537.9 245.5 549.3 241.7 560" stroke="#263238" stroke-miterlimit="10"/>
<path d="M236 465.5C236.6 467.5 236 469.7 234.6 471.2Z" fill="white"/>
<path d="M236 465.5C236.6 467.5 236 469.7 234.6 471.2" stroke="#263238" stroke-miterlimit="10"/>
<path d="M219.8 479.5C221.2 477.4 222.5 474.5 222.1 471.9C221.4 467 219.1 461.3 220.1 456.5C220.7 453.4 221.4 450.3 222 447.2" fill="white"/>
<path d="M219.8 479.5C221.2 477.4 222.5 474.5 222.1 471.9C221.4 467 219.1 461.3 220.1 456.5C220.7 453.4 221.4 450.3 222 447.2" stroke="#263238" stroke-miterlimit="10"/>
<path d="M259.7 433.1C261.3 432.7 263.1 432.7 264.7 433.1C264.7 432.6 264.7 432.2 264.8 431.7" stroke="#263238" stroke-miterlimit="10"/>
<path d="M246.6 426.9C247.6 427.6 248.9 427.7 250 427.1C251 426.5 251.7 425.4 251.7 424.2" stroke="#263238" stroke-miterlimit="10"/>
<path d="M282.7 461.6C279.9 462.2 277.8 465.1 278.1 467.9C278.9 468.1 279.7 468.4 280.6 468.6" stroke="#263238" stroke-miterlimit="10"/>
<path d="M250.5 462.8C250.6 464.5 250.4 468.5 250.5 470.2Z" fill="white"/>
<path d="M250.5 462.8C250.6 464.5 250.4 468.5 250.5 470.2" stroke="#263238" stroke-miterlimit="10"/>
<path d="M252.4 465.1C252.2 467.8 252 470.6 251.8 473.3C251.8 473 251.8 472.6 251.8 472.3" fill="white"/>
<path d="M252.4 465.1C252.2 467.8 252 470.6 251.8 473.3C251.8 473 251.8 472.6 251.8 472.3" stroke="#263238" stroke-miterlimit="10"/>
<path d="M267.6 488.3C268.3 491.3 268 494.6 266.7 497.4Z" fill="white"/>
<path d="M267.6 488.3C268.3 491.3 268 494.6 266.7 497.4" stroke="#263238" stroke-miterlimit="10"/>
<path d="M242.3 473.9C240.1 476.3 240.4 482 242 485.2" stroke="#263238" stroke-miterlimit="10"/>
<path d="M258.4 477.8C258.5 480.4 257.5 483 255.7 485.1" stroke="#263238" stroke-miterlimit="10"/>
<path d="M226.4 475C226 477.4 226.6 479.9 227.9 482" stroke="#263238" stroke-miterlimit="10"/>
<path d="M217.1 482.5C217 484.4 217.5 486.3 218.6 487.8" stroke="#263238" stroke-miterlimit="10"/>
<path d="M229.8 436.4C230.9 435.9 232.4 436.1 233.3 437C233.7 436.5 234.1 435.9 234.5 435.4" stroke="#263238" stroke-miterlimit="10"/>
<path d="M240.1 443.7C241.8 442.6 244.2 443.1 245.4 444.6" stroke="#263238" stroke-miterlimit="10"/>
<path d="M256.1 448.7C257.9 447.9 260 447.9 261.8 448.8" stroke="#263238" stroke-miterlimit="10"/>
<path d="M220.5 457.1C221.5 455.3 223.7 454.2 225.7 454.5" stroke="#263238" stroke-miterlimit="10"/>
<path d="M213.8 466.7C213.8 465.4 214.9 464.2 216.2 464" stroke="#263238" stroke-miterlimit="10"/>
<path d="M471.4 394.8C494.265 394.8 512.8 376.265 512.8 353.4C512.8 330.535 494.265 312 471.4 312C448.535 312 430 330.535 430 353.4C430 376.265 448.535 394.8 471.4 394.8Z" stroke="#263238" stroke-miterlimit="10" stroke-linecap="round" stroke-linejoin="round"/>
<path opacity="0.2" d="M518.4 354.5C509.6 369 506.4 367 476.3 381.5C461 388.8 446.2 365.3 456.2 341.1C456.7 339.9 461 334 461 334C462.8 326 469.5 319.3 477.5 317.4C485.5 315.5 494.4 318.5 499.6 324.9C505.3 319.9 513.5 318 520.8 319.8C521.2 320.8 521.5 321.8 521.8 322.8C521.9 323.2 522 323.6 522.2 323.9C522.6 325.1 522.9 326.2 523.3 327.4C524 329.6 524.6 331.9 525.1 334.2C521.8 333.3 518.4 333.3 515.3 334.8C513.1 335.9 511.2 337.7 508.9 338.5C506.6 339.4 503.4 338.9 502.5 336.6C503.6 341.2 508.5 339.8 513.1 340.8C520.3 342.1 522.1 348.4 518.4 354.5Z" fill="black"/>
<path d="M504.7 347.3C504.7 347.3 512.1 346.3 515.6 346.8C517.8 347.1 519.2 348.4 519.9 349.2C520.2 349.6 520.4 350 520.4 350.5L520.8 356.3C520.8 357 520.6 357.6 520.2 358.1C518.8 359.6 514.4 362.4 501.4 363.3C483.3 364.9 504.7 347.3 504.7 347.3Z" fill="white" stroke="#263238" stroke-miterlimit="10" stroke-linecap="round" stroke-linejoin="round"/>
<path d="M499.3 332.3C501.4 334.9 505.4 340.8 505.4 349.9C505.4 356.8 497.4 380.4 476.9 383.3C455.2 386.3 437.8 367.8 441.5 345.4C444.1 330 481.9 310.7 499.3 332.3Z" fill="white" stroke="#263238" stroke-miterlimit="10" stroke-linecap="round" stroke-linejoin="round"/>
<path d="M472.8 378.2C490.197 378.2 504.3 364.858 504.3 348.4C504.3 331.942 490.197 318.6 472.8 318.6C455.403 318.6 441.3 331.942 441.3 348.4C441.3 364.858 455.403 378.2 472.8 378.2Z" fill="white"/>
<path d="M472.8 374.5C487.049 374.5 498.6 363.531 498.6 350C498.6 336.469 487.049 325.5 472.8 325.5C458.551 325.5 447 336.469 447 350C447 363.531 458.551 374.5 472.8 374.5Z" fill="#263238"/>
<path d="M504.3 348.4C504.3 331.9 490.2 318.6 472.8 318.6C455.4 318.6 441.3 331.9 441.3 348.4" stroke="#263238" stroke-miterlimit="10" stroke-linecap="round" stroke-linejoin="round"/>
<path d="M496 368.6C501.2 363.3 504.3 356.2 504.3 348.4" stroke="#263238" stroke-miterlimit="10" stroke-linecap="round" stroke-linejoin="round"/>
<path d="M450.8 369.7C456.5 375 464.3 378.2 472.8 378.2C478.1 378.2 483 377 487.4 374.8" stroke="#263238" stroke-miterlimit="10" stroke-linecap="round" stroke-linejoin="round"/>
<path d="M446.2 364.4C446.6 365 447 365.6 447.5 366.2" stroke="#263238" stroke-miterlimit="10" stroke-linecap="round" stroke-linejoin="round"/>
<path d="M441.4 348.4C441.4 352.9 442.5 357.3 444.4 361.1" stroke="#263238" stroke-miterlimit="10" stroke-linecap="round" stroke-linejoin="round"/>
<path d="M519 356.6C519 356.6 513.4 352.7 504.3 356.2Z" fill="white"/>
<path d="M519 356.6C519 356.6 513.4 352.7 504.3 356.2" stroke="#263238" stroke-miterlimit="10" stroke-linecap="round" stroke-linejoin="round"/>
<path d="M514.2 359.3C512.1 359.9 508.5 360.7 502.6 361.1Z" fill="white"/>
<path d="M514.2 359.3C512.1 359.9 508.5 360.7 502.6 361.1" stroke="#263238" stroke-miterlimit="10" stroke-linecap="round" stroke-linejoin="round"/>
<path d="M517.1 358.1C517.1 358.1 516.8 358.4 515.7 358.8Z" fill="white"/>
<path d="M517.1 358.1C517.1 358.1 516.8 358.4 515.7 358.8" stroke="#263238" stroke-miterlimit="10" stroke-linecap="round" stroke-linejoin="round"/>
<path d="M522.1 323.8C522 323.4 521.9 323 521.7 322.7C519.8 316.8 517.3 310.3 514.3 303.4C513.8 302.1 513.2 300.8 512.6 299.5C512.4 299.5 512.2 299.5 511.9 299.6C509 299.9 506 300.3 503.7 301.9C501.3 303.6 499.9 307 501.5 309.4C503 311.8 506.9 313.2 506.3 316C499.9 319.6 492.1 319.2 484.9 321C480.6 322.1 476.5 324 473 326.6C471.9 327.5 470.8 328.4 469.8 329.3C469.4 329.7 468.9 330.2 468.5 330.7C467.9 331.5 467.5 332.3 467.4 333.2C467.2 335.9 469.6 337.7 472.2 338.9C472.7 339.1 472.7 339.8 472.2 340C470.5 340.7 468.9 341.5 467.5 342.7C466.7 343.4 467.4 344.8 468.5 344.7C468.6 344.7 468.8 344.7 468.9 344.7C470 344.6 471 344.8 471.9 345.1C473.4 345.6 474.5 346.7 474.6 348C474.8 350 472.5 351.9 469.5 352.1C468.8 352.2 469.3 353 470.4 353.2C472.5 353.6 474.7 353.2 476.8 352.7C479.3 352.1 482 351.2 483.4 349.1C484 348.2 484.2 347 484 345.9C483.8 344.4 482.8 343.1 481.3 343C485.9 342.4 490.5 341.5 495 340.2L496.4 339.8C497.7 339.4 499.2 338.9 500.3 338.1C501 337.6 501.6 337 502 336.2C503 334.2 501.6 331 499.4 331.4C505.9 328.9 512.7 327.4 519.2 325.1C520 324.7 521.1 324.3 522.1 323.8Z" fill="white"/>
<path d="M476.6 227.4L141.1 228.9L146.2 221.3C148.6 217.6 152.7 215.4 157.1 215.4H460.7C464.7 215.4 468.4 217.2 470.9 220.3L476.6 227.4Z" fill="white" stroke="#263238" stroke-miterlimit="10" stroke-linecap="round" stroke-linejoin="round"/>
<path d="M314.7 364.4H296.3C277.4 364.4 262.1 349.1 262.1 330.2V311.8C262.1 292.9 277.4 277.6 296.3 277.6H314.7C333.6 277.6 348.9 292.9 348.9 311.8V330.2C348.8 349.1 333.6 364.4 314.7 364.4Z" fill="#757575" stroke="#263238" stroke-miterlimit="10" stroke-linecap="round" stroke-linejoin="round"/>
<path d="M277.9 328.3V340.6C277.9 344.5 281 347.6 284.9 347.6H327.2C331 347.6 334.2 344.5 334.2 340.6C334.3 335.1 334.5 328.2 334.5 328.2H277.9V328.3Z" fill="#999999" stroke="#263238" stroke-miterlimit="10" stroke-linecap="round" stroke-linejoin="round"/>
<path d="M432.6 332.5H185.4C182.8 332.5 180.4 330.9 179.5 328.5L141.4 230.6C140.4 228 142.3 225.3 145 225.3H473C475.7 225.3 477.6 228.1 476.6 230.6L438.5 328.5C437.6 330.9 435.2 332.5 432.6 332.5Z" fill="#BFBFBF" stroke="#263238" stroke-miterlimit="10" stroke-linecap="round" stroke-linejoin="round"/>
<path d="M434.5 323.9H183L148.4 231.4H468.9L434.5 323.9Z" fill="#263238"/>
<path d="M334.3 332.3H278.2V336.1H334.3V332.3Z" fill="#263238"/>
<path d="M397.7 320H220.1C219.1 320 218.2 319.6 218 319L192.7 238.8C192.4 237.9 193.2 237.2 194.5 237.2H423.2C424.5 237.2 425.2 237.9 425 238.8L399.8 319C399.6 319.5 398.7 320 397.7 320Z" fill="#3BCBBE"/>
<path d="M397.1 318.1H220.8L199.3 247.6H418.5L397.1 318.1Z" fill="#263238"/>
<path d="M246.1 265.1H212.7C211.9 265.1 211.3 265.5 211.5 266.1C211.7 266.6 212.4 267.1 213.3 267.1H246.5C247.3 267.1 247.9 266.7 247.8 266.1C247.7 265.6 246.9 265.1 246.1 265.1Z" fill="white"/>
<path d="M247.2 271.2H218.8C218 271.2 217.5 271.6 217.6 272.2C217.7 272.7 218.5 273.2 219.3 273.2H247.5C248.3 273.2 248.9 272.8 248.8 272.2C248.8 271.7 248 271.2 247.2 271.2Z" fill="white"/>
<path opacity="0.5" d="M248.3 277.1H216.1C215.3 277.1 214.8 277.5 214.9 278C215 278.5 215.8 278.9 216.6 278.9H248.6C249.4 278.9 250 278.5 249.9 278C249.8 277.5 249.1 277.1 248.3 277.1Z" fill="white"/>
<path d="M249.3 282.799H230.4C229.6 282.799 229.1 283.199 229.2 283.699C229.3 284.199 230 284.599 230.8 284.599H249.6C250.4 284.599 250.9 284.199 250.8 283.699C250.8 283.199 250.1 282.799 249.3 282.799Z" fill="white"/>
<path d="M250.3 288.299H219.2C218.4 288.299 217.9 288.699 218.1 289.199C218.2 289.699 219 290.099 219.7 290.099H250.6C251.4 290.099 251.9 289.699 251.8 289.199C251.8 288.699 251.1 288.299 250.3 288.299Z" fill="white"/>
<path d="M251.3 293.6H226.2C225.4 293.6 224.9 294 225.1 294.4C225.2 294.9 225.9 295.2 226.7 295.2H251.7C252.5 295.2 253 294.8 252.9 294.4C252.7 293.9 252.1 293.6 251.3 293.6Z" fill="white"/>
<path d="M252.3 298.7H227.6C226.9 298.7 226.4 299.1 226.5 299.5C226.6 299.9 227.3 300.3 228.1 300.3H252.7C253.4 300.3 254 299.9 253.9 299.5C253.7 299.1 253 298.7 252.3 298.7Z" fill="white"/>
<path d="M253.2 303.7H226.2C225.5 303.7 225 304.1 225.1 304.5C225.2 304.9 225.9 305.3 226.6 305.3H253.4C254.1 305.3 254.7 305 254.6 304.5C254.6 304 253.9 303.7 253.2 303.7Z" fill="white"/>
<path opacity="0.5" d="M254 308.5H236.6C235.9 308.5 235.4 308.8 235.5 309.3C235.6 309.7 236.3 310.1 237 310.1H254.3C255 310.1 255.5 309.8 255.5 309.3C255.4 308.8 254.8 308.5 254 308.5Z" fill="white"/>
<path opacity="0.5" d="M244.9 258.799H220C219.2 258.799 218.6 259.299 218.7 259.799C218.8 260.399 219.6 260.799 220.5 260.799H245.2C246 260.799 246.6 260.299 246.5 259.799C246.5 259.299 245.8 258.799 244.9 258.799Z" fill="white"/>
<path d="M243.7 252.299H209.1C208.2 252.299 207.7 252.799 207.9 253.399C208.1 253.999 208.9 254.499 209.7 254.499H244.1C244.9 254.499 245.6 253.999 245.4 253.399C245.4 252.699 244.6 252.299 243.7 252.299Z" fill="white"/>
<path d="M254.9 313.1H226.2C225.5 313.1 225 313.4 225.1 313.8C225.2 314.2 225.9 314.5 226.6 314.5H255.2C255.9 314.5 256.4 314.2 256.3 313.8C256.2 313.5 255.6 313.1 254.9 313.1Z" fill="white"/>
<path opacity="0.5" d="M257.8 267.399H264.3L264 264.899H257.4L257.8 267.399Z" fill="white"/>
<path opacity="0.5" d="M258.7 273.4H265.1L264.8 271H258.4L258.7 273.4Z" fill="white"/>
<path opacity="0.5" d="M259.6 279.199H265.8L265.5 276.899H259.2L259.6 279.199Z" fill="white"/>
<path opacity="0.5" d="M260.4 284.8H266.6L266.3 282.6H260.1L260.4 284.8Z" fill="white"/>
<path opacity="0.5" d="M261.2 290.2H267.3L267 288H260.9L261.2 290.2Z" fill="white"/>
<path opacity="0.5" d="M262 295.399H268L267.7 293.399H261.7L262 295.399Z" fill="white"/>
<path opacity="0.5" d="M262.8 300.5H268.6L268.4 298.5H262.5L262.8 300.5Z" fill="white"/>
<path opacity="0.5" d="M263.5 305.4H269.3L269 303.5H263.2L263.5 305.4Z" fill="white"/>
<path opacity="0.5" d="M264.2 310.199H269.9L269.7 308.299H264L264.2 310.199Z" fill="white"/>
<path opacity="0.5" d="M256.9 261.1H263.5L263.1 258.6H256.5L256.9 261.1Z" fill="white"/>
<path opacity="0.5" d="M255.9 254.6H262.6L262.3 252H255.5L255.9 254.6Z" fill="white"/>
<path opacity="0.5" d="M264.9 314.799H270.5L270.3 312.899H264.7L264.9 314.799Z" fill="white"/>
<path d="M299 304.4C299 304 299.6 303.6 300.3 303.6H396.1C396.8 303.6 397.3 304 397.2 304.4C397.1 304.8 396.4 305.2 395.7 305.2H300.4C299.7 305.2 299.1 304.9 299 304.4Z" fill="white"/>
<path d="M397.1 300.3H344C343.3 300.3 342.7 299.9 342.7 299.5C342.7 299.1 343.4 298.7 344.1 298.7H397.4C398.1 298.7 398.6 299.1 398.5 299.5C398.6 299.9 397.9 300.3 397.1 300.3Z" fill="white"/>
<path opacity="0.5" d="M331.5 300.3H315C314.3 300.3 313.7 299.9 313.7 299.5C313.7 299.1 314.3 298.7 315.1 298.7H331.7C332.4 298.7 333 299.1 333 299.5C332.8 299.9 332.2 300.3 331.5 300.3Z" fill="white"/>
<path d="M365.9 295.2H291.1C290.3 295.2 289.7 294.8 289.7 294.4C289.7 293.9 290.3 293.6 291 293.6H366.2C367 293.6 367.5 294 367.4 294.4C367.4 294.9 366.7 295.2 365.9 295.2Z" fill="white"/>
<path opacity="0.5" d="M275.4 293.6H280.7C281.5 293.6 282.1 294 282.1 294.4C282.1 294.9 281.6 295.2 280.8 295.2H275.5C274.7 295.2 274.1 294.8 274 294.4C274.1 293.9 274.7 293.6 275.4 293.6Z" fill="white"/>
<path d="M376.7 289.1C376.6 289.6 375.9 290 375.1 290H304.6C303.8 290 303.2 289.6 303.2 289.1C303.2 288.6 303.8 288.2 304.6 288.2H375.5C376.3 288.3 376.9 288.7 376.7 289.1Z" fill="white"/>
<path d="M274.9 288.299H294.9C295.7 288.299 296.3 288.699 296.3 289.199C296.3 289.699 295.7 290.099 295 290.099H275.1C274.3 290.099 273.7 289.699 273.6 289.199C273.5 288.699 274.1 288.299 274.9 288.299Z" fill="white"/>
<path d="M274.3 282.799H351.2C352 282.799 352.6 283.199 352.5 283.699C352.4 284.199 351.8 284.599 351 284.599H274.5C273.7 284.599 273 284.199 273 283.699C272.9 283.199 273.5 282.799 274.3 282.799Z" fill="white"/>
<path d="M324.2 278.9C323.4 278.9 322.8 278.5 322.8 278C322.8 277.5 323.5 277.1 324.3 277.1H364.9C365.7 277.1 366.3 277.5 366.2 278C366.1 278.5 365.4 278.9 364.6 278.9H324.2Z" fill="white"/>
<path d="M273.7 277.1H308.8C309.6 277.1 310.2 277.5 310.2 278C310.2 278.5 309.6 278.9 308.8 278.9H273.9C273.1 278.9 272.4 278.5 272.4 278C272.3 277.5 272.9 277.1 273.7 277.1Z" fill="white"/>
<path d="M404.9 273.1H308.2C307.4 273.1 306.7 272.7 306.7 272.1C306.7 271.6 307.3 271.1 308.2 271.1H405.5C406.3 271.1 406.8 271.5 406.7 272.1C406.5 272.7 405.7 273.1 404.9 273.1Z" fill="white"/>
<path d="M406.7 267.1H321.6C320.8 267.1 320.1 266.7 320.1 266.1C320.1 265.6 320.8 265.1 321.6 265.1H407.2C408 265.1 408.6 265.5 408.4 266.1C408.3 266.7 407.5 267.1 406.7 267.1Z" fill="white"/>
<path opacity="0.5" d="M408.4 260.899H390.6C389.8 260.899 389.2 260.399 389.3 259.899C389.4 259.299 390.2 258.899 391.1 258.899H409C409.8 258.899 410.4 259.399 410.2 259.899C410.1 260.399 409.3 260.899 408.4 260.899Z" fill="white"/>
<path d="M378.2 260.899H312.8C312 260.899 311.3 260.399 311.3 259.899C311.3 259.299 312 258.899 312.8 258.899H378.6C379.4 258.899 380 259.399 379.9 259.899C379.8 260.399 379 260.899 378.2 260.899Z" fill="white"/>
<path d="M277 308.5H337.4C338.1 308.5 338.7 308.8 338.6 309.3C338.6 309.7 337.9 310.1 337.2 310.1H277.1C276.4 310.1 275.8 309.8 275.7 309.3C275.8 308.8 276.3 308.5 277 308.5Z" fill="white"/>
<path d="M277.5 313.1H370.3C371 313.1 371.5 313.4 371.4 313.8C371.3 314.2 370.7 314.5 370 314.5H277.6C276.9 314.5 276.3 314.2 276.2 313.8C276.3 313.5 276.8 313.1 277.5 313.1Z" fill="white"/>
<path d="M374.9 254.4H327.6C326.8 254.4 326.1 253.9 326.1 253.3C326.1 252.7 326.8 252.2 327.7 252.2H375.2C376.1 252.2 376.7 252.7 376.5 253.3C376.5 253.9 375.8 254.4 374.9 254.4Z" fill="white"/>
<path opacity="0.5" d="M314.2 254.4H271.2C270.4 254.4 269.6 253.9 269.5 253.3C269.4 252.7 270.1 252.2 270.9 252.2H314.1C315 252.2 315.6 252.7 315.6 253.3C315.8 253.9 315.1 254.4 314.2 254.4Z" fill="white"/>
<path opacity="0.5" d="M350.9 308.5C351.6 308.5 352.2 308.8 352.1 309.3C352 309.7 351.4 310.1 350.7 310.1H346C345.3 310.1 344.7 309.8 344.8 309.3C344.9 308.9 345.5 308.5 346.2 308.5H350.9Z" fill="white"/>
<path opacity="0.5" d="M293.5 304.4C293.5 304.8 292.9 305.2 292.2 305.2H285.8C285.1 305.2 284.5 304.9 284.4 304.4C284.4 304 284.9 303.6 285.7 303.6H292.1C292.9 303.7 293.5 304 293.5 304.4Z" fill="white"/>
<path opacity="0.5" d="M370.299 283.699C370.199 284.199 369.5 284.599 368.7 284.599H361.299C360.499 284.599 360 284.199 360 283.699C360.1 283.199 360.8 282.799 361.6 282.799H369.1C369.8 282.799 370.399 283.199 370.299 283.699Z" fill="white"/>
<path opacity="0.5" d="M393.5 288.299C394.3 288.299 394.8 288.699 394.7 289.199C394.6 289.699 393.8 290.099 393.1 290.099H387.2C386.4 290.099 385.9 289.699 386 289.199C386.1 288.699 386.8 288.299 387.6 288.299H393.5Z" fill="white"/>
<path opacity="0.5" d="M296.5 273.1C295.7 273.1 295 272.7 295 272.1C295 271.6 295.6 271.1 296.4 271.1H302.7C303.5 271.1 304.2 271.5 304.2 272.1C304.2 272.6 303.6 273.1 302.8 273.1H296.5Z" fill="white"/>
<path d="M210.599 242.3C211.099 243.9 210.099 245.3 208.499 245.3C206.899 245.3 205.099 244 204.599 242.3C204.099 240.6 204.999 239.3 206.699 239.3C208.299 239.3 210.099 240.7 210.599 242.3Z" fill="white"/>
<path d="M218.699 242.4C219.099 244 218.099 245.3 216.499 245.3C214.899 245.3 213.099 244 212.699 242.4C212.199 240.7 213.199 239.4 214.899 239.4C216.499 239.4 218.299 240.7 218.699 242.4Z" fill="white"/>
<path d="M226.899 242.3C227.299 243.9 226.299 245.3 224.599 245.3C222.999 245.3 221.299 244 220.899 242.3C220.499 240.6 221.499 239.3 223.199 239.3C224.899 239.3 226.599 240.7 226.899 242.3Z" fill="white"/>
<path opacity="0.1" d="M148.4 231.4L175.3 303.5L207.8 231.4H148.4Z" fill="white"/>
<path opacity="0.1" d="M193.8 323.9L247.8 231.4H304.2L224.9 323.9H193.8Z" fill="white"/>
<path opacity="0.1" d="M328.6 231L244.5 323.9H257.4L344.5 231.4L328.6 231Z" fill="white"/>
<path opacity="0.1" d="M345.2 323.9L437.5 231.4H450.6L355.3 323.9H345.2Z" fill="white"/>
<path d="M219.9 364.1H198.8C196.1 364.1 193.8 366.3 193.8 369.1V379.4C193.8 382.1 196 384.4 198.8 384.4H204.3L208.5 393.9L214.4 384.4H219.9C222.6 384.4 224.9 382.2 224.9 379.4V369C224.9 366.3 222.6 364.1 219.9 364.1Z" fill="white" stroke="#263238" stroke-miterlimit="10" stroke-linecap="round" stroke-linejoin="round"/>
<path d="M206.4 369.9C206.4 369.4 206.8 368.9 207.4 368.9C208 368.9 208.4 369.3 208.4 369.8C208.4 370.4 208 370.8 207.4 370.8C206.9 370.9 206.4 370.5 206.4 369.9ZM206.6 372H208.2V378.9H206.6V372Z" fill="#263238"/>
<path d="M212.1 371.7V372.1H214V373.4H212.2V378.9H210.6V373.4H209.5V372.1H210.6V371.7C210.6 370.3 211.5 369.3 213.1 369.3C213.7 369.3 214.2 369.4 214.6 369.7L214.2 370.9C214 370.7 213.6 370.6 213.3 370.6C212.5 370.6 212.1 370.9 212.1 371.7Z" fill="#263238"/>
<path d="M284.1 365.5H263C260.3 365.5 258 367.7 258 370.5V380.8C258 383.5 260.2 385.8 263 385.8H268.5L272.7 395.3L278.6 385.8H284.1C286.8 385.8 289.1 383.6 289.1 380.8V370.5C289.1 367.7 286.9 365.5 284.1 365.5Z" fill="white" stroke="#263238" stroke-miterlimit="10" stroke-linecap="round" stroke-linejoin="round"/>
<path d="M267.5 377.4H262.1C262.3 378.4 263.1 379 264.3 379C265.1 379 265.7 378.8 266.2 378.3L267.1 379.3C266.5 380 265.5 380.4 264.3 380.4C262 380.4 260.5 378.9 260.5 376.9C260.5 374.9 262 373.4 264 373.4C266 373.4 267.5 374.8 267.5 376.9C267.5 377.1 267.5 377.3 267.5 377.4ZM262.1 376.3H266C265.9 375.3 265.1 374.6 264.1 374.6C263 374.7 262.2 375.3 262.1 376.3Z" fill="#263238"/>
<path d="M269 370.8H270.6V380.3H269V370.8Z" fill="#263238"/>
<path d="M271.9 379.6L272.5 378.4C273.1 378.8 274 379.1 274.9 379.1C275.9 379.1 276.3 378.8 276.3 378.3C276.3 377 272.1 378.2 272.1 375.5C272.1 374.2 273.3 373.4 275.1 373.4C276 373.4 277.1 373.6 277.7 374L277.1 375.2C276.4 374.8 275.8 374.7 275.1 374.7C274.1 374.7 273.7 375 273.7 375.5C273.7 376.9 277.9 375.7 277.9 378.3C277.9 379.6 276.7 380.4 274.8 380.4C273.7 380.4 272.6 380.1 271.9 379.6Z" fill="#263238"/>
<path d="M285.8 377.4H280.4C280.6 378.4 281.4 379 282.6 379C283.4 379 284 378.8 284.5 378.3L285.4 379.3C284.8 380 283.8 380.4 282.6 380.4C280.3 380.4 278.8 378.9 278.8 376.9C278.8 374.9 280.3 373.4 282.3 373.4C284.3 373.4 285.8 374.8 285.8 376.9C285.8 377.1 285.8 377.3 285.8 377.4ZM280.4 376.3H284.3C284.2 375.3 283.4 374.6 282.4 374.6C281.3 374.7 280.5 375.3 280.4 376.3Z" fill="#263238"/>
<path d="M346.4 364.9H325.3C322.6 364.9 320.3 367.1 320.3 369.9V380.2C320.3 382.9 322.5 385.2 325.3 385.2H330.8L335 394.7L340.9 385.2H346.4C349.1 385.2 351.4 383 351.4 380.2V369.9C351.3 367.1 349.1 364.9 346.4 364.9Z" fill="white" stroke="#263238" stroke-miterlimit="10" stroke-linecap="round" stroke-linejoin="round"/>
<path d="M330.1 372.5V372.9H332V374.2H330.201V379.7H328.6V374.2H327.5V372.9H328.6V372.5C328.6 371.1 329.5 370.1 331.1 370.1C331.7 370.1 332.2 370.2 332.6 370.5L332.1 371.7C331.9 371.5 331.501 371.4 331.201 371.4C330.501 371.4 330.1 371.8 330.1 372.5Z" fill="#263238"/>
<path d="M332.4 376.3C332.4 374.2 333.9 372.8 336 372.8C338.1 372.8 339.7 374.3 339.7 376.3C339.7 378.4 338.2 379.8 336 379.8C334 379.8 332.4 378.3 332.4 376.3ZM338.1 376.3C338.1 375 337.2 374.2 336.1 374.2C334.9 374.2 334.1 375 334.1 376.3C334.1 377.6 335 378.4 336.1 378.4C337.2 378.4 338.1 377.6 338.1 376.3Z" fill="#263238"/>
<path d="M345.201 372.8V374.3C345.101 374.3 344.901 374.3 344.801 374.3C343.601 374.3 342.801 375 342.801 376.4V379.7H341.201V372.8H342.701V373.8C343.301 373.1 344.101 372.8 345.201 372.8Z" fill="#263238"/>
<path d="M407.7 364.1H386.6C383.9 364.1 381.6 366.3 381.6 369.1V379.4C381.6 382.1 383.8 384.4 386.6 384.4H392.1L396.3 393.9L402.2 384.4H407.7C410.4 384.4 412.7 382.2 412.7 379.4V369C412.7 366.3 410.5 364.1 407.7 364.1Z" fill="white" stroke="#263238" stroke-miterlimit="10" stroke-linecap="round" stroke-linejoin="round"/>
<path d="M394.4 371.7H400.3V373H394.4V371.7ZM394.4 374.8H400.3V376.1H394.4V374.8Z" fill="#263238"/>
<path d="M252.1 352.2H231C228.3 352.2 226 354.4 226 357.2V367.5C226 370.2 228.2 372.5 231 372.5H236.5L240.7 382L246.6 372.5H252.1C254.8 372.5 257.1 370.3 257.1 367.5V357.2C257 354.4 254.8 352.2 252.1 352.2Z" fill="white" stroke="#263238" stroke-miterlimit="10" stroke-linecap="round" stroke-linejoin="round"/>
<path d="M236.5 356.5H239.6V357.8H238.1V367.3H239.6V368.6H236.5V356.5Z" fill="#263238"/>
<path d="M243.6 368.5V367.2H245.1V357.7H243.6V356.4H246.7V368.4H243.6V368.5Z" fill="#263238"/>
<path d="M314.8 351.1H293.7C291 351.1 288.7 353.3 288.7 356.1V366.4C288.7 369.1 290.9 371.4 293.7 371.4H299.2L303.4 380.9L309.3 371.4H314.8C317.5 371.4 319.8 369.2 319.8 366.4V356.1C319.7 353.4 317.5 351.1 314.8 351.1Z" fill="white" stroke="#263238" stroke-miterlimit="10" stroke-linecap="round" stroke-linejoin="round"/>
<path d="M299.9 361.4C300.4 361.6 300.7 361.9 300.7 362.7V365.1C300.7 365.7 301 366.1 301.7 366.1H302V367.4H301.4C299.9 367.4 299.2 366.7 299.2 365.3V362.7C299.2 362.3 299 362.1 298.6 362.1H298.2V360.8H298.6C299 360.8 299.2 360.6 299.2 360.2V357.6C299.2 356.2 299.9 355.5 301.4 355.5H302V356.8H301.7C301.1 356.8 300.7 357.2 300.7 357.8V360.2C300.7 360.9 300.5 361.2 299.9 361.4Z" fill="#263238"/>
<path d="M309.7 360.7V362H309.3C309 362 308.7 362.2 308.7 362.6V365.2C308.7 366.6 308 367.3 306.5 367.3H305.9V366H306.2C306.9 366 307.2 365.6 307.2 365V362.6C307.2 361.8 307.4 361.5 307.9 361.3C307.4 361.1 307.2 360.8 307.2 360V357.6C307.2 357 306.9 356.6 306.2 356.6H305.9V355.3H306.5C308 355.3 308.7 356 308.7 357.4V360C308.7 360.4 308.9 360.6 309.3 360.6H309.7V360.7Z" fill="#263238"/>
<path d="M376.8 349.1H355.7C353 349.1 350.7 351.3 350.7 354.1V364.4C350.7 367.1 352.9 369.4 355.7 369.4H361.2L365.4 378.9L371.3 369.4H376.8C379.5 369.4 381.8 367.2 381.8 364.4V354C381.8 351.3 379.6 349.1 376.8 349.1Z" fill="white" stroke="#263238" stroke-miterlimit="10" stroke-linecap="round" stroke-linejoin="round"/>
<path d="M365.4 356.7C365.4 356.1 365.9 355.6 366.5 355.6C367.1 355.6 367.6 356 367.6 356.7C367.6 357.3 367.1 357.8 366.5 357.8C365.9 357.7 365.4 357.3 365.4 356.7ZM367.6 361.6C367.6 361.9 367.5 362.1 367.3 362.7L366.6 364.5H365.6L366.1 362.5C365.7 362.3 365.5 362 365.5 361.5C365.5 360.9 365.9 360.4 366.5 360.4C367.1 360.5 367.6 360.9 367.6 361.6Z" fill="#263238"/>
<path d="M294.4 528.5H315.5C318.2 528.5 320.5 526.3 320.5 523.5V513.2C320.5 510.5 318.3 508.2 315.5 508.2H310L308.4 498.7L299.9 508.2H294.4C291.7 508.2 289.4 510.4 289.4 513.2V523.5C289.4 526.3 291.6 528.5 294.4 528.5Z" fill="white" stroke="#263238" stroke-miterlimit="10" stroke-linecap="round" stroke-linejoin="round"/>
<path d="M301.8 516.3L297.4 518L301.8 519.7V521L295.9 518.7V517.3L301.8 515V516.3Z" fill="#263238"/>
<path d="M306.4 511.6H307.8L303.6 523.7H302.2L306.4 511.6Z" fill="#263238"/>
<path d="M314.1 517.3V518.7L308.2 521V519.7L312.6 518L308.2 516.3V515L314.1 517.3Z" fill="#263238"/>
<path d="M160.2 453.8H181.3C184 453.8 186.3 451.6 186.3 448.8V438.5C186.3 435.8 184.1 433.5 181.3 433.5H175.8L177 424L165.7 433.5H160.2C157.5 433.5 155.2 435.7 155.2 438.5V448.8C155.3 451.5 157.5 453.8 160.2 453.8Z" fill="white" stroke="#263238" stroke-miterlimit="10" stroke-linecap="round" stroke-linejoin="round"/>
<path d="M166.5 447.2C166.5 446.6 166.9 446.2 167.5 446.2C168.1 446.2 168.5 446.6 168.5 447.2C168.5 447.8 168.1 448.2 167.5 448.2C166.9 448.2 166.5 447.8 166.5 447.2ZM166.6 439.2H168.5L168.2 445.2H166.9L166.6 439.2Z" fill="#263238"/>
<path d="M170.1 441.5H176V442.8H170.1V441.5ZM170.1 444.6H176V445.9H170.1V444.6Z" fill="#263238"/>
<path d="M498 442.1C498 446.2 497.7 450.2 497 454C494.1 471.3 485 483.9 474.2 483.9C473.2 483.9 472.3 483.8 471.3 483.6C459.6 481.1 450.4 463.5 450.4 442.1C450.4 419 461 410.9 474.1 410.9C487.4 410.9 498 419 498 442.1Z" fill="white"/>
<path d="M489.4 442.4C490.3 454.8 488.2 467.2 484.6 479.1C493.5 471.8 497.7 460.2 501.4 449.3C504.1 441.3 506.8 433.2 506.3 424.8C505.8 416.4 501.3 407.7 493.5 404.8C489.7 403.4 485.2 403.5 481.4 405C474.8 407.6 478.4 409.8 481.2 414.5C486.1 422.9 488.7 432.6 489.4 442.4Z" fill="#3BCBBE"/>
<path opacity="0.5" d="M489.4 442.4C490.3 454.8 488.2 467.2 484.6 479.1C493.5 471.8 497.7 460.2 501.4 449.3C504.1 441.3 506.8 433.2 506.3 424.8C505.8 416.4 501.3 407.7 493.5 404.8C489.7 403.4 485.2 403.5 481.4 405C474.8 407.6 478.4 409.8 481.2 414.5C486.1 422.9 488.7 432.6 489.4 442.4Z" fill="white"/>
<path d="M498 442.1C498 446.2 497.7 450.2 497 454C494.1 471.3 485 483.9 474.2 483.9C473.2 483.9 472.3 483.8 471.3 483.6C459.6 481.1 450.4 463.5 450.4 442.1C450.4 419 461 410.9 474.1 410.9C487.4 410.9 498 419 498 442.1Z" stroke="#263238" stroke-miterlimit="10"/>
<path d="M487 463.4C485.4 468.7 482.8 473.7 479.2 478Z" fill="white"/>
<path d="M487 463.4C485.4 468.7 482.8 473.7 479.2 478" stroke="#263238" stroke-miterlimit="10"/>
<path d="M487.8 460.4C487.7 461 487.5 461.5 487.4 462.1" stroke="#263238" stroke-miterlimit="10"/>
<path d="M487.7 442.1C489 447.4 489.1 453 488.2 458.4Z" fill="white"/>
<path d="M487.7 442.1C489 447.4 489.1 453 488.2 458.4" stroke="#263238" stroke-miterlimit="10"/>
<path d="M450.601 442.1C450.601 442.1 477.601 431.4 498.101 442.1" stroke="#263238" stroke-miterlimit="10"/>
<path d="M474.3 410.9C474.3 410.9 477 420.9 477.3 437.2Z" fill="white"/>
<path d="M474.3 410.9C474.3 410.9 477 420.9 477.3 437.2" stroke="#263238" stroke-miterlimit="10"/>
<path d="M478.1 423C478.4 426.1 477.9 428.8 476.9 428.9C475.9 429.1 474.8 426.7 474.4 423.6C474.1 420.5 474.6 417.8 475.6 417.7C476.6 417.5 477.7 419.9 478.1 423Z" fill="#BFBFBF" stroke="#263238" stroke-miterlimit="10" stroke-linecap="round" stroke-linejoin="round"/>
<path d="M463.7 491.9H432C428.1 491.9 424.8 489 424.3 485.2C424.2 484.9 424.2 484.5 424.2 484.1V409.5C424.2 409.1 424.2 408.8 424.3 408.4C424.8 404.6 428.1 401.7 432 401.7H521.7C523.1 401.7 524.3 402 525.4 402.7" stroke="#263238" stroke-miterlimit="10"/>
</g>
<defs>
<filter id="filter0_f_32_1158" x="-67" y="-61" width="763.562" height="763.562" filterUnits="userSpaceOnUse" color-interpolation-filters="sRGB">
<feFlood flood-opacity="0" result="BackgroundImageFix"/>
<feBlend mode="normal" in="SourceGraphic" in2="BackgroundImageFix" result="shape"/>
<feGaussianBlur stdDeviation="100" result="effect1_foregroundBlur_32_1158"/>
</filter>
<clipPath id="clip0_32_1158">
<rect width="630" height="576" fill="white"/>
</clipPath>
</defs>
</svg>
