<svg width="630" height="576" viewBox="0 0 630 576" fill="none" xmlns="http://www.w3.org/2000/svg">
<g clip-path="url(#clip0_32_1845)">
<path d="M190.72 272.2H158.8V313.36H114.56V272.2H9V241.68L101.4 117.36H149L63.32 235.24H115.96V198.56H158.8V235.24H190.72V272.2Z" fill="#3BCBBE"/>
<path d="M288.287 316.72C272.047 316.72 257.58 312.707 244.887 304.68C232.194 296.653 222.207 285.08 214.927 269.96C207.834 254.653 204.287 236.453 204.287 215.36C204.287 194.267 207.834 176.16 214.927 161.04C222.207 145.733 232.194 134.067 244.887 126.04C257.58 118.013 272.047 114 288.287 114C304.527 114 318.994 118.013 331.687 126.04C344.38 134.067 354.274 145.733 361.367 161.04C368.647 176.16 372.287 194.267 372.287 215.36C372.287 236.453 368.647 254.653 361.367 269.96C354.274 285.08 344.38 296.653 331.687 304.68C318.994 312.707 304.527 316.72 288.287 316.72ZM288.287 278.36C300.234 278.36 309.567 273.227 316.287 262.96C323.194 252.693 326.647 236.827 326.647 215.36C326.647 193.893 323.194 178.027 316.287 167.76C309.567 157.493 300.234 152.36 288.287 152.36C276.527 152.36 267.194 157.493 260.287 167.76C253.567 178.027 250.207 193.893 250.207 215.36C250.207 236.827 253.567 252.693 260.287 262.96C267.194 273.227 276.527 278.36 288.287 278.36Z" fill="#3BCBBE"/>
<path d="M439.686 223.2C425.313 223.2 413.553 218.347 404.406 208.64C395.446 198.747 390.966 185.587 390.966 169.16C390.966 152.733 395.446 139.667 404.406 129.96C413.553 120.067 425.313 115.12 439.686 115.12C454.059 115.12 465.726 120.067 474.686 129.96C483.646 139.667 488.126 152.733 488.126 169.16C488.126 185.587 483.646 198.747 474.686 208.64C465.726 218.347 454.059 223.2 439.686 223.2ZM556.446 117.36H589.766L455.926 313.36H422.606L556.446 117.36ZM439.686 200.24C446.033 200.24 450.979 197.627 454.526 192.4C458.259 187.173 460.126 179.427 460.126 169.16C460.126 158.893 458.259 151.147 454.526 145.92C450.979 140.693 446.033 138.08 439.686 138.08C433.526 138.08 428.579 140.787 424.846 146.2C421.113 151.427 419.246 159.08 419.246 169.16C419.246 179.24 421.113 186.987 424.846 192.4C428.579 197.627 433.526 200.24 439.686 200.24ZM572.686 315.6C563.353 315.6 554.953 313.453 547.486 309.16C540.206 304.68 534.513 298.333 530.406 290.12C526.299 281.907 524.246 272.387 524.246 261.56C524.246 250.733 526.299 241.213 530.406 233C534.513 224.787 540.206 218.533 547.486 214.24C554.953 209.76 563.353 207.52 572.686 207.52C587.059 207.52 598.726 212.467 607.686 222.36C616.833 232.067 621.406 245.133 621.406 261.56C621.406 277.987 616.833 291.147 607.686 301.04C598.726 310.747 587.059 315.6 572.686 315.6ZM572.686 292.64C579.033 292.64 583.979 290.027 587.526 284.8C591.259 279.387 593.126 271.64 593.126 261.56C593.126 251.48 591.259 243.827 587.526 238.6C583.979 233.187 579.033 230.48 572.686 230.48C566.526 230.48 561.579 233.093 557.846 238.32C554.113 243.547 552.246 251.293 552.246 261.56C552.246 271.827 554.113 279.573 557.846 284.8C561.579 290.027 566.526 292.64 572.686 292.64Z" fill="#3BCBBE"/>
<g filter="url(#filter0_f_32_1845)">
<circle cx="314.781" cy="320.781" r="181.781" fill="#3BCBBE" fill-opacity="0.37"/>
</g>
<path d="M521.6 323.1C472.9 239.6 340.6 269.4 313.6 228.8C299.8 208 284.3 183.9 261.9 171.4C240.5 159.5 215.7 155.2 194.1 156.8C116.9 162.5 84.2002 231.5 99.0002 307.4C118.7 408.5 208.4 511.9 315 512.6C370.7 513 424 493 465.7 464.9C466 464.7 466.3 464.5 466.6 464.3C508.3 435.9 558.8 386.8 521.6 323.1Z" fill="#3BCBBE" fill-opacity="0.08"/>
<path d="M143.2 329.2H137.8C125.7 329.2 115.9 339 115.9 351.1V471.4C115.9 483.5 125.7 493.3 137.8 493.3H212.2C224.3 493.3 234.1 483.5 234.1 471.4" stroke="#263238" stroke-width="1.1031" stroke-miterlimit="10" stroke-linecap="round" stroke-linejoin="round" stroke-dasharray="4.41 4.41"/>
<path d="M228 215.6V191.9C228 184.5 234 178.5 241.4 178.5H338.1C345.5 178.5 351.5 184.5 351.5 191.9" stroke="#263238" stroke-width="1.1031" stroke-miterlimit="10" stroke-linecap="round" stroke-linejoin="round" stroke-dasharray="4.41 4.41"/>
<path d="M315 586.2C420.763 586.2 506.5 574.201 506.5 559.4C506.5 544.599 420.763 532.6 315 532.6C209.237 532.6 123.5 544.599 123.5 559.4C123.5 574.201 209.237 586.2 315 586.2Z" fill="#3BCBBE"/>
<path opacity="0.5" d="M315 586.2C420.763 586.2 506.5 574.201 506.5 559.4C506.5 544.599 420.763 532.6 315 532.6C209.237 532.6 123.5 544.599 123.5 559.4C123.5 574.201 209.237 586.2 315 586.2Z" fill="white"/>
<path d="M495.5 247.5V427.6C495.5 439.9 485.6 449.8 473.3 449.8H156.7C144.4 449.8 134.5 439.9 134.5 427.6V247.5C134.5 247 134.5 246.5 134.6 245.9C135.4 234.4 145 225.3 156.7 225.3H473.4C485.1 225.3 494.7 234.4 495.5 245.9C495.5 246.5 495.5 247 495.5 247.5Z" fill="white" stroke="#263238" stroke-width="1.1031" stroke-miterlimit="10" stroke-linecap="round" stroke-linejoin="round"/>
<path d="M465.1 441.4H166.1C154.6 441.4 145.3 432.1 145.3 420.6V254.3H485.9V420.6C485.9 432.1 476.6 441.4 465.1 441.4Z" fill="#263238"/>
<path opacity="0.2" d="M485.9 254.3V420.6C485.9 432.1 476.7 441.4 465.3 441.4H165.8C154.4 441.4 145.2 432.1 145.2 420.6V254.3H485.9Z" fill="white"/>
<path d="M495.5 246H134.5C135.3 234.5 144.9 225.4 156.6 225.4H473.3C485.1 225.3 494.7 234.4 495.5 246Z" fill="#3BCBBE" stroke="#263238" stroke-width="1.1031" stroke-miterlimit="10"/>
<path d="M178.9 235.6C178.9 237.8 177.1 239.5 175 239.5C172.8 239.5 171.1 237.7 171.1 235.6C171.1 233.4 172.9 231.7 175 231.7C177.1 231.7 178.9 233.5 178.9 235.6Z" fill="#263238"/>
<path d="M195.5 235.6C195.5 237.8 193.7 239.5 191.6 239.5C189.4 239.5 187.7 237.7 187.7 235.6C187.7 233.4 189.5 231.7 191.6 231.7C193.7 231.7 195.5 233.5 195.5 235.6Z" fill="#263238"/>
<path d="M208.2 239.5C210.354 239.5 212.1 237.754 212.1 235.6C212.1 233.446 210.354 231.7 208.2 231.7C206.046 231.7 204.3 233.446 204.3 235.6C204.3 237.754 206.046 239.5 208.2 239.5Z" fill="#263238"/>
<path d="M485.9 254.3V420.6C485.9 432.1 476.6 441.4 465.1 441.4H166.1C156 441.4 147.6 434.2 145.7 424.6C145.4 423.3 145.3 422 145.3 420.6V254.3H485.9Z" stroke="#263238" stroke-width="1.1031" stroke-miterlimit="10"/>
<path d="M485.5 280C484 279.2 482.5 278.5 480.9 278.1L479 269.7H471.1L469.2 278.1C467.6 278.5 466 279.2 464.6 280L457.4 275.4L451.8 281L456.3 288.2C455.5 289.7 454.8 291.2 454.4 292.8L446 294.7V302.6L454.4 304.5C454.8 306.1 455.5 307.7 456.3 309.2L451.7 316.4L457.3 322L464.5 317.4C466 318.2 467.5 318.9 469.1 319.3L471 327.6H478.9L480.8 319.3C482.4 318.8 484 318.2 485.4 317.4L485.8 317.6V279.8L485.5 280ZM475.1 309C469.4 309 464.8 304.4 464.8 298.7C464.8 293 469.4 288.4 475.1 288.4C480.8 288.4 485.4 293 485.4 298.7C485.4 304.4 480.8 309 475.1 309Z" fill="#263238"/>
<path d="M342.5 288.1V271.4L324.9 267.5C323.9 264.1 322.6 260.8 320.9 257.7L323 254.3H239.9L242 257.6C240.3 260.7 238.9 264 238 267.4L220.4 271.3V288L238 291.9C238.9 295.3 240.3 298.6 242 301.7L232.3 316.9L244.1 328.7L259.3 319C262.4 320.7 265.7 322.1 269.1 323L273 340.6H289.7L293.6 323C297 322 300.3 320.7 303.3 319L318.5 328.7L330.3 316.9L320.7 301.7C322.4 298.6 323.8 295.3 324.7 291.9L342.5 288.1ZM281.4 301.3C269.5 301.3 259.8 291.6 259.8 279.7C259.8 267.8 269.5 258.1 281.4 258.1C293.3 258.1 303 267.8 303 279.7C303 291.6 293.4 301.3 281.4 301.3Z" fill="#263238"/>
<path d="M231.4 403L232.1 389.7L218.3 385.8C217.7 383.1 216.7 380.4 215.5 377.9L223.8 366.2L214.9 356.3L202.4 363.3C200 361.8 197.5 360.6 194.8 359.7L192.4 345.6L179.1 344.9L175.3 358.7C172.6 359.3 169.9 360.3 167.4 361.5L155.7 353.2L145.8 362.1L152.9 374.6C151.4 377 150.2 379.5 149.3 382.2L145.3 382.9V400.9L148.2 401.7C148.8 404.4 149.8 407.1 151 409.6L145.3 417.6L145.7 424.5L151.6 431.1L164.1 424.1C166.5 425.6 169 426.9 171.7 427.8L174 441.4L174.1 442L187.4 442.7L187.8 441.4L191.3 428.9C194.1 428.3 196.7 427.3 199.2 426.1L210.8 434.4L220.7 425.5L213.7 413C215.2 410.6 216.4 408.1 217.3 405.4L231.4 403ZM196.1 382.3C189.7 375.2 178.9 374.7 171.8 381C164.7 387.4 164.2 398.2 170.5 405.3C176.9 412.4 187.7 412.9 194.8 406.6C201.9 400.2 202.5 389.3 196.1 382.3Z" fill="#263238"/>
<path d="M337.6 383.2C338.1 381.1 338.4 379 338.4 376.9L347.9 371.9L345.3 362.2L334.5 362.7C333.4 360.9 332.1 359.2 330.6 357.7L333.8 347.4L325.1 342.4L317.8 350.3C315.8 349.8 313.6 349.5 311.5 349.5L306.5 339.9L296.8 342.5L297.3 353.3C295.5 354.4 293.8 355.7 292.3 357.2L282 354L277 362.7L285 370C284.5 372.1 284.2 374.2 284.2 376.3L274.6 381.3L277.2 391L288 390.5C289.1 392.3 290.4 394 291.9 395.5L288.7 405.8L297.4 410.8L304.6 402.9C306.7 403.4 308.8 403.7 310.9 403.7L315.9 413.3L325.6 410.7L325.2 401.5L325.1 399.9C326.9 398.8 328.6 397.5 330.2 396L340.5 399.2L344.8 391.8L345.5 390.5L337.6 383.2ZM314.7 389.1C307.8 391 300.7 386.9 298.8 380C296.9 373.1 301 366 307.9 364.1C314.8 362.2 321.9 366.3 323.8 373.2C325.7 380.1 321.6 387.2 314.7 389.1Z" fill="#263238"/>
<path d="M448.3 400.2L450.5 386.9L437 381.5C436.7 378.7 436 375.9 435.1 373.2L444.8 362.4L437 351.4L423.6 357.1C421.4 355.3 419 353.8 416.4 352.6L415.6 338.1L402.3 335.9L396.9 349.3C394.1 349.6 391.3 350.3 388.6 351.2L377.8 341.5L366.8 349.3L372.5 362.6C370.9 364.6 369.6 366.7 368.5 368.9C368.3 369.2 368.2 369.5 368 369.8L353.5 370.6L351.3 383.9L353.5 384.8L364.8 389.3C365.1 392.1 365.7 394.9 366.7 397.6L357 408.4L364.8 419.4L378.2 413.7C380.4 415.5 382.8 417 385.4 418.2L386.2 432.6L399.5 434.8L404.9 421.5C407.7 421.2 410.5 420.5 413.2 419.6L424 429.3L435 421.4L429.3 408C431.1 405.8 432.6 403.3 433.9 400.8L448.3 400.2ZM411 399.6C403.2 405.2 392.3 403.4 386.7 395.6C381.1 387.8 382.9 376.9 390.7 371.3C398.5 365.7 409.4 367.5 415 375.3C420.6 383.2 418.8 394 411 399.6Z" fill="#263238"/>
<path d="M268.1 472.8H163.5C156.3 472.8 150.4 466.9 150.4 459.7V314.9C150.4 307.7 156.3 301.8 163.5 301.8H268.1C275.3 301.8 281.2 307.7 281.2 314.9V459.7C281.2 466.9 275.3 472.8 268.1 472.8Z" fill="#3BCBBE" stroke="#263238" stroke-width="1.1031" stroke-miterlimit="10"/>
<path opacity="0.2" d="M268.1 472.8H163.5C156.3 472.8 150.4 466.9 150.4 459.7V314.9C150.4 307.7 156.3 301.8 163.5 301.8H268.1C275.3 301.8 281.2 307.7 281.2 314.9V459.7C281.2 466.9 275.3 472.8 268.1 472.8Z" fill="black"/>
<path d="M293.4 327.8V472.6C293.4 479.8 287.5 485.7 280.3 485.7H175.7C168.5 485.7 162.6 479.8 162.6 472.6V327.8C162.6 320.6 168.5 314.7 175.7 314.7H280.3C287.5 314.7 293.4 320.6 293.4 327.8Z" fill="white" stroke="#263238" stroke-width="1.1031" stroke-miterlimit="10" stroke-linecap="round" stroke-linejoin="round"/>
<path d="M293.4 327.8V335.6H162.6V327.8C162.6 320.6 168.5 314.7 175.7 314.7H280.3C287.5 314.7 293.4 320.6 293.4 327.8Z" fill="#3BCBBE" stroke="#263238" stroke-width="1.1031" stroke-miterlimit="10"/>
<path d="M207.1 344.5H174.9V349.9H207.1V344.5Z" fill="#3BCBBE"/>
<path d="M207.1 392.9H174.9V398.3H207.1V392.9Z" fill="#3BCBBE"/>
<path d="M207.1 436.8H174.9V442.2H207.1V436.8Z" fill="#3BCBBE"/>
<path d="M266.3 357.9H174.9V361.9H266.3V357.9Z" fill="#263238"/>
<path d="M249.8 365.5H174.9V369.4H249.8V365.5Z" fill="#263238"/>
<path d="M259.6 372.9H174.9V376.8H259.6V372.9Z" fill="#263238"/>
<path d="M259.6 380.4H174.9V384.3H259.6V380.4Z" fill="#263238"/>
<path d="M266.3 401.8H174.9V405.8H266.3V401.8Z" fill="#263238"/>
<path d="M249.8 409.4H174.9V413.3H249.8V409.4Z" fill="#263238"/>
<path d="M259.6 416.8H174.9V420.7H259.6V416.8Z" fill="#263238"/>
<path d="M266.3 450H174.9V454H266.3V450Z" fill="#263238"/>
<path d="M249.8 457.5H174.9V461.4H249.8V457.5Z" fill="#263238"/>
<path d="M259.6 465H174.9V468.9H259.6V465Z" fill="#263238"/>
<path d="M440.8 214.3V272.8C440.8 281.4 433.8 288.4 425.2 288.4H290.3C281.7 288.4 274.7 281.4 274.7 272.8V214.3C274.7 205.7 281.7 198.7 290.3 198.7H425.1C433.8 198.7 440.8 205.7 440.8 214.3Z" fill="white" stroke="#222221" stroke-width="1.1031" stroke-miterlimit="10"/>
<path d="M440.8 214.3V215.6H274.7V214.3C274.7 205.7 281.7 198.7 290.3 198.7H425.1C433.8 198.7 440.8 205.7 440.8 214.3Z" fill="#3BCBBE" stroke="#263238" stroke-width="1.1031" stroke-miterlimit="10"/>
<path d="M299.1 209.9C298.2 210.8 296.6 210.8 295.7 209.9C294.8 209 294.8 207.4 295.7 206.5C296.6 205.6 298.2 205.6 299.1 206.5C300 207.5 300 209 299.1 209.9Z" fill="#263238"/>
<path d="M310.2 209.9C309.3 210.8 307.7 210.8 306.8 209.9C305.9 209 305.9 207.4 306.8 206.5C307.7 205.6 309.3 205.6 310.2 206.5C311.2 207.5 311.2 209 310.2 209.9Z" fill="#263238"/>
<path d="M321.3 209.9C320.4 210.8 318.8 210.8 317.9 209.9C317 209 317 207.4 317.9 206.5C318.8 205.6 320.4 205.6 321.3 206.5C322.3 207.5 322.3 209 321.3 209.9Z" fill="#263238"/>
<path d="M339.6 226.4H285.3V273.3H339.6V226.4Z" stroke="#263238" stroke-width="1.1031" stroke-miterlimit="10" stroke-linecap="round" stroke-linejoin="round" stroke-dasharray="4.41 4.41"/>
<path d="M410.5 226.4H348V229.7H410.5V226.4Z" fill="#263238"/>
<path d="M395.9 233.2H348V236.5H395.9V233.2Z" fill="#263238"/>
<path d="M419.4 240H348V243.3H419.4V240Z" fill="#263238"/>
<path d="M408.799 246.7H348V250H408.799V246.7Z" fill="#263238"/>
<path d="M361.9 554.5C361.9 554.5 332.9 562.8 328.9 564.3C325.2 565.6 315.2 569.1 307.7 568C307 567.9 306.2 567.7 305.6 567.5C298 565.2 294.6 563.1 293.6 558.4C292.6 553.6 296.4 550.1 300 547.9C303.6 545.6 323.4 543.3 323.4 543.3L328.2 544.7L361.9 554.5Z" fill="#3BCBBE"/>
<path d="M307.7 567.9C307 567.8 306.2 567.6 305.6 567.4C298 565.1 294.6 563 293.6 558.3C292.6 553.5 296.4 550 300 547.8C303.6 545.5 323.4 543.2 323.4 543.2L328.2 544.6C323.9 546.6 307.8 547.7 304.3 549.7C300.8 551.7 299.1 555.5 301.2 560.7C302.2 563.4 305.1 566 307.7 567.9Z" fill="white"/>
<path d="M357.5 555.6C357.5 555.6 335.7 561.2 327.1 564.9C318.5 568.5 302 570.1 296.1 562.6C290.2 555.2 295.4 548.7 301.3 547.3C307.2 545.9 319 543.6 325.5 544.5" stroke="#263238" stroke-width="1.1031" stroke-miterlimit="10" stroke-linecap="round" stroke-linejoin="round"/>
<path d="M308.1 567.5C308.1 567.5 297 561.4 300.7 552.9C303.4 546.6 318.2 548 325.5 544.5" stroke="#263238" stroke-width="1.1031" stroke-miterlimit="10" stroke-linecap="round" stroke-linejoin="round"/>
<path d="M450.2 569.3C449.9 572.3 448.9 575.1 445.9 576.9C443.9 578.1 441.1 578.8 437 578.7C426.8 578.6 407.7 571.3 407.7 571.3L389.8 561.4L399.1 546.7L401.6 542.7L408.2 544.2C408.2 544.2 413.6 547.3 419.1 549.7C424.6 552.2 437.9 552.7 442.6 556.5C447.3 560.2 450.7 564.3 450.2 569.3Z" fill="#3BCBBE"/>
<path d="M450.2 569.3C449.9 572.3 448.9 575.1 445.9 576.9C446.5 574.6 446.9 571.4 445.4 568C443.4 563.5 436.9 559.6 428.3 558.9C419.8 558.2 413.2 554.2 409.8 552.4C407.1 551 401.5 548 399.1 546.7L401.6 542.7L408.2 544.2C408.2 544.2 413.6 547.3 419.1 549.7C424.6 552.2 437.9 552.7 442.6 556.5C447.3 560.2 450.7 564.3 450.2 569.3Z" fill="white"/>
<path d="M393.7 564.2C406.4 571.5 421 576.8 435.6 578.5C438.9 578.9 442.6 578.9 444.8 576.5C446 575.1 446.5 573.2 446.3 571.4C445.9 566.8 442 563.2 437.8 561.3C433.6 559.5 428.9 559 424.4 558C419.9 557 415.6 555.4 411.5 553.3C408.3 551.6 405.1 549.6 401.6 548.8C398 548 393.8 549 391.9 552.1" stroke="#263238" stroke-width="1.1031" stroke-miterlimit="10" stroke-linecap="round" stroke-linejoin="round"/>
<path d="M443.6 577.7C446.9 576 449.6 572.9 450.1 569.2C450.7 564.9 448.3 560.5 444.8 557.8C441.3 555.1 437 553.9 432.7 553C428.4 552.1 424 551.5 419.9 549.9C413.6 547.4 407.4 542.6 400.9 544.3" stroke="#263238" stroke-width="1.1031" stroke-miterlimit="10" stroke-linecap="round" stroke-linejoin="round"/>
<path d="M413.9 409.3L383.6 397.8L383.2 397.7C383.2 397.7 383.3 396.9 383.4 395.7C383.6 393.3 383.7 389.3 382.6 388C380.9 386 376.1 387.7 371.5 385.5C366.8 383.4 358.2 387.2 358.2 387.2C358.2 387.2 352 386.1 349.2 390.6C347.8 394.2 348.3 399.6 348.3 399.6C348.3 399.6 348.1 399.7 347.7 399.8C344.1 401.1 324.5 408.5 320.3 411.5C315.7 414.8 310.6 448.1 309 457.9C307.4 467.7 304.5 476.5 305.9 479.9C307.4 483.3 328.5 499.5 340.6 503.7C352.7 507.9 395.8 506.7 395.8 506.7C395.8 506.7 396.5 506.5 397.8 506.1C405.1 503.8 430.9 494.1 444.6 471.4C444.6 471.4 431.3 427.9 413.9 409.3ZM332.1 465.4C329.9 467 331.1 473.1 331.1 473.1L327.3 469.8L336.8 446.4L340.9 464.4C340.8 464.3 334.3 463.8 332.1 465.4ZM408.2 480.3C407.2 480.8 411.2 469.6 409.3 467C407.4 464.4 401.6 464.7 401.6 464.7L402.1 461.6C402.2 461.3 405.5 444 405.5 444L406.6 442.6C406.6 442.6 418.4 462.8 420.5 469.9C420.5 470 407.7 480.3 408.2 480.3Z" fill="#3BCBBE"/>
<path d="M356.7 336.3L341.1 352.9C341.1 352.9 338.9 354.8 339.8 359.6C340.7 364.4 342.7 368.6 344.2 368.9C345.7 369.2 347.8 369.2 347.8 369.2C347.8 369.2 351.2 376.5 353.5 379.3C353.5 379.3 354.3 390.5 353.9 393.6C353.9 393.6 359.5 398.5 364.8 399.1C370.1 399.7 378.3 391.6 378.3 391.6L380.3 381.7C380.3 381.7 385.1 374.4 385.4 372.5C385.7 370.6 387.9 371.1 389 370.1C390.1 369.1 392.6 364.9 393 360.8C393.4 356.8 393.4 352.1 388.7 353.5C384.6 352.4 387.2 343.8 387.2 343.8L380.1 337.5L356.7 336.3Z" fill="white"/>
<path opacity="0.5" d="M383.6 397.7C383.4 398.3 383.1 398.9 382.8 399.5C380.2 404.4 369 413.6 369 413.6L365.6 403.2L363.7 413.6C359.9 412 348.5 402.1 348.5 402.1C348.5 402.1 348.1 401.2 347.6 399.7C348 399.6 348.2 399.5 348.2 399.5C348.2 399.5 347.7 394.1 349.1 390.5C351.8 386 358.1 387.1 358.1 387.1C358.1 387.1 366.7 383.3 371.4 385.4C376.1 387.5 380.9 385.9 382.5 387.9C384.2 389.9 383.2 397.6 383.2 397.6L383.6 397.7Z" fill="white"/>
<path opacity="0.2" d="M413.9 409.3L383.6 397.8L383.2 397.7C383.2 397.7 383.3 396.9 383.4 395.7L382.8 399.6L378.3 405.7C378.3 405.7 385.9 408.4 392.3 411.9C396.8 414.3 399.3 419.1 398.7 424.1L393.1 471.8L390.8 498.9L397.7 506.1C405 503.8 430.8 494.1 444.5 471.4C444.6 471.4 431.3 427.9 413.9 409.3ZM408.2 480.3C407.2 480.8 411.2 469.6 409.3 467C407.4 464.4 401.6 464.7 401.6 464.7L402.1 461.6C402.2 461.3 405.5 444 405.5 444L406.6 442.6C406.6 442.6 418.4 462.8 420.5 469.9C420.5 470 407.7 480.3 408.2 480.3Z" fill="black"/>
<path opacity="0.2" d="M342.9 467L338.2 451.3C338.2 451.3 329.8 422.5 324 415.4L325.5 435.7C325.5 435.7 320.5 459.9 315.9 467.1C311.3 474.3 310.3 476.1 315.9 476.1C321.5 476.1 335.1 486.9 335.1 486.9L334.1 477.9L342.9 467ZM331 473.1L327.2 469.8L336.7 446.4L340.8 464.4C340.8 464.4 334.3 463.9 332.1 465.5C329.8 467 331 473.1 331 473.1Z" fill="black"/>
<path d="M353.5 379.3C353.5 379.3 354.4 387.8 353.5 391.7" stroke="#263238" stroke-width="1.1031" stroke-miterlimit="10" stroke-linecap="round" stroke-linejoin="round"/>
<path d="M379.1 390.5C379.1 390.5 379.1 386.4 380 382.4" stroke="#263238" stroke-width="1.1031" stroke-miterlimit="10" stroke-linecap="round" stroke-linejoin="round"/>
<path d="M381.4 342.6C381.4 342.6 386.5 349.1 386.3 353.9C386 358.8 385.6 364.6 385.8 370.2C385.9 375.9 376.7 387.7 372 388.8C367.3 389.9 363.2 390.1 360.1 387.1C357.1 384.1 354 379.9 350.1 374.5C346.1 369.1 347.1 357.3 347.1 357.3" stroke="#263238" stroke-width="1.1031" stroke-miterlimit="10" stroke-linecap="round" stroke-linejoin="round"/>
<path d="M369 361.7C368.7 363.5 368.6 365.3 368.6 367.1C368.6 368.6 368.9 370.2 369.9 371.3C370.5 371.9 371.3 372.3 371.4 373.1C371.5 373.8 371 374.5 370.3 374.8C369.7 375.2 369 375.4 368.4 375.9" stroke="#263238" stroke-width="1.1031" stroke-miterlimit="10" stroke-linecap="round" stroke-linejoin="round"/>
<path d="M360.9 376.6C360.9 376.6 361.5 380.4 366.6 381.2" stroke="#263238" stroke-width="1.1031" stroke-miterlimit="10" stroke-linecap="round" stroke-linejoin="round"/>
<path d="M361.4 364.6C361.4 365.7 360.9 366.6 360.3 366.6C359.7 366.6 359.2 365.7 359.2 364.6C359.2 363.5 359.7 362.6 360.3 362.6C360.9 362.6 361.4 363.5 361.4 364.6Z" fill="#263238"/>
<path d="M376.7 365.1C376.7 366.2 376.2 367.1 375.6 367.1C375 367.1 374.5 366.2 374.5 365.1C374.5 364 375 363.1 375.6 363.1C376.2 363.1 376.7 364 376.7 365.1Z" fill="#263238"/>
<path d="M373.6 360.3C373.6 360.3 378.6 355.3 382.8 360.9" stroke="#263238" stroke-width="2.2062" stroke-miterlimit="10" stroke-linecap="round" stroke-linejoin="round"/>
<path d="M363.1 360.4C363.1 360.4 359.9 356.9 355 360.4" stroke="#263238" stroke-width="2.2062" stroke-miterlimit="10" stroke-linecap="round" stroke-linejoin="round"/>
<path d="M353.9 383.9C353.9 383.9 356.9 392.3 363.8 394.7C370.6 397.1 379.7 384.7 379.7 384.7L379.2 383.1C379.2 383.1 373.3 390.8 366.7 389.5C360.1 388.2 353.6 379.3 353.6 379.3L353.9 383.9Z" fill="#263238"/>
<path d="M347.8 368.8C347.8 368.8 343.7 370.2 342.7 367.1C341.6 363.9 337.9 355.6 341.2 352.8C344.4 350 347 356.5 347 356.5" stroke="#263238" stroke-width="1.1031" stroke-miterlimit="10" stroke-linecap="round" stroke-linejoin="round"/>
<path d="M385.7 370.6C385.7 370.6 389.5 371.4 390.6 368.2C391.7 365 395.4 356.7 392.1 353.9C388.9 351.1 386.3 357.6 386.3 357.6" stroke="#263238" stroke-width="1.1031" stroke-miterlimit="10" stroke-linecap="round" stroke-linejoin="round"/>
<path d="M346.9 364.6C348 364.5 349.9 363.5 350.5 362.5C351.1 361.5 351.3 360.4 351.5 359.3C351.9 357.2 352.1 355 352.1 352.9C352.1 352.1 352.1 351.2 352.3 350.4C352.6 349.6 353.1 348.8 353.7 348.2C355.1 346.5 356.8 345.1 358.2 343.4C359.5 341.7 360.5 339.5 360.2 337.4C360.2 337.4 369.4 345.8 382.7 343.2C389.8 341.8 396.7 335.5 395.9 327.7C395.6 324.9 393.5 322.9 390.9 322.2C387.4 321.3 384.2 323.2 381 324.4C375.2 326.6 369.5 322.8 363.6 322.2C358.6 321.7 352.4 322.3 349.8 327.3C349.8 327.3 340.7 328.4 336.8 335.8C332.8 343.2 340.4 353.5 340.4 353.5C340.4 353.5 343.4 349.8 347.3 357.3L346.9 364.6Z" fill="#263238"/>
<path d="M382 340.7C382 340.7 379.7 352.9 385.8 358.8C385.8 358.8 387.1 355.1 388.5 354.2C388.5 354.2 391.9 347.8 387.4 340.7C382.9 333.6 382 340.7 382 340.7Z" fill="#263238"/>
<path opacity="0.2" d="M393.1 326.8C392.2 330.2 389.4 332.8 386.1 334.1C377.6 337.6 369.4 333.7 360.9 333C354 332.4 346.3 338.6 345.8 345.8" stroke="white" stroke-width="1.1031" stroke-miterlimit="10" stroke-linecap="round" stroke-linejoin="round"/>
<path opacity="0.2" d="M340.6 343.8C340.7 338.2 344.4 332.8 349.6 330.7" stroke="white" stroke-width="1.1031" stroke-miterlimit="10" stroke-linecap="round" stroke-linejoin="round"/>
<path d="M351.5 390.5C351.5 390.5 357.1 396.7 364.7 399.5C364.7 399.5 374.9 396.6 380 389.5" stroke="#263238" stroke-width="1.1031" stroke-miterlimit="10" stroke-linecap="round" stroke-linejoin="round"/>
<path d="M361.861 372.798C366.38 370.726 368.363 365.384 366.29 360.865C364.218 356.347 358.876 354.364 354.357 356.436C349.839 358.509 347.856 363.851 349.928 368.369C352.001 372.888 357.343 374.871 361.861 372.798Z" stroke="#263238" stroke-width="1.1031" stroke-miterlimit="10" stroke-linecap="round" stroke-linejoin="round"/>
<path d="M379.276 373.53C384.209 372.924 387.717 368.434 387.112 363.501C386.506 358.567 382.015 355.059 377.082 355.665C372.149 356.271 368.641 360.761 369.247 365.695C369.852 370.628 374.343 374.136 379.276 373.53Z" stroke="#263238" stroke-width="1.1031" stroke-miterlimit="10" stroke-linecap="round" stroke-linejoin="round"/>
<path d="M353.5 387.2C353.5 387.2 350.8 387.8 349.2 390.6C347.6 393.4 348.6 402.2 348.6 402.2C348.6 402.2 356.8 410.3 363.8 413.7L365.9 402.1L369.1 413.7C369.1 413.7 379.9 406 382.9 399.6C382.9 399.6 383.9 392.1 382.9 389.6C381.9 387.1 379.7 387.2 379.7 387.2" stroke="#263238" stroke-width="1.1031" stroke-miterlimit="10" stroke-linecap="round" stroke-linejoin="round"/>
<path d="M340.6 464.7C340.6 464.7 337.4 443.2 333.1 434.4" stroke="#263238" stroke-width="1.1031" stroke-miterlimit="10" stroke-linecap="round" stroke-linejoin="round"/>
<path d="M323.9 415.4C323.9 415.4 328 421.1 330.5 426.5" stroke="#263238" stroke-width="1.1031" stroke-miterlimit="10" stroke-linecap="round" stroke-linejoin="round"/>
<path d="M408.2 431.4C409.3 427.1 410.5 423.4 411.7 420.9" stroke="#263238" stroke-width="1.1031" stroke-miterlimit="10" stroke-linecap="round" stroke-linejoin="round"/>
<path d="M401.6 464.7C401.6 464.7 403.9 450 406.7 437.8" stroke="#263238" stroke-width="1.1031" stroke-miterlimit="10" stroke-linecap="round" stroke-linejoin="round"/>
<path d="M405.5 444C407.7 441.1 410.9 438.9 414.4 437.9" stroke="#263238" stroke-width="1.1031" stroke-miterlimit="10" stroke-linecap="round" stroke-linejoin="round"/>
<path d="M383.2 397.6C383.2 397.6 401.8 405 413.9 409.3C413.9 409.3 428.7 423.2 444.6 471.4C444.6 471.4 430.1 495.9 402.4 503.7" stroke="#263238" stroke-width="1.1031" stroke-miterlimit="10" stroke-linecap="round" stroke-linejoin="round"/>
<path d="M407.2 481.1L420.6 469.9C420.6 469.9 427.7 464.5 435 468.2" stroke="#263238" stroke-width="1.1031" stroke-miterlimit="10" stroke-linecap="round" stroke-linejoin="round"/>
<path d="M406.7 442.7C406.7 442.7 417.8 459 420.6 470" stroke="#263238" stroke-width="1.1031" stroke-miterlimit="10" stroke-linecap="round" stroke-linejoin="round"/>
<path d="M331.2 473.7L327.3 470C327.3 470 321.5 469 314.9 473.4" stroke="#263238" stroke-width="1.1031" stroke-miterlimit="10" stroke-linecap="round" stroke-linejoin="round"/>
<path d="M327.2 470C327.2 470 332.1 454 336.8 445.8" stroke="#263238" stroke-width="1.1031" stroke-miterlimit="10" stroke-linecap="round" stroke-linejoin="round"/>
<path d="M348.2 399.5C348.2 399.5 321.4 409.6 318.8 412.5C316.2 415.4 306.2 471.7 305.9 478.1C305.7 483.9 326.5 496.8 336.9 502.2" stroke="#263238" stroke-width="1.1031" stroke-miterlimit="10" stroke-linecap="round" stroke-linejoin="round"/>
<path d="M445.3 390.5H414.7C411.1 390.5 408.2 387.6 408.2 384V366.1C408.2 362.5 411.1 359.6 414.7 359.6H445.3C448.9 359.6 451.8 362.5 451.8 366.1V384C451.8 387.6 448.9 390.5 445.3 390.5Z" fill="white" stroke="#263238" stroke-width="1.1031" stroke-miterlimit="10" stroke-linecap="round" stroke-linejoin="round"/>
<path d="M422.3 368.8L413.9 374.1L421.7 381" stroke="#263238" stroke-width="1.1031" stroke-miterlimit="10" stroke-linecap="round" stroke-linejoin="round"/>
<path d="M437.6 381.5L445.1 375.1L436.4 369.4" stroke="#263238" stroke-width="1.1031" stroke-miterlimit="10" stroke-linecap="round" stroke-linejoin="round"/>
<path d="M426.4 385.5L432.6 366.1" stroke="#263238" stroke-width="1.1031" stroke-miterlimit="10" stroke-linecap="round" stroke-linejoin="round"/>
<path d="M368.3 418.6C368.3 419.6 367.5 420.4 366.5 420.4C365.5 420.4 364.7 419.6 364.7 418.6C364.7 417.6 365.5 416.8 366.5 416.8C367.5 416.8 368.3 417.6 368.3 418.6Z" fill="#263238"/>
<path d="M399.3 512.8H338.3C337.5 512.8 336.9 512.2 336.9 511.4C336.9 510.6 337.5 510 338.3 510H399.3C400.1 510 400.7 510.6 400.7 511.4C400.8 512.1 400.1 512.8 399.3 512.8Z" fill="#263238"/>
<path d="M401.5 508L409.7 469.6C410.2 467.1 408.3 464.7 405.7 464.7H334.4C331.8 464.7 329.9 467.1 330.4 469.6L337.7 506.7C338.1 508.6 339.7 509.9 341.6 510L397.4 511.3C399.3 511.3 401 510 401.5 508Z" fill="white" stroke="#263238" stroke-width="1.1031" stroke-miterlimit="10" stroke-linecap="round" stroke-linejoin="round"/>
<path d="M375.4 486.8C375.4 489.9 372.9 492.5 369.7 492.5C366.5 492.5 364 490 364 486.8C364 483.7 366.5 481.1 369.7 481.1C372.9 481.1 375.4 483.7 375.4 486.8Z" fill="#263238"/>
<path d="M386.6 468.3H395.1" stroke="#263238" stroke-width="1.1031" stroke-miterlimit="10" stroke-linecap="round" stroke-linejoin="round"/>
<path d="M346.2 468.3H378.3" stroke="#263238" stroke-width="1.1031" stroke-miterlimit="10" stroke-linecap="round" stroke-linejoin="round"/>
<path d="M401.6 548.8L395.1 565.9C395.1 565.9 378.5 561.7 357.3 557.4C335.1 552.8 311.9 547 299.9 525.9C298.4 523.3 297.5 520.3 298.1 517.4C299.8 510.1 309.3 508.1 315.6 507.4C319.5 506.9 323.5 506.8 327.4 506.7C329.4 506.7 336.1 505.6 337.7 506.8C337.7 506.8 341.9 509.9 345.4 511.4C348.9 512.9 400.8 510 400.8 510C400.8 510 402.3 506.7 402.4 503.8C410.5 499.7 429.4 496.2 437.4 497.7C449.9 500.1 457.2 507.4 455.9 515.1C454.4 522.7 426.8 543.2 401.6 548.8Z" fill="#263238"/>
<path d="M401.6 548.8C401.6 548.8 385.8 544.6 373 535.9C360.1 527.2 350.1 517.1 332.1 519.2" stroke="white" stroke-width="1.1031" stroke-miterlimit="10" stroke-linecap="round" stroke-linejoin="round"/>
<path d="M370 533.8C378.1 531.5 384.1 526.2 390.6 521.1C397.5 515.7 404.8 510.6 412.7 506.6" stroke="white" stroke-width="1.1031" stroke-miterlimit="10" stroke-linecap="round" stroke-linejoin="round"/>
<path d="M367.1 366.1H369.5" stroke="#263238" stroke-width="1.1031" stroke-miterlimit="10" stroke-linecap="round" stroke-linejoin="round"/>
</g>
<defs>
<filter id="filter0_f_32_1845" x="-67" y="-61" width="763.562" height="763.562" filterUnits="userSpaceOnUse" color-interpolation-filters="sRGB">
<feFlood flood-opacity="0" result="BackgroundImageFix"/>
<feBlend mode="normal" in="SourceGraphic" in2="BackgroundImageFix" result="shape"/>
<feGaussianBlur stdDeviation="100" result="effect1_foregroundBlur_32_1845"/>
</filter>
<clipPath id="clip0_32_1845">
<rect width="630" height="576" fill="white"/>
</clipPath>
</defs>
</svg>
