<svg width="512" height="512" viewBox="0 0 512 512" fill="none" xmlns="http://www.w3.org/2000/svg">
<g clip-path="url(#clip0_21_112)">
<path d="M442.138 22.0331C443.999 19.4328 444.25 16.0103 442.788 13.1662C441.327 10.3222 438.398 8.53393 435.2 8.53333H412.646C409.904 8.53636 407.332 9.86517 405.743 12.1003L361.037 74.9483C359.449 77.1853 356.876 78.5144 354.133 78.5144C351.39 78.5144 348.817 77.1853 347.23 74.9483L302.524 12.1003C300.935 9.86517 298.363 8.53636 295.62 8.53333H273.067C269.875 8.54667 266.958 10.3398 265.505 13.1814C264.052 16.0229 264.306 19.4378 266.163 22.0331L274.074 33.1264L291.584 57.7365L328.909 110.208C331.034 113.178 331.034 117.171 328.909 120.141L266.129 208.367C264.268 210.967 264.017 214.39 265.479 217.234C266.94 220.078 269.869 221.866 273.067 221.867H295.654C298.397 221.864 300.969 220.535 302.558 218.3L347.264 155.452C348.849 153.211 351.423 151.879 354.167 151.879C356.912 151.879 359.486 153.211 361.071 155.452L405.777 218.3C407.366 220.535 409.938 221.864 412.681 221.867H435.2C438.391 221.853 441.309 220.06 442.762 217.219C444.215 214.377 443.961 210.962 442.103 208.367L379.392 120.166C377.267 117.197 377.267 113.203 379.392 110.234L442.138 22.0331Z" fill="#00C695"/>
<path d="M102.4 8.53333H76.8001C72.0872 8.53333 68.2667 12.3538 68.2667 17.0667V145.067C68.2667 166.325 77.0777 186.632 92.6023 201.154C108.127 215.676 128.976 223.113 150.187 221.696C191.152 218.124 222.42 183.547 221.867 142.43V17.0667C221.867 12.3538 218.046 8.53333 213.333 8.53333H187.733C183.021 8.53333 179.2 12.3538 179.2 17.0667V145.067C179.2 154.7 175.13 163.885 167.993 170.356C160.856 176.826 151.317 179.98 141.73 179.038C123.922 176.834 110.641 161.558 110.933 143.616V17.0667C110.933 12.3538 107.113 8.53333 102.4 8.53333V8.53333Z" fill="#00C695"/>
<path d="M213.333 290.133H187.733C183.021 290.133 179.2 293.954 179.2 298.667V426.667C179.2 436.3 175.13 445.485 167.993 451.956C160.856 458.426 151.317 461.58 141.73 460.638C123.922 458.434 110.641 443.158 110.933 425.216V298.667C110.933 293.954 107.113 290.133 102.4 290.133H76.8001C72.0872 290.133 68.2667 293.954 68.2667 298.667V426.667C68.2667 447.925 77.0777 468.232 92.6023 482.754C108.127 497.275 128.976 504.713 150.187 503.296C191.152 499.724 222.42 465.147 221.867 424.03V298.667C221.867 293.954 218.046 290.133 213.333 290.133V290.133Z" fill="#00C695"/>
<path d="M435.2 290.133H281.6C276.887 290.133 273.067 293.954 273.067 298.667V324.267C273.067 328.979 276.887 332.8 281.6 332.8H332.8C337.513 332.8 341.333 336.62 341.333 341.333V452.267C341.333 456.979 337.513 460.8 332.8 460.8H281.6C276.887 460.8 273.067 464.62 273.067 469.333V494.933C273.067 499.646 276.887 503.467 281.6 503.467H435.2C439.913 503.467 443.733 499.646 443.733 494.933V469.333C443.733 464.62 439.913 460.8 435.2 460.8H384C379.287 460.8 375.467 456.979 375.467 452.267V341.333C375.467 336.62 379.287 332.8 384 332.8H435.2C439.913 332.8 443.733 328.979 443.733 324.267V298.667C443.733 293.954 439.913 290.133 435.2 290.133Z" fill="#00C695"/>
<path d="M503.467 247.467H8.53333C3.8205 247.467 0 251.287 0 256C0 260.713 3.8205 264.533 8.53333 264.533H503.467C508.18 264.533 512 260.713 512 256C512 251.287 508.18 247.467 503.467 247.467Z" fill="#00C695"/>
</g>
<defs>
<clipPath id="clip0_21_112">
<rect width="512" height="512" fill="white"/>
</clipPath>
</defs>
</svg>
